<?xml version="1.0" encoding="UTF-8" standalone="no"?>
<svg
   xmlns:dc="http://purl.org/dc/elements/1.1/"
   xmlns:cc="http://creativecommons.org/ns#"
   xmlns:rdf="http://www.w3.org/1999/02/22-rdf-syntax-ns#"
   xmlns:svg="http://www.w3.org/2000/svg"
   xmlns="http://www.w3.org/2000/svg"
   xmlns:sodipodi="http://sodipodi.sourceforge.net/DTD/sodipodi-0.dtd"
   xmlns:inkscape="http://www.inkscape.org/namespaces/inkscape"
   version="1.1"
   viewBox="0 0 231 231"
   id="svg30"
   sodipodi:docname="00.svg"
   inkscape:version="1.0.1 (3bc2e813f5, 2020-09-07)">
  <style
     id="style887"></style>
  <metadata
     id="metadata36">
    <rdf:RDF>
      <cc:Work
         rdf:about="">
        <dc:format>image/svg+xml</dc:format>
        <dc:type
           rdf:resource="http://purl.org/dc/dcmitype/StillImage" />
        <dc:title />
      </cc:Work>
    </rdf:RDF>
  </metadata>
  <defs
     id="defs34" />
  <sodipodi:namedview
     inkscape:document-rotation="0"
     pagecolor="#ffffff"
     bordercolor="#666666"
     borderopacity="1"
     objecttolerance="10"
     gridtolerance="10"
     guidetolerance="10"
     inkscape:pageopacity="0"
     inkscape:pageshadow="2"
     inkscape:window-width="1842"
     inkscape:window-height="1051"
     id="namedview32"
     showgrid="false"
     inkscape:zoom="0.13409374"
     inkscape:cx="-683.98477"
     inkscape:cy="-604.2224"
     inkscape:window-x="69"
     inkscape:window-y="-9"
     inkscape:window-maximized="1"
     inkscape:current-layer="svg30" />
  <path
     class="env"
     d="m33.821 33.83a115.5 115.5 0 1 1 0 163.34 115.51 115.51 0 0 1 0-163.33z"
     style="fill-rule:evenodd;fill:#6d6d6d"
     id="path2" />
  <path
     d="m105 166.5h21.001v26a116.28 116.28 0 0 1 15.751 2.5l13.121 22.72a109.85 109.85 0 0 1-78.743 0l13.111-22.72a116.6 116.6 0 0 1 15.761-2.53v-26z"
     style="fill-rule:evenodd;fill:#fff"
     id="path4" />
  <path
     class="clothes"
     d="m141.74 195a114.93 114.93 0 0 1 37.912 16.45l0.07 0.05c-1.17 0.79-2.3601 1.55-3.5601 2.29a115.55 115.55 0 0 1-120.95 0.21q-2.0001-1.23-4.0002-2.54a114.79 114.79 0 0 1 38.002-16.5 116.21 116.21 0 0 1 15.791-2.49v-14.57c1.32 0.22 2.6501 0.39 4.0002 0.51 2.0001 0.19 4.0002 0.28 6.1202 0.29a64.333 64.33 0 0 0 8.8804-0.62c0.67003-0.09 1.3401-0.2 2.0001-0.31v14.69a118 118 0 0 1 15.741 2.54z"
     style="fill:#fff"
     id="path12" />
  <path
     class="clothes"
     d="m79.292 212a3.4601 3.46 0 0 0 3.8902 5.07 3.3801 3.38 0 0 0 2.1001-1.61 3.4701 3.47 0 0 0-1.2801-4.72 3.4201 3.42 0 0 0-2.6201-0.34 3.5101 3.51 0 0 0-2.0901 1.6zm60.122 0.46a3.4901 3.49 0 0 0 1.21 4.7h0.06a3.4601 3.46 0 0 0 4.7202-1.27l0.07-0.13a3.4601 3.46 0 0 0-1.34-4.6 3.4601 3.46 0 0 0-2.5801-0.32 3.5301 3.53 0 0 0-2.1001 1.61zm9.8004 5.7 5.8602 5.87c-1.39 0.5-2.7901 1-4.2102 1.44l-4.4802-4.47a7.5203 7.52 0 0 1-1.9401 0.81 7.8303 7.83 0 0 1-6.0002-0.79 7.8703 7.87 0 0 1-2.9201-10.69v-0.07a7.8903 7.89 0 0 1 10.77-2.88l0.12 0.07a7.8603 7.86 0 0 1 2.7901 10.62v0.07zm-37.701-2.36-9.5004 9.51v4.9c-1.35-0.16-2.6801-0.33-4.0002-0.54v-6l0.58002-0.58 10.1-10.09a7.8703 7.87 0 1 1 2.8401 2.86zm7.3203-5.91a3.4601 3.46 0 1 0-1.6101 2.1 3.3801 3.38 0 0 0 1.6101-2.1zm-29.741 7.82 3.0901 3.1 0.59002 0.59v7.36c-1.3401-0.26-2.6801-0.55-4.0002-0.87v-4.84l-2.5101-2.51a7.5203 7.52 0 0 1-1.9401 0.81 7.8803 7.88 0 1 1 1.9101-14.43 7.8703 7.87 0 0 1 2.8901 10.75z"
     style="fill:#1a1a1a"
     id="path14" />
  <path
     id="path861"
     style="fill:#6d6d6d;fill-rule:evenodd"
     d="m -1419.2249,33.83 a 115.5,115.5 0 1 1 0,163.34 115.51,115.51 0 0 1 0,-163.33 z"
     class="env"
     inkscape:connector-curvature="0" />
  <path
     id="path863"
     style="fill:#ffffff;fill-rule:evenodd"
     d="m -1348.0459,166.5 h 21.001 v 26 a 116.28,116.28 0 0 1 15.751,2.5 l 13.121,22.72 a 109.85,109.85 0 0 1 -78.743,0 l 13.111,-22.72 a 116.6,116.6 0 0 1 15.761,-2.53 v -26 z"
     inkscape:connector-curvature="0" />
  <path
     id="path865"
     style="fill:#ffffff;fill-rule:evenodd"
     d="m -1337.9359,51.21 a 63.753,63.75 0 1 1 -63.753,63.79 63.753,63.75 0 0 1 63.753,-63.79 z"
     inkscape:connector-curvature="0" />
  <path
     id="path867"
     style="fill:#ffffff;fill-rule:evenodd;stroke:#1a1a1a;stroke-width:3.0001px;stroke-miterlimit:2.6131"
     d="m -1359.2429,136.84 h 42.632 a 3.7801,3.78 0 0 1 3.7802,3.78 v 3.22 a 15.231,15.23 0 0 1 -15.211,15.16 h -19.781 a 15.251,15.25 0 0 1 -15.221,-15.16 v -3.22 a 3.8002,3.8 0 0 1 3.7802,-3.78 z"
     class="mouth"
     inkscape:connector-curvature="0" />
  <path
     id="path869"
     style="fill:none;stroke:#1a1a1a;stroke-width:3.0001px;stroke-miterlimit:2.6131"
     d="M -1322.4759,136.84 V 158 m -30.911,-21.16 V 158 m 10.34,-21.16 V 159 m 10.31,-22.2 V 159"
     class="mouth"
     inkscape:connector-curvature="0" />
  <path
     id="path871"
     style="fill:#ffffff"
     d="m -1311.3059,195 a 114.93,114.93 0 0 1 37.912,16.45 l 0.07,0.05 c -1.17,0.79 -2.3601,1.55 -3.5601,2.29 a 115.55,115.55 0 0 1 -120.95,0.21 q -2.0001,-1.23 -4.0002,-2.54 a 114.79,114.79 0 0 1 38.002,-16.5 116.21,116.21 0 0 1 15.791,-2.49 V 177.9 c 1.32,0.22 2.6501,0.39 4.0002,0.51 2.0001,0.19 4.0002,0.28 6.1202,0.29 a 64.333,64.33 0 0 0 8.8804,-0.62 c 0.6701,-0.09 1.3401,-0.2 2.0001,-0.31 v 14.69 a 118,118 0 0 1 15.741,2.54 z"
     class="clothes"
     inkscape:connector-curvature="0" />
  <path
     id="path873"
     style="fill:#1a1a1a"
     d="m -1373.7539,212 a 3.4601,3.46 0 0 0 3.8902,5.07 3.3801,3.38 0 0 0 2.1001,-1.61 3.4701,3.47 0 0 0 -1.2801,-4.72 3.4201,3.42 0 0 0 -2.6201,-0.34 3.5101,3.51 0 0 0 -2.0901,1.6 z m 60.122,0.46 a 3.4901,3.49 0 0 0 1.21,4.7 h 0.06 a 3.4601,3.46 0 0 0 4.7202,-1.27 l 0.07,-0.13 a 3.4601,3.46 0 0 0 -1.34,-4.6 3.4601,3.46 0 0 0 -2.5801,-0.32 3.5301,3.53 0 0 0 -2.1001,1.61 z m 9.8004,5.7 5.8602,5.87 c -1.39,0.5 -2.7901,1 -4.2102,1.44 l -4.4802,-4.47 a 7.5203,7.52 0 0 1 -1.9401,0.81 7.8303,7.83 0 0 1 -6.0002,-0.79 7.8703,7.87 0 0 1 -2.9201,-10.69 v -0.07 a 7.8903,7.89 0 0 1 10.77,-2.88 l 0.12,0.07 a 7.8603,7.86 0 0 1 2.7901,10.62 v 0.07 z m -37.701,-2.36 -9.5004,9.51 v 4.9 c -1.35,-0.16 -2.6801,-0.33 -4.0002,-0.54 v -6 l 0.5801,-0.58 10.1,-10.09 a 7.8703,7.87 0 1 1 2.8401,2.86 z m 7.3203,-5.91 a 3.4601,3.46 0 1 0 -1.6101,2.1 3.3801,3.38 0 0 0 1.6101,-2.1 z m -29.741,7.82 3.0901,3.1 0.5901,0.59 v 7.36 c -1.3401,-0.26 -2.6801,-0.55 -4.0002,-0.87 v -4.84 l -2.5101,-2.51 a 7.5203,7.52 0 0 1 -1.9401,0.81 7.8803,7.88 0 1 1 1.9101,-14.43 7.8703,7.87 0 0 1 2.8901,10.75 z"
     class="clothes"
     inkscape:connector-curvature="0" />
  <path
     id="path875"
     style="fill:#1a1a1a;fill-rule:evenodd"
     d="m -1369.6939,83.92 h 63.533 a 19.101,19.1 0 0 1 19.051,19 19.111,19.11 0 0 1 -19.051,19 h -63.533 a 19.091,19.09 0 0 1 -19.001,-19 19.091,19.09 0 0 1 19.001,-19 z"
     class="eyes"
     inkscape:connector-curvature="0" />
  <path
     id="path877"
     style="fill:#e6e7e8;fill-rule:evenodd"
     d="m -1313.2059,93.54 a 9.3804,9.38 0 1 0 9.3804,9.38 9.3804,9.38 0 0 0 -9.3804,-9.38 z m -49.402,0 a 9.3804,9.38 0 1 0 9.3804,9.38 9.3904,9.39 0 0 0 -9.3804,-9.38 z"
     class="eyes"
     inkscape:connector-curvature="0" />
  <path
     inkscape:connector-curvature="0"
     id="path879"
     style="fill:#ffffff;stroke:#000000;stroke-width:3;stroke-linecap:round;stroke-linejoin:round"
     d="m -1258.6435,67.662109 c 0.2229,1.2884 0.768,6.674938 -3.3946,15.960938 -3.1366,6.997532 -10.0756,11.551715 -14.5722,13.914062 a 63.753,63.75 0 0 1 -1.4531,39.320311 c 3.9508,-2.47969 8.7844,-7.31375 13.8066,-16.59765 11.849,-21.903004 5.9749,-50.881661 5.6133,-52.597661 z" />
  <path
     style="fill:#ffffff"
     id="path881"
     d="m -1337.1859,15.191 c 10.156,0.17633 15.026,12.542 7.7211,19.598 -7.3049,7.056 -19.494,1.7588 -19.318,-8.3967 0.1038,-6.2978 5.2993,-11.316 11.597,-11.201 z"
     class="top"
     inkscape:connector-curvature="0" />
  <path
     style="fill:#1a1a1a"
     id="path883"
     d="m -1337.1459,13.191 c -7.3787,-0.13351 -13.509,5.7888 -13.631,13.168 -0.1012,5.8827 3.4508,10.518 8.0566,12.52 1.061,0.46115 2.1869,0.78009 3.3418,0.95703 v 11.391 a 63.753,63.75 0 0 1 1.4512,-0.01563 63.753,63.75 0 0 1 2.5488,0.05078 v -11.41 c 2.6002,-0.38406 5.1586,-1.5484 7.3086,-3.625 4.2322,-4.0878 4.9991,-9.8757 3.1582,-14.549 -1.8407,-4.6726 -6.3498,-8.3834 -12.232,-8.4863 z m -0.07,4 a 2.0002,2.0002 0 0 0 0,0 c 4.2719,0.07417 7.275,2.6334 8.582,5.9512 1.307,3.3178 0.856,7.2391 -2.2168,10.207 -3.0728,2.9679 -7.007,3.2827 -10.277,1.8613 -3.27,-1.4214 -5.7246,-4.5113 -5.6504,-8.7832 a 2.0002,2.0002 0 0 0 0,-0.002 c 0.086,-5.2158 4.3449,-9.3295 9.5606,-9.2344 z"
     class="top"
     inkscape:connector-curvature="0" />
  <path
     inkscape:connector-curvature="0"
     id="path885"
     style="fill:#ffffff;stroke:#000000;stroke-width:3;stroke-linecap:round;stroke-linejoin:round"
     d="m -1416.4463,67.662109 c -0.3629,1.722709 -6.2342,30.695487 5.6133,52.595701 4.5945,8.49308 9.0282,13.26237 12.7754,15.91211 A 63.753,63.75 0 0 1 -1401.6885,115 a 63.753,63.75 0 0 1 2.5293,-17.822266 c -4.4943,-2.458134 -10.9153,-6.907827 -13.8945,-13.554687 -4.1626,-9.285 -3.6155,-14.672738 -3.3926,-15.960938 z" />
  <rect
     id="rect887"
     style="fill:#b3b3b3;fill-rule:evenodd"
     ry="4.2929001"
     height="8.5859003"
     width="71.471001"
     y="98.626999"
     x="-1373.6379"
     class="eyes" />
  <path
     class="env"
     d="m -1602.1165,225.63381 a 115.50457,115.5 0 1 1 0,163.34 v 0 a 115.51457,115.51 0 0 1 0,-163.33 z"
     style="fill:#6d6d6d;fill-rule:evenodd;stroke-width:1.00002"
     id="path24-2"
     inkscape:connector-curvature="0" />
  <path
     d="m -1530.9337,358.30381 h 21.0008 v 26 a 116.2846,116.28 0 0 1 15.7506,2.5 l 13.1206,22.72 a 109.85435,109.85 0 0 1 -78.7432,0 l 13.1106,-22.72 a 116.60462,116.6 0 0 1 15.7606,-2.53 v -26 z"
     style="fill:#ffffff;fill-rule:evenodd;stroke-width:1.00002"
     id="path27"
     inkscape:connector-curvature="0" />
  <path
     d="m -1520.8233,243.01381 a 63.752524,63.75 0 1 1 -63.7525,63.79 63.752524,63.75 0 0 1 63.7525,-63.79 z"
     style="fill:#ffffff;fill-rule:evenodd;stroke-width:1.00002"
     id="path29"
     inkscape:connector-curvature="0" />
  <path
     class="mouth"
     d="m -1542.1342,328.64381 h 42.6317 a 3.7801497,3.78 0 0 1 3.7802,3.78 v 3.22 a 15.230603,15.23 0 0 1 -15.2106,15.16 h -19.7808 a 15.250604,15.25 0 0 1 -15.2206,-15.16 v -3.22 a 3.8001505,3.8 0 0 1 3.7801,-3.78 z"
     style="fill:#ffffff;fill-rule:evenodd;stroke:#1a1a1a;stroke-width:3.00006px;stroke-miterlimit:2.61313"
     id="path31"
     inkscape:connector-curvature="0" />
  <path
     class="mouth"
     d="m -1505.3627,328.64381 v 21.16 m -30.9112,-21.16 v 21.16 m 10.3404,-21.16 v 22.16 m 10.3104,-22.2 v 22.2"
     style="fill:none;stroke:#1a1a1a;stroke-width:3.00006px;stroke-miterlimit:2.61313"
     id="path33"
     inkscape:connector-curvature="0" />
  <path
     class="clothes"
     d="m -1494.1923,386.80381 a 114.93455,114.93 0 0 1 37.9115,16.45 v 0 l 0.07,0.05 c -1.17,0.79 -2.36,1.55 -3.5601,2.29 v 0 a 115.55458,115.55 0 0 1 -120.9548,0.21 q -2.0001,-1.23 -4.0001,-2.54 a 114.79455,114.79 0 0 1 38.0015,-16.5 v 0 a 116.2146,116.21 0 0 1 15.7906,-2.49 v -14.57 c 1.32,0.22 2.6501,0.39 4.0001,0.51 v 0 c 2.0001,0.19 4.0002,0.28 6.1203,0.29 a 64.332547,64.33 0 0 0 8.8803,-0.62 v 0 c 0.6701,-0.09 1.3401,-0.2 2.0001,-0.31 v 14.69 a 118.00467,118 0 0 1 15.7406,2.54 z"
     style="fill:#ffffff;stroke-width:1.00002"
     id="path35"
     inkscape:connector-curvature="0" />
  <path
     class="clothes"
     d="m -1556.6447,403.80381 a 3.460137,3.46 0 0 0 3.8901,5.07 3.3801338,3.38 0 0 0 2.1001,-1.61 v 0 a 3.4701374,3.47 0 0 0 -1.28,-4.72 v 0 a 3.4201354,3.42 0 0 0 -2.6201,-0.34 3.510139,3.51 0 0 0 -2.0901,1.6 z m 60.1223,0.46 a 3.4901382,3.49 0 0 0 1.2101,4.7 h 0.06 a 3.460137,3.46 0 0 0 4.7202,-1.27 v 0 l 0.07,-0.13 v 0 a 3.460137,3.46 0 0 0 -1.3401,-4.6 v 0 a 3.460137,3.46 0 0 0 -2.5801,-0.32 3.5301398,3.53 0 0 0 -2.1,1.61 z m 9.8004,5.7 5.8603,5.87 c -1.3901,0.5 -2.7901,1 -4.2102,1.44 l -4.4802,-4.47 a 7.5202978,7.52 0 0 1 -1.9401,0.81 7.8303101,7.83 0 0 1 -6.0002,-0.79 v 0 a 7.8703117,7.87 0 0 1 -2.9201,-10.69 v -0.07 a 7.8903124,7.89 0 0 1 10.7704,-2.88 l 0.12,0.07 v 0 a 7.8603113,7.86 0 0 1 2.7901,10.62 v 0.07 0 z m -37.7015,-2.36 -9.5003,9.51 v 4.9 c -1.3501,-0.16 -2.6801,-0.33 -4.0002,-0.54 v -6 l 0.58,-0.58 10.1004,-10.09 v 0 a 7.8703117,7.87 0 1 1 2.8401,2.86 z m 7.3203,-5.91 a 3.460137,3.46 0 1 0 -1.61,2.1 3.3801338,3.38 0 0 0 1.61,-2.1 z m -29.7411,7.82 3.0901,3.1 0.59,0.59 v 7.36 c -1.3401,-0.26 -2.6801,-0.55 -4.0002,-0.87 v -4.84 l -2.5101,-2.51 a 7.5202978,7.52 0 0 1 -1.94,0.81 7.880312,7.88 0 1 1 1.91,-14.43 v 0 a 7.8703117,7.87 0 0 1 2.8902,10.75 v 0 z"
     id="path37"
     inkscape:connector-curvature="0"
     style="fill:#1a1a1a;stroke-width:1" />
  <path
     class="top"
     d="m -1520.4433,205.80381 a 11.400451,11.4 0 1 1 -11.4004,11.4 11.390451,11.39 0 0 1 11.4004,-11.4 z"
     style="fill:#e3e3e3;fill-rule:evenodd;stroke:#1a1a1a;stroke-width:3.99008px;stroke-linecap:round;stroke-linejoin:round"
     id="path39"
     inkscape:connector-curvature="0" />
  <line
     class="top"
     x1="-1520.4432"
     y1="228.57381"
     x2="-1520.4432"
     y2="243.01381"
     style="fill:none;stroke:#1a1a1a;stroke-width:3.99008px;stroke-linecap:round;stroke-linejoin:round"
     id="line41" />
  <path
     class="top"
     d="m -1447.3804,236.80381 a 11.400451,11.4 0 1 1 -16.1206,-0.28 11.390451,11.39 0 0 1 16.1206,0.28 z"
     style="fill:#898989;fill-rule:evenodd;stroke:#1a1a1a;stroke-width:3.99008px;stroke-linecap:round;stroke-linejoin:round"
     id="path43"
     inkscape:connector-curvature="0" />
  <line
     class="top"
     x1="-1463.781"
     y1="252.65381"
     x2="-1474.1615"
     y2="262.68381"
     style="fill:none;stroke:#1a1a1a;stroke-width:3.99008px;stroke-linecap:round;stroke-linejoin:round"
     id="line45" />
  <path
     class="top"
     d="m -1596.3763,237.18381 a 11.400451,11.4 0 1 1 0.28,16.12 11.400451,11.4 0 0 1 -0.28,-16.12 z"
     style="fill:#898989;fill-rule:evenodd;stroke:#1a1a1a;stroke-width:3.99008px;stroke-linecap:round;stroke-linejoin:round"
     id="path47"
     inkscape:connector-curvature="0" />
  <line
     class="top"
     x1="-1579.9756"
     y1="253.02382"
     x2="-1568.3352"
     y2="264.26382"
     style="fill:none;stroke:#1a1a1a;stroke-width:3.99008px;stroke-linecap:round;stroke-linejoin:round"
     id="line49" />
  <path
     class="top"
     d="m -1565.9351,351.80381 a 63.762525,63.76 0 1 1 90.1736,0 v 0"
     style="fill:none;stroke:#1a1a1a;stroke-width:3.99008px;stroke-miterlimit:2.61313"
     id="path51"
     inkscape:connector-curvature="0" />
  <path
     class="top"
     d="m -1571.3753,353.30381 a 5.6702245,5.67 0 1 0 4.0001,-6.94 v 0 a 5.6702245,5.67 0 0 0 -4.0001,6.93 z"
     style="fill:#ffffff;fill-rule:evenodd;stroke:#1a1a1a;stroke-width:4.43109px;stroke-miterlimit:2.61313"
     id="path53"
     inkscape:connector-curvature="0" />
  <path
     class="top"
     d="m -1470.2613,353.30381 a 5.6702245,5.67 0 1 1 -4.0002,-6.94 v 0 a 5.6602241,5.66 0 0 1 4.0002,6.93 z"
     style="fill:#ffffff;fill-rule:evenodd;stroke:#1a1a1a;stroke-width:4.43109px;stroke-miterlimit:2.61313"
     id="path55"
     inkscape:connector-curvature="0" />
  <path
     class="eyes"
     d="m -1552.5846,275.72381 h 63.5325 a 19.100756,19.1 0 0 1 19.0508,19 v 0 a 19.110757,19.11 0 0 1 -19.0508,19 h -63.5325 a 19.090756,19.09 0 0 1 -19.0007,-19 v 0 a 19.090756,19.09 0 0 1 19.0007,-19 z"
     style="fill:#1a1a1a;fill-rule:evenodd;stroke-width:1.00002"
     id="path57"
     inkscape:connector-curvature="0" />
  <path
     class="eyes"
     d="m -1496.0923,285.34381 a 9.3803714,9.38 0 1 0 9.3803,9.38 9.3803714,9.38 0 0 0 -9.3803,-9.38 z m -49.402,0 a 9.3803714,9.38 0 1 0 9.3804,9.38 9.3903718,9.39 0 0 0 -9.3804,-9.38 z"
     style="fill:#e6e7e8;fill-rule:evenodd;stroke-width:1"
     id="path59"
     inkscape:connector-curvature="0" />
  <path
     inkscape:connector-curvature="0"
     id="path52"
     style="fill:#6d6d6d;fill-rule:evenodd"
     d="m -1089.3359,33.83 a 115.5,115.5 0 1 1 0,163.34 115.51,115.51 0 0 1 0,-163.33 z"
     class="env" />
  <path
     inkscape:connector-curvature="0"
     id="path54"
     style="fill:#ffffff;fill-rule:evenodd"
     d="m -1018.1569,166.5 h 21.00101 v 26 a 116.28,116.28 0 0 1 15.751,2.5 l 13.121,22.72 a 109.85,109.85 0 0 1 -78.74301,0 l 13.111,-22.72 a 116.6,116.6 0 0 1 15.761,-2.53 v -26 z" />
  <path
     inkscape:connector-curvature="0"
     id="path56"
     style="fill:#ffffff;fill-rule:evenodd"
     d="m -1008.0469,51.21 a 63.753,63.75 0 1 1 -63.753,63.79 63.753,63.75 0 0 1 63.753,-63.79 z" />
  <path
     inkscape:connector-curvature="0"
     id="path58"
     style="fill:#ffffff;fill-rule:evenodd;stroke:#1a1a1a;stroke-width:3.0001px;stroke-miterlimit:2.6131"
     d="m -1029.3539,136.84 h 42.63201 a 3.7801,3.78 0 0 1 3.7802,3.78 v 3.22 a 15.231,15.23 0 0 1 -15.211,15.16 h -19.78101 a 15.251,15.25 0 0 1 -15.221,-15.16 v -3.22 a 3.8002,3.8 0 0 1 3.7802,-3.78 z"
     class="mouth" />
  <path
     inkscape:connector-curvature="0"
     id="path60"
     style="fill:none;stroke:#1a1a1a;stroke-width:3.0001px;stroke-miterlimit:2.6131"
     d="M -992.58689,136.84 V 158 m -30.91101,-21.16 V 158 m 10.34,-21.16 V 159 m 10.31,-22.2 V 159"
     class="mouth" />
  <path
     inkscape:connector-curvature="0"
     id="path62"
     style="fill:#ffffff"
     d="m -981.41689,195 a 114.93,114.93 0 0 1 37.912,16.45 l 0.07,0.05 c -1.17,0.79 -2.3601,1.55 -3.5601,2.29 A 115.55,115.55 0 0 1 -1067.945,214 q -2.0001,-1.23 -4.0002,-2.54 a 114.79,114.79 0 0 1 38.002,-16.5 116.21,116.21 0 0 1 15.791,-2.49 V 177.9 c 1.32,0.22 2.6501,0.39 4.0002,0.51 2.0001,0.19 4.0002,0.28 6.1202,0.29 a 64.333,64.33 0 0 0 8.88041,-0.62 c 0.67003,-0.09 1.3401,-0.2 2.0001,-0.31 v 14.69 a 118,118 0 0 1 15.741,2.54 z"
     class="clothes" />
  <path
     inkscape:connector-curvature="0"
     id="path64"
     style="fill:#1a1a1a"
     d="m -1043.8649,212 a 3.4601,3.46 0 0 0 3.8902,5.07 3.3801,3.38 0 0 0 2.1001,-1.61 3.4701,3.47 0 0 0 -1.2801,-4.72 3.4201,3.42 0 0 0 -2.6201,-0.34 3.5101,3.51 0 0 0 -2.0901,1.6 z m 60.12201,0.46 a 3.4901,3.49 0 0 0 1.21,4.7 h 0.06 a 3.4601,3.46 0 0 0 4.7202,-1.27 l 0.07,-0.13 a 3.4601,3.46 0 0 0 -1.34,-4.6 3.4601,3.46 0 0 0 -2.5801,-0.32 3.5301,3.53 0 0 0 -2.1001,1.61 z m 9.8004,5.7 5.8602,5.87 c -1.39,0.5 -2.7901,1 -4.2102,1.44 l -4.4802,-4.47 a 7.5203,7.52 0 0 1 -1.9401,0.81 7.8303,7.83 0 0 1 -6.0002,-0.79 7.8703,7.87 0 0 1 -2.9201,-10.69 v -0.07 a 7.8903,7.89 0 0 1 10.77,-2.88 l 0.12,0.07 a 7.8603,7.86 0 0 1 2.7901,10.62 v 0.07 z m -37.70101,-2.36 -9.5004,9.51 v 4.9 c -1.35,-0.16 -2.6801,-0.33 -4.0002,-0.54 v -6 l 0.58,-0.58 10.1,-10.09 a 7.8703,7.87 0 1 1 2.8401,2.86 z m 7.3203,-5.91 a 3.4601,3.46 0 1 0 -1.6101,2.1 3.3801,3.38 0 0 0 1.6101,-2.1 z m -29.741,7.82 3.0901,3.1 0.59,0.59 v 7.36 c -1.3401,-0.26 -2.6801,-0.55 -4.0002,-0.87 v -4.84 l -2.5101,-2.51 a 7.5203,7.52 0 0 1 -1.9401,0.81 7.8803,7.88 0 1 1 1.9101,-14.43 7.8703,7.87 0 0 1 2.8901,10.75 z"
     class="clothes" />
  <path
     inkscape:connector-curvature="0"
     id="path66"
     style="fill:#1a1a1a;fill-rule:evenodd"
     d="m -1039.8049,83.92 h 63.53301 a 19.101,19.1 0 0 1 19.051,19 19.111,19.11 0 0 1 -19.051,19 h -63.53301 a 19.091,19.09 0 0 1 -19.001,-19 19.091,19.09 0 0 1 19.001,-19 z"
     class="eyes" />
  <path
     inkscape:connector-curvature="0"
     id="path68"
     style="fill:#e6e7e8;fill-rule:evenodd"
     d="m -983.31689,93.54 a 9.3804,9.38 0 1 0 9.3804,9.38 9.3804,9.38 0 0 0 -9.3804,-9.38 z m -49.40201,0 a 9.3804,9.38 0 1 0 9.3804,9.38 9.3904,9.39 0 0 0 -9.3804,-9.38 z"
     class="eyes" />
  <path
     class="top"
     inkscape:connector-curvature="0"
     d="m -924.75455,67.662109 c 0.22294,1.2884 0.76804,6.674938 -3.39453,15.960938 -3.13668,6.997532 -10.07568,11.551715 -14.57226,13.914062 a 63.753,63.75 0 0 1 -1.45313,39.320311 c 3.95087,-2.47969 8.78445,-7.31375 13.80664,-16.59765 11.849,-21.903004 5.97488,-50.881661 5.61328,-52.597661 z"
     style="fill:#ffffff"
     id="path70" />
  <path
     inkscape:connector-curvature="0"
     style="fill:#ffffff"
     id="path72"
     d="m -1007.2969,15.191 c 10.15601,0.17633 15.02601,12.542 7.72111,19.598 -7.30491,7.056 -19.49401,1.7588 -19.31801,-8.3967 0.1038,-6.2978 5.2993,-11.316 11.597,-11.201 z"
     class="top" />
  <path
     inkscape:connector-curvature="0"
     style="fill:#1a1a1a"
     id="path74"
     d="m -1007.2569,13.191 c -7.3787,-0.13351 -13.509,5.7888 -13.631,13.168 -0.1013,5.8827 3.4508,10.518 8.0566,12.52 1.061,0.46115 2.1869,0.78009 3.3418,0.95703 v 11.391 a 63.753,63.75 0 0 1 1.4512,-0.01563 63.753,63.75 0 0 1 2.5488,0.05078 v -11.41 c 2.6002,-0.38406 5.1586,-1.5484 7.30861,-3.625 4.2322,-4.0878 4.9991,-9.8757 3.1582,-14.549 -1.8407,-4.6726 -6.34981,-8.3834 -12.23201,-8.4863 z m -0.07,4 a 2.0002,2.0002 0 0 0 0,0 c 4.2719,0.07417 7.275,2.6334 8.58201,5.9512 1.307,3.3178 0.856,7.2391 -2.21681,10.207 -3.0728,2.9679 -7.007,3.2827 -10.277,1.8613 -3.27,-1.4214 -5.7246,-4.5113 -5.6504,-8.7832 a 2.0002,2.0002 0 0 0 0,-0.002 c 0.086,-5.2158 4.3449,-9.3295 9.5606,-9.2344 z"
     class="top" />
  <path
     class="top"
     inkscape:connector-curvature="0"
     d="m -1090.5573,67.662109 c -0.3629,1.722709 -6.2342,30.695487 5.6133,52.595701 4.5945,8.49308 9.0283,13.26237 12.7754,15.91211 A 63.753,63.75 0 0 1 -1075.7995,115 a 63.753,63.75 0 0 1 2.5293,-17.822266 c -4.4943,-2.458134 -10.9153,-6.907827 -13.8945,-13.554687 -4.1626,-9.285 -3.6155,-14.672738 -3.3926,-15.960938 z"
     style="fill:#ffffff;stroke:none;stroke-width:2;stroke-linecap:round;stroke-linejoin:round"
     id="path76" />
  <rect
     id="rect78"
     style="fill:#b3b3b3;fill-rule:evenodd"
     ry="4.2929001"
     height="8.5859003"
     width="71.471001"
     y="98.626999"
     x="-1043.7489"
     class="eyes" />
  <path
     class="top"
     d="M 32.902344 67.662109 C 32.53939 69.384818 26.66813 98.357602 38.515625 120.25781 C 43.099919 128.73208 47.523754 133.49714 51.265625 136.15039 A 67.7 67.7 0 0 1 47.796875 114.80078 A 67.7 67.7 0 0 1 50.128906 97.142578 C 45.637514 94.677962 39.261323 90.241348 36.294922 83.623047 C 32.132291 74.338047 32.679424 68.950309 32.902344 67.662109 z M 198.0918 67.662109 C 198.31472 68.950309 198.86185 74.338047 194.69922 83.623047 C 191.73282 90.241348 185.35662 94.677962 180.86523 97.142578 A 67.7 67.7 0 0 1 183.19727 114.80078 A 67.7 67.7 0 0 1 179.72852 136.15039 C 183.47039 133.49714 187.89422 128.73208 192.47852 120.25781 C 204.32601 98.357602 198.45475 69.384818 198.0918 67.662109 z "
     style="fill:#ffffff;stroke:none;stroke-width:2;stroke-linecap:round;stroke-linejoin:round"
     id="path26" />
  <path
     d="M 115.49725,51.21 A 63.753,63.75 0 1 1 51.744248,115 63.753,63.75 0 0 1 115.49725,51.21 Z"
     style="fill:#ffffff;fill-rule:evenodd"
     id="path6"
     inkscape:connector-curvature="0" />
  <path
     class="mouth"
     d="m 94.190248,136.84 h 42.632002 a 3.7801,3.78 0 0 1 3.7802,3.78 v 3.22 a 15.231,15.23 0 0 1 -15.211,15.16 h -19.781 A 15.251,15.25 0 0 1 90.389448,143.84 v -3.22 a 3.8002,3.8 0 0 1 3.7802,-3.78 z"
     style="fill:#ffffff;stroke:#1a1a1a;stroke-linecap:round;stroke-linejoin:round;stroke-width:3px;"
     id="path8"
     inkscape:connector-curvature="0" />
  <path
     class="mouth"
     d="M 130.95725,136.84 V 158 m -30.911,-21.16 V 158 m 10.34,-21.16 V 159 m 10.31,-22.2 V 159"
     style="fill:none;stroke:#1a1a1a;stroke-linecap:round;stroke-linejoin:round;stroke-width:3px;"
     id="path10"
     inkscape:connector-curvature="0" />
  <path
     class="eyes"
     d="m 83.739248,83.92 h 63.533002 a 19.101,19.1 0 0 1 19.051,19 19.111,19.11 0 0 1 -19.051,19 H 83.739248 a 19.091,19.09 0 0 1 -19.001,-19 19.091,19.09 0 0 1 19.001,-19 z"
     style="fill:#1a1a1a;fill-rule:evenodd"
     id="path16"
     inkscape:connector-curvature="0" />
  <path
     class="eyes"
     d="m 140.22725,93.54 a 9.3804,9.38 0 1 0 9.3804,9.38 9.3804,9.38 0 0 0 -9.3804,-9.38 z m -49.402002,0 a 9.3804,9.38 0 1 0 9.380402,9.38 9.3904,9.39 0 0 0 -9.380402,-9.38 z"
     style="fill:#e6e7e8;fill-rule:evenodd"
     id="path18"
     inkscape:connector-curvature="0" />
  <path
     sodipodi:nodetypes="cccccccccccc"
     inkscape:connector-curvature="0"
     class="top"
     d="m 115.72656,13.191406 c -7.3787,-0.13351 -13.50886,5.788769 -13.63086,13.167969 -0.10128,5.8827 3.45084,10.517531 8.05664,12.519531 1.061,0.46115 2.1869,0.780091 3.3418,0.957032 v 8.429124 c 0.66778,-0.02035 1.33582,-0.03077 2.00391,-0.03125 0.66547,-9e-5 1.33091,0.0097 1.99609,0.0293 v -8.411547 c 2.6002,-0.384059 5.15859,-1.5484 7.30859,-3.625 4.2322,-4.0878 4.99911,-9.875528 3.15821,-14.548828 -1.8407,-4.6726 -6.35022,-8.383428 -12.23242,-8.486328 z"
     style="fill:#ffffff"
     id="path22" />
  <rect
     class="eyes"
     x="79.79525"
     y="98.626999"
     width="71.471001"
     height="8.5859003"
     ry="4.2929001"
     style="fill:#b3b3b3;"
     id="rect28" />
  <path
     class="env"
     d="m -752.13708,33.83 a 115.5,115.5 0 1 1 0,163.34 115.51,115.51 0 0 1 0,-163.33 z"
     style="fill:#6d6d6d;fill-rule:evenodd"
     id="path889" />
  <path
     d="m -680.95808,166.5 h 21.001 v 26 a 116.28,116.28 0 0 1 15.751,2.5 l 13.121,22.72 a 109.85,109.85 0 0 1 -78.743,0 l 13.111,-22.72 a 116.6,116.6 0 0 1 15.761,-2.53 v -26 z"
     style="fill:#ffffff;fill-rule:evenodd"
     id="path891" />
  <path
     class="clothes"
     d="m -644.21808,195 a 114.93,114.93 0 0 1 37.912,16.45 l 0.07,0.05 c -1.17,0.79 -2.3601,1.55 -3.5601,2.29 a 115.55,115.55 0 0 1 -120.95,0.21 q -2.0001,-1.23 -4.0002,-2.54 a 114.79,114.79 0 0 1 38.002,-16.5 116.21,116.21 0 0 1 15.791,-2.49 V 177.9 c 1.32,0.22 2.6501,0.39 4.0002,0.51 2.0001,0.19 4.0002,0.28 6.1202,0.29 a 64.333,64.33 0 0 0 8.8804,-0.62 c 0.67003,-0.09 1.3401,-0.2 2.0001,-0.31 v 14.69 a 118,118 0 0 1 15.741,2.54 z"
     style="fill:#ffffff"
     id="path893" />
  <path
     class="clothes"
     d="m -706.66608,212 a 3.4601,3.46 0 0 0 3.8902,5.07 3.3801,3.38 0 0 0 2.1001,-1.61 3.4701,3.47 0 0 0 -1.2801,-4.72 3.4201,3.42 0 0 0 -2.6201,-0.34 3.5101,3.51 0 0 0 -2.0901,1.6 z m 60.122,0.46 a 3.4901,3.49 0 0 0 1.21,4.7 h 0.06 a 3.4601,3.46 0 0 0 4.7202,-1.27 l 0.07,-0.13 a 3.4601,3.46 0 0 0 -1.34,-4.6 3.4601,3.46 0 0 0 -2.5801,-0.32 3.5301,3.53 0 0 0 -2.1001,1.61 z m 9.8004,5.7 5.8602,5.87 c -1.39,0.5 -2.7901,1 -4.2102,1.44 l -4.4802,-4.47 a 7.5203,7.52 0 0 1 -1.9401,0.81 7.8303,7.83 0 0 1 -6.0002,-0.79 7.8703,7.87 0 0 1 -2.9201,-10.69 v -0.07 a 7.8903,7.89 0 0 1 10.77,-2.88 l 0.12,0.07 a 7.8603,7.86 0 0 1 2.7901,10.62 v 0.07 z m -37.701,-2.36 -9.5004,9.51 v 4.9 c -1.35,-0.16 -2.6801,-0.33 -4.0002,-0.54 v -6 l 0.58002,-0.58 10.1,-10.09 a 7.8703,7.87 0 1 1 2.8401,2.86 z m 7.3203,-5.91 a 3.4601,3.46 0 1 0 -1.6101,2.1 3.3801,3.38 0 0 0 1.6101,-2.1 z m -29.741,7.82 3.0901,3.1 0.59002,0.59 v 7.36 c -1.3401,-0.26 -2.6801,-0.55 -4.0002,-0.87 v -4.84 l -2.5101,-2.51 a 7.5203,7.52 0 0 1 -1.9401,0.81 7.8803,7.88 0 1 1 1.9101,-14.43 7.8703,7.87 0 0 1 2.8901,10.75 z"
     style="fill:#1a1a1a"
     id="path895" />
  <path
     class="top"
     d="m -753.05573,67.662109 c -0.36296,1.722709 -6.23422,30.695493 5.61328,52.595701 4.58429,8.47427 9.00813,13.23933 12.75,15.89258 a 67.7,67.7 0 0 1 -3.46875,-21.34961 67.7,67.7 0 0 1 2.33203,-17.658202 c -4.49139,-2.464616 -10.86759,-6.90123 -13.83399,-13.519531 -4.16263,-9.285 -3.61549,-14.672738 -3.39257,-15.960938 z m 165.18945,0 c 0.22292,1.2882 0.77005,6.675938 -3.39258,15.960938 -2.9664,6.618301 -9.3426,11.054915 -13.83399,13.519531 a 67.7,67.7 0 0 1 2.33204,17.658202 67.7,67.7 0 0 1 -3.46875,21.34961 c 3.74187,-2.65325 8.1657,-7.41831 12.75,-15.89258 11.84749,-21.900208 5.97623,-50.872992 5.61328,-52.595701 z"
     style="fill:#ffffff;stroke:none;stroke-width:2;stroke-linecap:round;stroke-linejoin:round"
     id="path897" />
  <path
     d="m -670.46083,51.21 a 63.753,63.75 0 1 1 -63.753,63.79 63.753,63.75 0 0 1 63.753,-63.79 z"
     style="fill:#ffffff;fill-rule:evenodd"
     id="path899"
     inkscape:connector-curvature="0" />
  <path
     class="mouth"
     d="m -691.76783,136.84 h 42.632 a 3.7801,3.78 0 0 1 3.7802,3.78 v 3.22 a 15.231,15.23 0 0 1 -15.211,15.16 h -19.781 a 15.251,15.25 0 0 1 -15.221,-15.16 v -3.22 a 3.8002,3.8 0 0 1 3.7802,-3.78 z"
     style="fill:#ffffff;fill-rule:evenodd;stroke:#1a1a1a;stroke-width:3.0001px;stroke-miterlimit:2.6131"
     id="path901"
     inkscape:connector-curvature="0" />
  <path
     class="mouth"
     d="M -655.00083,136.84 V 158 m -30.911,-21.16 V 158 m 10.34,-21.16 V 159 m 10.31,-22.2 V 159"
     style="fill:none;stroke:#1a1a1a;stroke-width:3.0001px;stroke-miterlimit:2.6131"
     id="path903"
     inkscape:connector-curvature="0" />
  <path
     class="eyes"
     d="m -702.21883,83.92 h 63.533 a 19.101,19.1 0 0 1 19.051,19 19.111,19.11 0 0 1 -19.051,19 h -63.533 a 19.091,19.09 0 0 1 -19.001,-19 19.091,19.09 0 0 1 19.001,-19 z"
     style="fill:#1a1a1a;fill-rule:evenodd"
     id="path905"
     inkscape:connector-curvature="0" />
  <path
     class="eyes"
     d="m -645.73083,93.54 a 9.3804,9.38 0 1 0 9.3804,9.38 9.3804,9.38 0 0 0 -9.3804,-9.38 z m -49.402,0 a 9.3804,9.38 0 1 0 9.3804,9.38 9.3904,9.39 0 0 0 -9.3804,-9.38 z"
     style="fill:#e6e7e8;fill-rule:evenodd"
     id="path907"
     inkscape:connector-curvature="0" />
  <path
     sodipodi:nodetypes="cccccccccccc"
     inkscape:connector-curvature="0"
     class="top"
     d="m -670.23152,13.191406 c -7.3787,-0.13351 -13.50886,5.788769 -13.63086,13.167969 -0.10128,5.8827 3.45084,10.517531 8.05664,12.519531 1.061,0.46115 2.1869,0.780091 3.3418,0.957032 v 8.429124 c 0.66778,-0.02035 1.33582,-0.03077 2.00391,-0.03125 0.66547,-9e-5 1.33091,0.0097 1.99609,0.0293 v -8.411547 c 2.6002,-0.384059 5.15859,-1.5484 7.30859,-3.625 4.2322,-4.0878 4.99911,-9.875528 3.15821,-14.548828 -1.8407,-4.6726 -6.35022,-8.383428 -12.23242,-8.486328 z"
     style="fill:#ffffff"
     id="path909" />
  <rect
     class="eyes"
     x="-706.16284"
     y="98.626999"
     width="71.471001"
     height="8.5859003"
     ry="4.2929001"
     style="fill:#b3b3b3;fill-rule:evenodd"
     id="rect911" />
</svg>
