<svg version="1.1" viewBox="0 0 231 231" xmlns="http://www.w3.org/2000/svg">
	<style/>
	<path class="env" d="m115.5 0a115.5 115.5 0 1 1-115.5 115.5 115.5 115.5 0 0 1 115.5-115.5z" style="fill-rule:evenodd;fill:#8e8e8e"/>
	<path d="m105 166.5h21v26a116.53 116.53 0 0 1 15.75 2.5l13.12 22.72a109.85 109.85 0 0 1-78.74 0l13.12-22.72a116.6 116.6 0 0 1 15.75-2.53v-26z" style="fill-rule:evenodd;fill:#e5e5e5"/>
	<path d="m115.5 51.75a63.75 63.75 0 1 1-63.75 63.75 63.75 63.75 0 0 1 63.75-63.75z" style="fill-rule:evenodd;fill:#e5e5e5"/>
	<path class="clothes" d="m141.75 195c13.563 3.1499 26.439 8.7409 38 16.5-38.873 26.001-89.587 26.001-128.46 0 11.561-7.7591 24.437-13.35 38-16.5 8.4869 8.8011 26.21 25.619 26.21 25.619s17.603-16.972 26.25-25.619z" style="fill-rule:evenodd;fill:#d6d6d6"/>
	<path class="clothes" d="m109 230.81 1.6836-14.33h9.6328l1.6836 14.33c-2.16 0.12-4.33 0.19-6.51 0.19s-4.35-0.07-6.51-0.19z" style="fill-rule:evenodd;fill:#5e5e5e"/>
	<path class="clothes" d="m124.17 210.6h-17.349v5.53a3.8828 3.29 0 0 0 3.8828 3.29h9.583a3.8828 3.29 0 0 0 3.8828-3.29z" style="fill-rule:evenodd;fill:#535353"/>
	<path class="clothes" d="m140.57 190.36-25.066 20.245c5.9686 3.2455 11.597 7.0814 16.8 11.45 1.5989 1.3338 3.9762 1.1189 5.31-0.48 0.21005-0.25749 0.38802-0.53956 0.52999-0.84l10.826-23.805-4-6c-0.90256-1.351-2.7298-1.7137-4.08-0.81-0.11612 0.0786-0.22641 0.16549-0.33 0.26z" style="fill-rule:evenodd;fill:#c6c6c6"/>
	<path class="mouth" d="m136.21 147.09a21.77 21.77 0 0 1-40.13 0z" style="fill-rule:evenodd;fill:#fff;stroke-linecap:round;stroke-linejoin:round;stroke-width:3.4999px;stroke:#000"/>
	<path class="eyes" d="m145.39 104.7-11.52 11.2h17.26m-65.52-11.2 11.52 11.2h-17.26" style="fill:none;stroke-linecap:round;stroke-linejoin:round;stroke-width:5.4998px;stroke:#000"/>
	<path class="top" d="m43.891 77.836c-5.1124 28.237 2.1347 61.004 24.792 81.332-6.2362-12.503-9.5362-33.948-9.4887-45.458-0.50203-37.473 41.439-46.335 56.149-17.614 18.8-31.2 52.825-16.872 54.062 13.714 0.56018 13.844-0.43568 25.598-7.0962 48.966 18.372-12.47 28.012-53.959 23.545-80.941-47.486-2.2552-94.831-2.5724-141.96 0z" style="fill:#1a1a1a"/>
	<path class="top" d="m111.26 12.782c-18.508 0.0791-32.594 3.6163-32.594 3.6163 24.513 5.6002 32.807 10.504 31.743 19.835-0.87227 9.702-11.092 10.875-20.811 11.554-5.2548 0.36414-10.949 0.71523-16.391 1.7525-11.862 2.2818-19.946 4.3736-24.447 11.956-1.7012 2.8662-3.7945 10.428-4.8689 16.34h141.96c-5.7242-38.563-32.557-65.073-74.595-65.054z" style="fill:#1a1a1a"/>
	<path class="top" d="m73.292 44.77c-11.788 2.2816-18.923 5.5444-23.394 13.126-2.8484 6.7586-4.8454 13.238-6.0072 19.939h141.96c-1.9772-14.576-6.8677-28.248-19.277-32.098-28.834-6.3308-63.774-6.3553-93.285-0.96761z" style="fill:#1a1a1a"/>
	<path class="top" d="m165.95 35.642c-11.178 21.829-91.89 19.36-103.98 2.3011-9.703 12.267-15.605 25.883-18.079 39.892h141.96c-3.0096-17.158-9.7424-32.688-19.902-42.193z" style="fill:#1a1a1a"/>
	<path class="clothes" d="m90.434 190.36 25.066 20.245c-5.9686 3.2455-11.597 7.0814-16.8 11.45-1.5989 1.3338-3.9762 1.1189-5.31-0.48-0.21005-0.25749-0.38802-0.53956-0.52999-0.84l-10.826-23.805 4-6c0.90256-1.351 2.7298-1.7137 4.08-0.81 0.11612 0.0786 0.22641 0.16549 0.33 0.26z" style="fill-rule:evenodd;fill:#c6c6c6"/>
</svg>
