<svg version="1.1" viewBox="0 0 231 231" xmlns="http://www.w3.org/2000/svg">
	<style/>
	<path d="M 115.5,0 A 115.5,115.5 0 1 1 0,115.5 115.5,115.5 0 0 1 115.5,0 Z" style="fill-rule:evenodd;fill:#2c2c2c"/>
	<path d="m105 166.5h21v26a116.53 116.53 0 0 1 15.75 2.4999l13.12 22.72a109.85 109.85 0 0 1-78.74 0l13.12-22.72a116.6 116.6 0 0 1 15.75-2.53v-26z" style="fill-rule:evenodd;fill:#ddd"/>
	<path d="m115.5 51.75a63.75 63.75 0 1 1-63.75 63.75 63.75 63.75 0 0 1 63.75-63.75z" style="fill-rule:evenodd;fill:#ddd"/>
	<path class="clothes" d="m141.75 195a114.79 114.79 0 0 1 38 16.5 115.53 115.53 0 0 1-128.46 0 114.79 114.79 0 0 1 38-16.5l15.71 15.75h21z" style="fill-rule:evenodd;fill:#949494"/>
	<path class="clothes" d="m115.45 211.34-10.55 10.54a2.51 2.51 0 0 1-3.5599 0 2 2 0 0 1-0.26999-0.30994l-18.48-25.4 5.8901-5.8899a2.52 2.52 0 0 1 3.5199-0.0791l23.49 21.14z" style="fill-rule:evenodd;fill:#c0c0c0"/>
	<path class="clothes" d="m115.45 211.34 10.55 10.54a2.51 2.51 0 0 0 3.5599 0 2 2 0 0 0 0.26999-0.30994l18.48-25.4-5.8901-5.8899a2.52 2.52 0 0 0-3.4699-0.089l-23.49 21.14z" style="fill-rule:evenodd;fill:#c0c0c0"/>
	<path class="clothes" d="m158.41 199.58-10.11-3.2401v29.93q5.1601-1.5299 10.11-3.51zm-75.82 26.66v-29.9l-10.1 3.2401v23.14c3.2901 1.3199 6.67 2.4999 10.1 3.5199z" style="fill-rule:evenodd;fill:#7c7c7c"/>
	<path class="eyes" d="m131.64 114.09 7.5801-7.5801 7.5801 7.5801m-62.6 0 7.5801-7.5801 7.5799 7.5801" style="fill:none;stroke-linecap:round;stroke-linejoin:round;stroke-width:6.4998px;stroke:#000"/>
	<path class="mouth" d="m118.05 148.38c-1.5064 0.59192-2.595 2.0264-2.6191 3.9863-0.0574 1.3977 0.53421 3.5611 3.6758 5.7949 8.0544 4.9446 21.507 3.6862 21.255-7.1658-4.664 4.8219-10.021 5.6377-14.773 0.73907-1.2328-1.1599-2.3694-2.4032-3.9294-3.1408-1.0946-0.50424-2.2257-0.61071-3.6096-0.21337z" style="fill:#333"/>
	<path class="mouth" d="m133.61 154.93c3.0731-0.48816 5.5702-2.8457 5.4438-4.5059-0.47801-4.8311-5.7317-3.0917-4.3369-0.31405-2.8103-1.4445-1.8343-3.8862 0.50427-4.7324 2.0509-0.79942 5.0937 0.34314 6.2002 2.6376 2.2229 7.3422-3.4376 11.68-10.384 12.561z" style="fill:#333"/>
	<path class="top" d="m137.38 11.148c-12.23 1.9593-18.511 14.606-43.436 9.4915-11.285-3.2054-16.406-3.573-20.389 0.58594-4.1548 4.3384-7.033 12.435-9.8184 21.706-2.1354 7.4136-3.7187 14.381-4.7461 21.646h112.7c-3.4878-24.293-10.822-43.281-25.182-51.061-3.5314-1.623-6.5274-2.2959-9.1289-2.3613z" style="fill:#b3b3b3"/>
	<path class="top" d="m114.37 43.383c-19.445 0.088-38.524 2.0724-52.379 5.6992-1.2766 4.5795-2.4317 10.169-3.2285 16.807h113.11c-0.83731-6.0107-1.9164-11.674-3.3184-16.924-15.229-3.8842-34.873-5.6693-54.18-5.582z" style="fill:#e6e6e6"/>
	<path class="top" d="m115.5 55.773c-58.39 0-105.73 15.476-105.73 34.57h0.0312c0 11.295 16.496 21.319 42.126 27.627-0.10331-7.7704 2.788-21.904 5.2734-31.031 6.0935-1.7168 6.9294-1.8971 13.167-2.9919 14.874-2.8256 29.99-4.2037 45.133-4.1153 15.143-0.0884 30.259 1.2897 45.133 4.1153 6.2372 1.0947 7.2065 1.2751 13.3 2.9919 2.4854 9.1267 5.3768 23.26 5.2734 31.031 25.63-6.3082 41.993-16.332 41.993-27.627h0.0312c0-19.093-47.34-34.57-105.73-34.57z" style="fill:#818181"/>
	<path class="top" d="m72.088 83.533c-6.9765 1.1147-13.357 2.856-18.439 4.3477-1.1861 7.415-2.0038 18.858-1.8926 26.293 4.3278-0.62795 10.155-1.3644 13.295-1.6465-0.40554 0.30198 2.7344-17.827 7.0371-28.994zm86.824 0c4.3028 11.167 7.4426 29.296 7.0371 28.994 3.1396 0.28213 8.9671 1.0185 13.295 1.6465 0.11119-7.4351-0.70652-18.878-1.8926-26.293-5.0822-1.4916-11.463-3.2329-18.439-4.3477z" style="fill:#434343"/>
	<path class="mouth" d="m112.81 148.38c1.5064 0.59192 2.595 2.0264 2.6191 3.9863 0.0574 1.3977-0.53421 3.5611-3.6758 5.7949-8.0544 4.9446-21.507 3.6862-21.255-7.1658 4.664 4.8219 10.021 5.6377 14.773 0.73907 1.2328-1.1599 2.3694-2.4032 3.9294-3.1408 1.0946-0.50424 2.2257-0.61071 3.6096-0.21337z" style="fill:#333"/>
	<path class="mouth" d="m97.252 154.93c-3.0731-0.48816-5.5702-2.8457-5.4438-4.5059 0.47801-4.8311 5.7317-3.0917 4.3369-0.31405 2.8103-1.4445 1.8343-3.8862-0.50427-4.7324-2.0509-0.79942-5.0937 0.34314-6.2002 2.6376-2.2229 7.3422 3.4376 11.68 10.384 12.561z" style="fill:#333"/>
</svg>
