<svg version="1.1" viewBox="0 0 231 231" xmlns="http://www.w3.org/2000/svg">
	<style/>
	<path class="env" d="M 115.5,0 A 115.5,115.5 0 1 1 0,115.5 115.5,115.5 0 0 1 115.5,0 Z" style="fill-rule:evenodd;fill:#aaa;stroke-width:.99994"/>
	<path d="m105 166.48h21v25.997a116.53 116.52 0 0 1 15.75 2.4996l13.12 22.717a109.85 109.84 0 0 1-78.74 0l13.12-22.717a116.6 116.59 0 0 1 15.75-2.5297v-25.997z" style="fill-rule:evenodd;fill:#fff;stroke-width:.99994"/>
	<path d="m115.5 51.744a63.75 63.742 0 1 1-63.75 63.742 63.75 63.742 0 0 1 63.75-63.742z" style="fill-rule:evenodd;fill:#fff;stroke-width:.99994"/>
	<path class="mouth" d="m122.83 151.88a10.49 10.489 0 0 1-14.66 0" style="fill:none;stroke-linecap:round;stroke-linejoin:round;stroke-width:6.1996px;stroke:#333"/>
	<path class="clothes" d="m141.75 194.98a114.79 114.78 0 0 1 38 16.498 115.53 115.52 0 0 1-128.46 0 114.79 114.78 0 0 1 38-16.498l15.71 15.748h21z" style="fill-rule:evenodd;fill:#d2d2d2"/>
	<path class="clothes" d="m70 200.88v20.77c-2.22-0.95325-4.3999-1.9698-6.5399-3.0496h-0.10088v-14.621c2.17-1.1 4.39-2.1399 6.64-3.0996z" style="fill-rule:evenodd;fill:#505050"/>
	<path class="clothes" d="m161 200.88v20.77c1.9-0.80986 3.7702-1.6798 5.6201-2.5898l0.0989-0.0494 0.82005-0.40997h0.10088v-14.621c-2.17-1.1-4.39-2.1399-6.6402-3.0996z" style="fill-rule:evenodd;fill:#505050"/>
	<polygon class="clothes" transform="matrix(1 0 0 .99987 4e-5 -3e-5)" points="97.32 201.93 115.5 223.72 133.68 201.93" style="fill-rule:evenodd;fill:#171717"/>
	<path class="clothes" d="m111.2 230.88 1.31-16.908c0.32992 1.2798 5.6399 1.2798 5.9999 0l1.3201 16.938c-1.4301 0.0494-2.8601 0.089-4.3 0.089s-2.87 0-4.3-0.089z" style="fill-rule:evenodd;fill:#171717"/>
	<path class="clothes" d="m115.49 201.79v0.0692l-7.55 12.678-7.0001 11.809-19.19-26.487c0.60999-0.42995 1.22-0.89985 1.8001-1.3899a52 51.993 0 0 0 10.07-10.619l21.79 13.878z" style="fill-rule:evenodd;fill:#ebebeb"/>
	<path class="clothes" d="m149.24 199.86-19.08 26.517-7.0001-11.809-7.57-12.678-0.0593-0.10086 21.94-13.998a52.21 52.203 0 0 0 10.08 10.699c0.58013 0.47009 1.1502 0.92002 1.7301 1.3399z" style="fill-rule:evenodd;fill:#ebebeb"/>
	<path d="m75.508 134.06a2.77 2.7697 0 0 0-2.748 2.7793 2.78 2.7797 0 1 0 2.7812-2.7793 2.77 2.7697 0 0 0-0.0332 0zm77.463 0.57031v0.0195a2.77 2.7697 0 0 0-2.7695 2.7695 2.78 2.7797 0 1 0 2.7695-2.7891zm-62.371 3.75-0.01 0.01a2.77 2.7697 0 0 0-2.7695 2.7695 2.78 2.7797 0 1 0 2.7793-2.7793zm44.369 0.59961a2.77 2.7697 0 0 0-2.7383 2.7891 2.78 2.7797 0 1 0 2.7695-2.7891 2.77 2.7697 0 0 0-0.0312 0zm12.6 12.768a2.77 2.7697 0 0 0-2.748 2.7793 2.78 2.7797 0 1 0 2.7793-2.7793h-0.0195a2.77 2.7697 0 0 0-0.0117 0zm-59.416 1.3105a2.79 2.7897 0 0 0-2.7617 2.7891 2.78 2.7797 0 1 0 2.7695-2.7891 2.79 2.7897 0 0 0-8e-3 0z" style="fill-rule:evenodd;fill:#333;stroke-width:.99994"/>
	<path class="eyes" d="m70.959 94.985h35.031c2.4086 1e-5 4.3612 1.9523 4.3612 4.3606l-2.5864 17.511c-0.3515 2.3799-1.7218 4.3606-3.8457 4.3606h-30.9c-2.1239-1e-5 -3.8457-1.9523-3.8457-4.3606l-2.5864-17.511c1e-5 -2.4082 1.9526-4.3606 4.3612-4.3606z" style="fill:#1a1a1a;stroke-linecap:round;stroke-linejoin:round;stroke-width:3.0045px;stroke:#333"/>
	<path class="eyes" d="m160.05 94.985h-35.031c-2.4086 1e-5 -4.3612 1.9523-4.3612 4.3606l2.5864 17.511c0.35149 2.3799 1.7218 4.3606 3.8457 4.3606h30.9c2.1239-1e-5 3.8457-1.9523 3.8457-4.3606l2.5864-17.511c-1e-5 -2.4082-1.9526-4.3606-4.3612-4.3606z" style="fill:#1a1a1a;stroke-linecap:round;stroke-linejoin:round;stroke-width:3.0045px;stroke:#333"/>
	<path class="eyes" d="m90.607 102.35a4.6337 4.6332 0 1 0 4.6892 4.6337 4.6337 4.6332 0 0 0-4.6892-4.6337zm49.72 0a4.6337 4.6332 0 1 0 4.6444 4.6337 4.6337 4.6332 0 0 0-4.6444-4.6337z" style="fill-rule:evenodd;fill:#1a1a1a"/>
	<path class="eyes" d="m70.66 94.985h-11.775" style="fill:none;stroke-linecap:round;stroke-linejoin:round;stroke-width:3.0045px;stroke:#333"/>
	<path class="eyes" d="m172.13 94.985h-19.484" style="fill:none;stroke-linecap:round;stroke-linejoin:round;stroke-width:3.0045px;stroke:#333"/>
	<path class="eyes" d="m109.32 106.2c4.2045-2.427 9.3036-1.913 12.353-0.0258" style="fill:none;stroke-linecap:round;stroke-linejoin:round;stroke-width:3.0045px;stroke:#333"/>
	<path class="eyes" d="m148.33 109.79-5.7626-8.2324" style="fill:none;stroke-linecap:round;stroke-linejoin:round;stroke-width:4;stroke:#fff"/>
	<path class="eyes" d="m156.27 105-2.403-3.4328" style="fill:none;stroke-linecap:round;stroke-linejoin:round;stroke-width:4;stroke:#fff"/>
	<path class="eyes" d="m82.748 114.34-8.9489-12.784" style="fill:none;stroke-linecap:round;stroke-linejoin:round;stroke-width:4;stroke:#fff"/>
	<path class="eyes" d="m91.408 109.79-5.7626-8.2324" style="fill:none;stroke-linecap:round;stroke-linejoin:round;stroke-width:4;stroke:#fff"/>
	<path class="top" d="m41.835 75.131c-2.8674 12.582 1.2304 27.241 6.0238 39.031 0.25861 0.63658 0.51208 1.3075 0.79989 1.9683 0.71726 1.658 2.1184 3.9751 3.0038 3.9266 0.56895-0.0312 0.71637-1.5512 1.0228-3.1562 2.1988-19.097 8.8981-27.915 15.636-38.107 2.8783-4.0645 3.8616-7.2293 1.0644-9.9325-6.3236-3.5596-14.924-2.8574-21.367-0.67406-3.2312 1.4765-5.2427 3.4773-6.1842 6.9439zm125.65-8.5679c7.65-0.70616 19.714-0.1307 21.694 8.5679 1.455 6.4083 0.26915 17.747-1.0542 24.579-1.1961 5.3203-3.8066 14.231-7.8782 19.75-0.5565 0.44544-0.96888 0.13656-1.4159-1.1606-0.90692-3.0353-1.4298-7.8372-2.2556-10.727-3.4822-12.79-8.2195-21.875-14.429-29.94-5.5782-6.8415-4.2152-9.7207 5.3393-11.069z" style="fill:#4d4d4d"/>
	<path class="top" d="m112.27 73.826c-18.585-7.5217-34.987-14.797-48.939 5.018-4.9752 7.083-3.7876 8.8056-4.9217 0.0749-1.637-12.476-4.7505-34.174 1.9259-45.194 7.6822-12.7 19.323-13.128 31.039-5.3818 10.796 7.7784 24.277 14.647 38.015 12.219 12.732-2.2576 15.835-7.7464 15.707-19.912-0.0215-2.6-0.0963-5.2106-0.2033-7.7999 13.631 3.9267 24.609 14.776 26.513 29.049 0.88804 6.6336 0.26749 12.722-1.9259 19.013-5.9702 17.108-30.119 20.896-45.74 16.841-3.9588-1.0378-7.6822-2.4181-11.47-3.9267z" style="fill:#4d4d4d"/>
</svg>
