<?xml version="1.0" encoding="UTF-8" standalone="no"?>
<svg
   xmlns:dc="http://purl.org/dc/elements/1.1/"
   xmlns:cc="http://creativecommons.org/ns#"
   xmlns:rdf="http://www.w3.org/1999/02/22-rdf-syntax-ns#"
   xmlns:svg="http://www.w3.org/2000/svg"
   xmlns="http://www.w3.org/2000/svg"
   xmlns:sodipodi="http://sodipodi.sourceforge.net/DTD/sodipodi-0.dtd"
   xmlns:inkscape="http://www.inkscape.org/namespaces/inkscape"
   inkscape:version="1.0.1 (3bc2e813f5, 2020-09-07)"
   sodipodi:docname="08.svg"
   id="svg26"
   version="1.1"
   viewBox="0 0 231 231">
  <style
     id="style71"></style>
  <metadata
     id="metadata14">
    <rdf:RDF>
      <cc:Work
         rdf:about="">
        <dc:format>image/svg+xml</dc:format>
        <dc:type
           rdf:resource="http://purl.org/dc/dcmitype/StillImage" />
        <dc:title />
      </cc:Work>
    </rdf:RDF>
  </metadata>
  <defs
     id="defs30">
    <pattern
       id="EMFhbasepattern"
       patternUnits="userSpaceOnUse"
       width="6"
       height="6"
       x="0"
       y="0" />
    <pattern
       id="EMFhbasepattern-9"
       patternUnits="userSpaceOnUse"
       width="6"
       height="6"
       x="0"
       y="0" />
  </defs>
  <sodipodi:namedview
     inkscape:snap-global="false"
     inkscape:snap-others="false"
     inkscape:snap-nodes="true"
     inkscape:current-layer="svg26"
     inkscape:window-maximized="1"
     inkscape:window-y="-9"
     inkscape:window-x="69"
     inkscape:cy="156.08728"
     inkscape:cx="16.75688"
     inkscape:zoom="1.0247059"
     showgrid="false"
     id="namedview28"
     inkscape:window-height="1051"
     inkscape:window-width="1842"
     inkscape:pageshadow="2"
     inkscape:pageopacity="0"
     guidetolerance="10"
     gridtolerance="10"
     objecttolerance="10"
     borderopacity="1"
     bordercolor="#666666"
     pagecolor="#ffffff"
     inkscape:document-rotation="0"
     inkscape:snap-bbox="true"
     inkscape:bbox-paths="true"
     inkscape:bbox-nodes="true"
     inkscape:snap-bbox-edge-midpoints="true"
     inkscape:snap-bbox-midpoints="true"
     inkscape:object-paths="true"
     inkscape:snap-intersection-paths="true"
     inkscape:snap-smooth-nodes="true" />
  <path
     class="env"
     inkscape:connector-curvature="0"
     id="path4"
     style="fill:#9e9e9e;fill-rule:evenodd"
     d="m -1530.8747,0 a 115.5,115.5 0 1 1 -115.5,115.5 115.5,115.5 0 0 1 115.5,-115.5 z" />
  <path
     inkscape:connector-curvature="0"
     id="path6"
     style="fill:#efefef;fill-rule:evenodd"
     d="m -1541.2347,166.5 h 21 v 26 a 116.53,116.53 0 0 1 15.7501,2.5 l 13.11,22.72 a 109.85,109.85 0 0 1 -78.7401,0 l 13.13,-22.72 a 116.6,116.6 0 0 1 15.75,-2.53 v -26 z" />
  <path
     inkscape:connector-curvature="0"
     id="path8"
     style="fill:#efefef;fill-rule:evenodd"
     d="m -1530.7347,51.75 a 63.75,63.75 0 1 1 -63.75,63.75 63.75,63.75 0 0 1 63.75,-63.75 z" />
  <path
     class="clothes"
     inkscape:connector-curvature="0"
     id="path14"
     style="fill:#353535;fill-rule:evenodd"
     d="m -1504.4846,195 a 114.79,114.79 0 0 1 38,16.5 115.55,115.55 0 0 1 -128.4701,0 114.79,114.79 0 0 1 38,-16.5 l 15.75,15.75 h 21 z" />
  <path
     class="clothes"
     inkscape:connector-curvature="0"
     id="path16"
     style="fill:#919191"
     d="m -1499.9746,196.14 -17.4001,17.44 -1.17,1.17 h -24.34 l -1.18,-1.17 -17.43,-17.44 c 1.49,-0.41 3,-0.79 4.51,-1.14 v 0 l 4.67,-1 12.74,12.74 h 17.69 l 12.7301,-12.74 4.67,1 v 0 c 1.52,0.35 3,0.73 4.51,1.14 z" />
  <path
     class="eyes"
     inkscape:connector-curvature="0"
     id="path20"
     style="fill:#1a1a1a;fill-rule:evenodd"
     d="m -1505.4846,102 a 5,5 0 1 0 5,5 5,5 0 0 0 -5,-5 z" />
  <path
     class="eyes"
     inkscape:connector-curvature="0"
     id="path22"
     style="fill:#1a1a1a;fill-rule:evenodd;stroke:#000000;stroke-width:0.50003px;stroke-miterlimit:2.61313"
     d="m -1555.7347,102 a 5,5 0 1 0 5,5 5,5 0 0 0 -5,-5 z" />
  <path
     class="mouth"
     inkscape:connector-curvature="0"
     id="path83"
     style="fill:none;stroke:#000000;stroke-width:6.49984px;stroke-linecap:round;stroke-linejoin:round"
     d="m -1516.5147,151.7 c -3.62,2.15 -8.78,3.37 -14.19,3.37 -5.41,0 -10.56,-1.22 -14.18,-3.37" />
  <path
     d="m -1921.6397,0 a 115.5,115.5 0 1 1 -115.5,115.5 115.5,115.5 0 0 1 115.5,-115.5 z"
     style="fill:#9e9e9e;fill-rule:evenodd"
     id="path122"
     inkscape:connector-curvature="0"
     class="env" />
  <path
     d="m -1931.9997,166.5 h 21 v 26 a 116.53,116.53 0 0 1 15.75,2.5 l 13.11,22.72 a 109.85,109.85 0 0 1 -78.74,0 l 13.13,-22.72 a 116.6,116.6 0 0 1 15.75,-2.53 v -26 z"
     style="fill:#efefef;fill-rule:evenodd"
     id="path124"
     inkscape:connector-curvature="0" />
  <path
     d="m -1921.4997,51.75 a 63.75,63.75 0 1 1 -63.75,63.75 63.75,63.75 0 0 1 63.75,-63.75 z"
     style="fill:#efefef;fill-rule:evenodd"
     id="path126"
     inkscape:connector-curvature="0" />
  <path
     d="m -1895.2497,195 a 114.79,114.79 0 0 1 38,16.5 115.55,115.55 0 0 1 -128.47,0 114.79,114.79 0 0 1 38,-16.5 l 15.75,15.75 h 21 z"
     style="fill:#353535;fill-rule:evenodd"
     id="path128"
     inkscape:connector-curvature="0"
     class="clothes" />
  <path
     d="m -1890.7397,196.14 -17.4,17.44 -1.17,1.17 h -24.34 l -1.18,-1.17 -17.43,-17.44 c 1.49,-0.41 3,-0.79 4.51,-1.14 v 0 l 4.67,-1 12.74,12.74 h 17.69 l 12.73,-12.74 4.67,1 v 0 c 1.52,0.35 3,0.73 4.51,1.14 z"
     style="fill:#919191"
     id="path130"
     inkscape:connector-curvature="0"
     class="clothes" />
  <path
     d="m -1896.2497,102 a 5,5 0 1 0 5,5 5,5 0 0 0 -5,-5 z"
     style="fill:#1a1a1a;fill-rule:evenodd"
     id="path132"
     inkscape:connector-curvature="0"
     class="eyes" />
  <path
     d="m -1946.4997,102 a 5,5 0 1 0 5,5 5,5 0 0 0 -5,-5 z"
     style="fill:#1a1a1a;fill-rule:evenodd;stroke:#000000;stroke-width:0.50003px;stroke-miterlimit:2.61313"
     id="path134"
     inkscape:connector-curvature="0"
     class="eyes" />
  <path
     d="m -1907.2797,151.7 c -3.62,2.15 -8.78,3.37 -14.19,3.37 -5.41,0 -10.56,-1.22 -14.18,-3.37"
     style="fill:none;stroke:#000000;stroke-width:6.49984px;stroke-linecap:round;stroke-linejoin:round"
     id="path136"
     inkscape:connector-curvature="0"
     class="mouth" />
  <path
     class="top"
     id="path138"
     style="fill:#1a1a1a;stroke:none;stroke-width:0.52333px;stroke-linecap:butt;stroke-linejoin:miter;stroke-opacity:1"
     d="m -1943.8509,48.66015 c -16.8236,-15.1279 -40.9974,-2.68842 -30.9674,18.69689 -20.3792,0.0514 -31.3486,8.5811 -18.8674,27.71116 -12.6565,6.29639 -8.2635,22.81398 3.5937,29.5018 0,0 -8.1228,3.01577 -6.099,9.37604 2.0236,6.36007 11.5644,11.85242 15.6119,13.58707 4.0475,1.73466 12.7205,2.60199 8.9621,-5.78211 -3.7583,-8.38391 -7.2274,-14.455 -7.2274,-14.455 0,0 8.9622,1.15729 9.5406,-2.6012 0.5781,-3.75828 -0.2892,-8.09532 -2.0239,-11.8536 -1.7346,-3.75849 -7.297,-10.09166 -7.297,-10.09166 19.6356,4.9502 20.4407,-12.63469 14.1656,-25.73006 7.0298,3.07135 20.6792,3.87301 26.366,-9.1369 5.6534,7.83601 22.8632,15.00506 34.739,-1.60668 3.5998,13.53881 13.876,16.6159 26.5622,11.58381 -4.1956,11.35537 2.0351,19.54504 14.4498,22.97439 -10.0649,15.95962 -9.3837,22.77145 -0.6193,22.34501 0,0 -2.7408,3.22642 -4.0512,7.34548 -2.2651,7.1202 -3.3827,16.90804 -1.1982,17.30897 4.6897,0.8608 15.7968,-6.89134 17.5315,-14.98627 1.3258,-6.18641 -0.9344,-10.66922 -2.1044,-11.98969 17.1466,-9.73009 15.8869,-21.79455 4.7987,-24.29902 11.407,-17.29057 2.7796,-32.67599 -19.4054,-30.81317 3.0156,-16.17007 -11.9596,-29.56707 -32.5444,-18.4178 -9.9447,-22.14069 -36.445,-18.13615 -43.9159,1.33254 z"
     inkscape:connector-curvature="0"
     sodipodi:nodetypes="ccccssscsscccccccssscccccc" />
  <path
     class="top"
     style="fill:#1a1a1a;stroke:none;stroke-width:1.02404px;stroke-linecap:butt;stroke-linejoin:miter;stroke-opacity:1"
     d="m -1992.5156,98.65481 c -8.8485,-8.52019 -19.7179,-35.58298 -1.1068,-38.28683 -3.9407,-17.98899 -0.8446,-31.39686 18.989,-22.16185 -1.3217,-17.79416 8.9545,-29.7971 26.54,-14.64963 -0.1305,-17.47551 15.2863,-21.23419 24.7247,-3.50037 3.0933,-13.99908 24.7433,-17.76488 25.7073,3.45784 18.2885,-12.61373 28.6895,1.34085 23.7416,14.43878 15.6046,-9.85529 31.458,0.5473 23.7937,21.0465 15.5344,5.0036 16.4851,28.52113 -1.3106,40.32825 -47.2358,-58.28263 -96.4508,-44.49875 -141.0789,-0.67269 z"
     id="path140"
     inkscape:connector-curvature="0"
     sodipodi:nodetypes="ccccccccccc" />
  <path
     class="top"
     d="m -1921.64,0 a 115.5,115.5 0 0 0 -97.2178,53.13959 c 4.0296,3.34095 8.3661,5.10131 8.3661,5.10131 -15.1752,11.26992 -1.3339,21.05737 2.8457,22.66128 -12.3525,12.65092 7.7017,23.225 7.7017,23.225 0,0 14.4312,-12.58208 16.6515,-16.65249 2.2202,-4.07041 1.11,-7.77094 1.8501,-9.6215 0.74,-1.85037 13.3223,-10.36126 14.8026,-11.47128 1.48,-1.11061 22.2026,-14.43146 22.2026,-14.43146 l 18.1325,-11.10239 38.1152,4.81155 31.8241,31.8237 -0.74,29.60426 7.8796,-6.0266 c 12.0516,-2.3848 24.1659,-13.95102 13.392,-23.3945 14.7483,-9.50065 3.0336,-21.39738 3.0336,-21.39738 0,0 3.5512,-2.8601 5.0564,-8.02787 A 115.5,115.5 0 0 0 -1921.64,0 Z"
     style="fill:#1a1a1a;stroke:none;stroke-width:0.52333px;stroke-linecap:butt;stroke-linejoin:miter;stroke-opacity:1"
     id="path142"
     inkscape:connector-curvature="0" />
  <path
     class="top"
     d="m -1526.6069,28.407595 c -5.9885,-0.18593 -12.3622,3.6859 -14.8158,11.6299 -8.6541,-15.18486 -23.3403,-10.70719 -21.2081,7.55179 -11.7286,-10.26196 -28.3562,-2.64768 -21.2439,16.03893 -16.7263,-3.48276 -23.3112,9.61042 -12.1869,23.38343 -9.7065,2.04578 -15.6504,13.272785 -5.1086,23.825695 0,0 -1.4059,0.39718 -3.0808,1.79183 0,0 0.02,0 0.02,0 -6.7607,7.28851 -2.2393,18.52382 6.9075,20.82021 -0.1285,2.40933 -0.1226,5.06946 0.5509,7.33559 3.6242,11.39018 23.6091,2.35276 9.8667,-8.84654 10.0591,-5.53211 6.1532,-14.9483 0.2627,-16.70887 12.2049,-4.33624 6.4261,-14.48941 -0.927,-19.811665 12.85,-0.34792 12.1681,-10.74339 6.7685,-14.5082 10.0677,3.24046 17.6543,-2.7078 14.0532,-12.68039 11.7757,6.42337 19.9927,-1.63596 20.6144,-9.12998 3.7788,13.54534 29.9523,15.0106 34.0491,-0.79711 1.9087,14.88144 16.9141,15.32568 24.6068,12.55795 -7.5926,8.49506 -0.7347,16.24246 8.9885,14.94256 -11.4018,8.95988 -4.7332,20.993485 3.968,22.244735 -7.7613,5.54832 -12.9071,17.17942 -0.3966,23.7713 -2.0104,2.10789 -3.2613,4.42367 -3.7818,6.55629 -1.1536,5.04948 2.5416,8.7599 8.2035,7.40917 3.9804,-1.42452 6.5559,-6.76239 5.5594,-14.45895 9.0271,-3.44835 16.1867,-16.96185 4.4462,-23.2432 0,-0.002 0.02,0 0.02,0 -0.2815,-0.0989 -0.5681,-0.20155 -0.8476,-0.29827 5.7149,-5.4526 8.3264,-18.946115 -5.0164,-22.867985 5.5694,-7.45902 5.9765,-19.69179 -7.2674,-16.87837 7.0866,-15.262 -6.2161,-22.55349 -15.7786,-16.69383 0.359,-21.18079 -16.8523,-20.20685 -24.7162,-10.22636 -0.9119,-8.2848 -6.5152,-12.5269 -12.5038,-12.71223 z"
     style="fill:#333333;stroke:none;stroke-width:0.52333px;stroke-linecap:butt;stroke-linejoin:miter;stroke-opacity:1"
     id="path159"
     inkscape:connector-curvature="0" />
  <path
     class="top"
     d="m -1528.3578,10.242175 c -3.7656,0 -7.7541,3.49166 -9.6468,11.77825 v 0.001 c -6.2718,-12.83586 -17.1554,-13.40314 -18.9453,1.17647 -11.4513,-9.46346 -26.019,-4.48597 -20.3617,12.42227 -12.248,-7.93432 -24.9221,1.77362 -17.0738,20.85305 -27.0863,2.35553 -22.724,24.72427 -10.1128,31.42554 -16.2848,5.31334 -10.7897,19.497765 0.2482,24.730415 1.6749,-1.39465 3.0808,-1.79182 3.0808,-1.79182 17.3368,-79.779088 118.0435,-85.972499 139.8457,-3.05098 0.2795,0.0969 0.5661,0.19997 0.8475,0.29827 9.6945,-2.20955 11.0037,-10.577045 5.6451,-15.290675 7.3031,-5.91682 3.636,-16.17878 -2.8016,-16.98894 12.4175,-7.09369 5.737,-22.05979 -5.1066,-18.49554 4.1776,-12.03973 -5.5573,-26.20417 -21.1203,-16.89993 6.9655,-11.36822 2.0695,-22.6601 -12.1008,-10.78829 -3.4595,-18.37686 -15.1352,-16.58287 -23.9017,-5.01092 0.8207,-8.64816 -3.6533,-14.37964 -8.4949,-14.36817 z"
     style="fill:#333333;stroke:none;stroke-width:0.52333px;stroke-linecap:butt;stroke-linejoin:miter;stroke-opacity:1"
     id="path157"
     inkscape:connector-curvature="0"
     sodipodi:nodetypes="sccccccccccccccccss" />
  <path
     class="top"
     id="path161"
     style="fill:#333333;stroke:none;stroke-width:0.52333px;stroke-linecap:butt;stroke-linejoin:miter;stroke-opacity:1"
     d="m -1530.8753,-1.95e-4 c -40.8402,0 -78.6442,21.56846 -99.4266,56.72519 2.3272,3.22959 5.3632,5.90436 8.8343,7.53082 -9.7475,7.49403 -7.8968,21.55126 6.2524,23.45978 -10.9194,9.78172 -5.4027,22.929895 11.7433,27.087725 l 5.621,-4.92172 c 18.466,-77.819263 114.0138,-82.137994 133.9794,-2.37096 l 5.6901,4.9502 c 15.674,-3.5692 22.4099,-20.808155 11.2966,-26.622315 9.7125,-3.3447 12.5968,-16.23158 4.6476,-23.34169 5.0715,-2.65539 7.1471,-7.08479 7.3584,-11.22285 -21.4366,-32.04088 -57.4458,-51.27418 -95.9965,-51.27418 z"
     inkscape:connector-curvature="0"
     sodipodi:nodetypes="sccccccccccs" />
  <path
     d="M 115.5,2e-4 A 115.5,115.5 0 1 1 0,115.5002 115.5,115.5 0 0 1 115.5,2e-4 Z"
     style="fill:#9e9e9e;fill-rule:evenodd"
     id="path871"
     inkscape:connector-curvature="0"
     class="env" />
  <path
     d="m 105.14,166.5002 h 21 v 26 a 116.53,116.53 0 0 1 15.75,2.5 l 13.11,22.72 a 109.85,109.85 0 0 1 -78.74,0 l 13.13,-22.72 a 116.6,116.6 0 0 1 15.75,-2.53 v -26 z"
     style="fill:#efefef;fill-rule:evenodd"
     id="path873"
     inkscape:connector-curvature="0" />
  <path
     d="m 115.64,51.7502 a 63.75,63.75 0 1 1 -63.75,63.75 63.75,63.75 0 0 1 63.75,-63.75 z"
     style="fill:#efefef;fill-rule:evenodd"
     id="path875"
     inkscape:connector-curvature="0" />
  <path
     d="m 141.89,195.0002 a 114.79,114.79 0 0 1 38,16.5 115.55,115.55 0 0 1 -128.47,0 114.79,114.79 0 0 1 38,-16.5 l 15.75,15.75 h 21 z"
     style="fill:#353535;fill-rule:evenodd"
     id="path877"
     inkscape:connector-curvature="0"
     class="clothes" />
  <path
     d="m 146.4,196.1402 -17.4,17.44 -1.17,1.17 h -24.34 l -1.18,-1.17 -17.43,-17.44 c 1.49,-0.41 3,-0.79 4.51,-1.14 v 0 l 4.67,-1 12.74,12.74 h 17.69 l 12.73,-12.74 4.67,1 v 0 c 1.52,0.35 3,0.73 4.51,1.14 z"
     style="fill:#919191"
     id="path879"
     inkscape:connector-curvature="0"
     class="clothes" />
  <path
     class="env"
     inkscape:connector-curvature="0"
     id="path872"
     style="fill:#9e9e9e;fill-rule:evenodd"
     d="m -1187.7628,2e-4 a 115.5,115.5 0 1 1 -115.5,115.5 115.5,115.5 0 0 1 115.5,-115.5 z" />
  <path
     inkscape:connector-curvature="0"
     id="path874"
     style="fill:#efefef;fill-rule:evenodd"
     d="m -1198.1228,166.5002 h 21 v 26 a 116.53,116.53 0 0 1 15.75,2.5 l 13.11,22.72 a 109.85,109.85 0 0 1 -78.74,0 l 13.13,-22.72 a 116.6,116.6 0 0 1 15.75,-2.53 v -26 z" />
  <path
     inkscape:connector-curvature="0"
     id="path876"
     style="fill:#efefef;fill-rule:evenodd"
     d="m -1187.6228,51.7502 a 63.75,63.75 0 1 1 -63.75,63.75 63.75,63.75 0 0 1 63.75,-63.75 z" />
  <path
     class="clothes"
     inkscape:connector-curvature="0"
     id="path878"
     style="fill:#353535;fill-rule:evenodd"
     d="m -1161.3728,195.0002 a 114.79,114.79 0 0 1 38,16.5 115.55,115.55 0 0 1 -128.47,0 114.79,114.79 0 0 1 38,-16.5 l 15.75,15.75 h 21 z" />
  <path
     class="clothes"
     inkscape:connector-curvature="0"
     id="path880"
     style="fill:#919191"
     d="m -1156.8628,196.1402 -17.4,17.44 -1.17,1.17 h -24.34 l -1.18,-1.17 -17.43,-17.44 c 1.49,-0.41 3,-0.79 4.51,-1.14 v 0 l 4.67,-1 12.74,12.74 h 17.69 l 12.73,-12.74 4.67,1 v 0 c 1.52,0.35 3,0.73 4.51,1.14 z" />
  <path
     class="eyes"
     inkscape:connector-curvature="0"
     id="path882"
     style="fill:#1a1a1a;fill-rule:evenodd"
     d="m -1162.3728,102.0002 a 5,5 0 1 0 5,5 5,5 0 0 0 -5,-5 z" />
  <path
     class="eyes"
     inkscape:connector-curvature="0"
     id="path884"
     style="fill:#1a1a1a;fill-rule:evenodd;stroke:#000000;stroke-width:0.50003px;stroke-miterlimit:2.61313"
     d="m -1212.6228,102.0002 a 5,5 0 1 0 5,5 5,5 0 0 0 -5,-5 z" />
  <path
     class="mouth"
     inkscape:connector-curvature="0"
     id="path886"
     style="fill:none;stroke:#000000;stroke-width:6.49984px;stroke-linecap:round;stroke-linejoin:round"
     d="m -1173.4028,151.7002 c -3.62,2.15 -8.78,3.37 -14.19,3.37 -5.41,0 -10.56,-1.22 -14.18,-3.37" />
  <path
     class="top"
     d="m -1183.495,28.40779 c -5.9884,-0.18593 -12.3622,3.6859 -14.8158,11.6299 -8.6541,-15.18486 -23.3403,-10.70719 -21.2081,7.55179 -11.7286,-10.26196 -28.3561,-2.64768 -21.2439,16.03893 -16.7262,-3.48276 -23.3112,9.61042 -12.1869,23.38343 -9.7065,2.04578 -15.6504,13.27279 -5.1086,23.8257 0,0 -1.4059,0.39718 -3.0808,1.79183 h 0.02 c -5.9409,7.49346 0.4867,19.20532 6.9075,20.82021 -0.1285,2.40933 -0.1226,5.06946 0.5509,7.33559 3.6242,11.39018 23.6091,2.35276 9.8668,-8.84654 6.9181,-2.99658 4.8273,-15.12508 0.2626,-16.70887 7.0784,-3.80591 7.1592,-18.44728 1.4595,-19.5465 5.6736,-0.32019 8.6906,-11.09565 4.382,-14.77337 8.7419,2.00302 15.8865,-4.56396 14.0533,-12.68039 11.7756,6.1099 19.9926,-1.77999 20.6143,-9.12998 3.2954,12.90082 29.0494,13.80674 34.0491,-0.79711 3.32,14.03465 17.8378,14.77147 24.6067,12.55795 -4.5355,8.49506 3.6966,16.24246 8.9885,14.94256 -6.7382,8.3805 -3.0601,20.12812 3.968,22.24474 -4.4517,7.25104 -7.9569,16.34643 -0.3966,23.7713 -2.0104,2.10789 -3.2613,4.42367 -3.7818,6.55629 -1.1536,5.04948 2.5416,8.7599 8.2035,7.40917 3.9804,-1.42452 6.5559,-6.76239 5.5594,-14.45895 7.9708,-4.50469 14.4507,-18.69789 4.4462,-23.2432 0,-0.002 0.02,0 0.02,0 -0.2815,-0.0989 -0.5681,-0.20155 -0.8476,-0.29827 5.7149,-5.4526 8.3264,-18.94612 -5.0164,-22.86799 5.5694,-7.45902 5.9765,-19.69179 -7.2674,-16.87837 7.0866,-15.262 -6.2161,-22.55349 -15.7785,-16.69383 0.359,-21.18079 -16.8523,-20.20685 -24.7162,-10.22636 -0.9118,-8.2848 -6.5151,-12.5269 -12.5038,-12.71223 z"
     style="fill:#333333;stroke:none;stroke-width:0.52333px;stroke-linecap:butt;stroke-linejoin:miter;stroke-opacity:1"
     id="path888"
     inkscape:connector-curvature="0"
     sodipodi:nodetypes="ccccccccccccccccccccccccccccccccc" />
  <path
     class="top"
     d="m -1185.2459,10.24237 c -3.7656,0 -7.7541,3.49166 -9.6468,11.77825 v 10e-4 c -6.2718,-12.83586 -17.1554,-13.40314 -18.9453,1.17647 -11.4513,-9.46346 -26.019,-4.48597 -20.3617,12.42227 -12.248,-7.93432 -24.9221,1.77362 -17.0738,20.85305 -27.0863,2.35553 -22.724,24.72427 -10.1128,31.42554 -16.2848,5.31334 -10.7897,19.49777 0.2482,24.73042 1.6749,-1.39465 3.0809,-1.79182 3.0809,-1.79182 17.3367,-79.77909 118.0434,-85.9725 139.8455,-3.05098 0.2795,0.0969 0.5661,0.19997 0.8475,0.29827 9.6945,-2.20955 11.0037,-10.57705 5.6451,-15.29068 7.3031,-5.91682 3.636,-16.17878 -2.8016,-16.98894 12.4175,-7.09369 5.737,-22.05979 -5.1066,-18.49554 4.1776,-12.03973 -5.5573,-26.20417 -21.1203,-16.89993 6.9655,-11.36822 2.0695,-22.6601 -12.1007,-10.78829 -3.4595,-18.37686 -15.1352,-16.58287 -23.9017,-5.01092 0.8207,-8.64816 -3.6532,-14.37964 -8.4948,-14.36817 z"
     style="fill:#333333;stroke:none;stroke-width:0.52333px;stroke-linecap:butt;stroke-linejoin:miter;stroke-opacity:1"
     id="path890"
     inkscape:connector-curvature="0"
     sodipodi:nodetypes="sccccccccccccccccss" />
  <path
     class="top"
     id="path892"
     style="fill:#333333;stroke:none;stroke-width:0.52333px;stroke-linecap:butt;stroke-linejoin:miter;stroke-opacity:1"
     d="m -1187.7634,0 c -40.8402,0 -78.6442,21.56846 -99.4266,56.72519 2.3272,3.22959 5.3632,5.90436 8.8343,7.53082 -9.7475,7.49403 -7.8968,21.55126 6.2524,23.45978 -10.9194,9.78172 -5.4027,22.9299 11.7433,27.08773 l 5.621,-4.92172 c 18.4661,-77.81926 114.0138,-82.13799 133.9793,-2.37096 l 5.6901,4.9502 c 15.674,-3.5692 22.4099,-20.80816 11.2966,-26.62232 9.7125,-3.3447 12.5968,-16.23158 4.6476,-23.34169 5.0715,-2.65539 7.1471,-7.08479 7.3584,-11.22285 C -1113.2036,19.2333 -1149.2127,0 -1187.7634,0 Z"
     inkscape:connector-curvature="0"
     sodipodi:nodetypes="sccccccccccs" />
  <path
     class="mouth"
     inkscape:connector-curvature="0"
     id="path1323"
     style="fill:#2f2f2f;fill-rule:evenodd;stroke-width:1"
     d="m 115.67662,160.64427 c 7.08005,0 13.11,-4.93002 15.46,-11.83996 a 2.1400001,2.1400001 0 0 0 -1.50996,-2.61009 2.3,2.3 0 0 0 -0.73995,-0.0593 h -26.41997 a 2.1199999,2.1199999 0 0 0 -2.31004,1.9099 v 0 a 1.85,1.85 0 0 0 0.0593,0.73995 c 2.34011,6.93011 8.38015,11.86013 15.45999,11.86013 z" />
  <path
     d="m -795.48359,2e-4 a 115.5,115.5 0 1 1 -115.5,115.5 115.5,115.5 0 0 1 115.5,-115.5 z"
     style="fill:#9e9e9e;fill-rule:evenodd"
     id="path59"
     inkscape:connector-curvature="0"
     class="env" />
  <path
     d="m -805.84359,166.5002 h 21 v 26 a 116.53,116.53 0 0 1 15.7501,2.5 l 13.11,22.72 a 109.85,109.85 0 0 1 -78.7401,0 l 13.13,-22.72 a 116.6,116.6 0 0 1 15.75,-2.53 v -26 z"
     style="fill:#efefef;fill-rule:evenodd"
     id="path61"
     inkscape:connector-curvature="0" />
  <path
     d="m -795.34359,51.7502 a 63.75,63.75 0 1 1 -63.75,63.75 63.75,63.75 0 0 1 63.75,-63.75 z"
     style="fill:#efefef;fill-rule:evenodd"
     id="path63"
     inkscape:connector-curvature="0" />
  <path
     d="m -769.09349,195.0002 a 114.79,114.79 0 0 1 38,16.5 115.55,115.55 0 0 1 -128.4701,0 114.79,114.79 0 0 1 38,-16.5 l 15.75,15.75 h 21 z"
     style="fill:#353535;fill-rule:evenodd"
     id="path65"
     inkscape:connector-curvature="0"
     class="clothes" />
  <path
     d="m -764.58349,196.1402 -17.4001,17.44 -1.17,1.17 h -24.34 l -1.18,-1.17 -17.43,-17.44 c 1.49,-0.41 3,-0.79 4.51,-1.14 v 0 l 4.67,-1 12.74,12.74 h 17.69 l 12.7301,-12.74 4.67,1 v 0 c 1.52,0.35 3,0.73 4.51,1.14 z"
     style="fill:#919191"
     id="path67"
     inkscape:connector-curvature="0"
     class="clothes" />
  <path
     d="m -770.09349,102.0002 a 5,5 0 1 0 5,5 5,5 0 0 0 -5,-5 z"
     style="fill:#1a1a1a;fill-rule:evenodd"
     id="path69"
     inkscape:connector-curvature="0"
     class="eyes" />
  <path
     d="m -820.34359,102.0002 a 5,5 0 1 0 5,5 5,5 0 0 0 -5,-5 z"
     style="fill:#1a1a1a;fill-rule:evenodd;stroke:#000000;stroke-width:0.50003px;stroke-miterlimit:2.61313"
     id="path71"
     inkscape:connector-curvature="0"
     class="eyes" />
  <path
     sodipodi:nodetypes="cccccccccsccccccccccccccccccccccc"
     inkscape:connector-curvature="0"
     id="path73"
     style="fill:#333333;stroke:none;stroke-width:0.52333px;stroke-linecap:butt;stroke-linejoin:miter;stroke-opacity:1"
     d="m -791.21579,28.40779 c -5.9884,-0.18593 -12.3621,3.6859 -14.8158,11.6299 -8.6541,-15.18486 -23.3403,-10.70719 -21.2081,7.55179 -11.7286,-10.26196 -28.3561,-2.64768 -21.2439,16.03893 -16.7262,-3.48276 -23.3112,9.61042 -12.1868,23.38343 -9.7066,2.04578 -15.6505,13.27279 -5.1087,23.8257 0,0 -1.4059,0.39718 -3.0808,1.79183 h 0.02 c -5.9408,7.49346 0.4867,19.20532 6.9076,20.82021 -0.9596,10.24544 9.4287,16.00937 12.62,10.66183 1.2846,-2.15264 2.1482,-11.71973 -1.3627,-12.39375 4.5316,-1.00784 4.6126,-16.34161 1.5479,-16.4879 5.0159,-1.24341 5.5342,-20.94728 0.4595,-19.4215 5.6736,-0.32019 7.5656,-11.22065 3.257,-14.89837 8.7419,2.00302 15.8865,-4.56396 14.0533,-12.68039 11.7757,6.1099 19.9926,-1.77999 20.6143,-9.12998 3.2955,12.90082 29.0495,13.80674 34.0491,-0.79711 3.32,14.03465 17.8378,14.77147 24.6068,12.55795 -4.5356,8.49506 3.6965,16.24246 8.9885,14.94256 -6.7382,8.3805 -1.3101,22.56562 2.093,22.68224 -2.8892,1.37604 -5.9052,15.02505 1.6552,22.44992 -1.6325,0.0405 -2.4541,7.38409 -1.5952,11.54224 0.2734,2.19769 2.5006,2.90004 4.2125,2.59541 4.9283,-0.94563 10.9774,-8.33535 7.3638,-14.45436 7.9708,-4.50469 14.2739,-17.99079 4.2694,-22.5361 0,-0.002 0.02,0 0.02,0 -0.2815,-0.0989 -0.5681,-0.20155 -0.8476,-0.29827 5.7149,-5.4526 8.3264,-18.94612 -5.0164,-22.86799 5.5694,-7.45902 5.9765,-19.69179 -7.2674,-16.87837 7.0866,-15.262 -6.2161,-22.55349 -15.7786,-16.69383 0.359,-21.18079 -16.8523,-20.20685 -24.7162,-10.22636 -0.9118,-8.2848 -6.5151,-12.5269 -12.5037,-12.71223 z"
     class="top" />
  <path
     sodipodi:nodetypes="sccccccccccccccccss"
     inkscape:connector-curvature="0"
     id="path75"
     style="fill:#333333;stroke:none;stroke-width:0.52333px;stroke-linecap:butt;stroke-linejoin:miter;stroke-opacity:1"
     d="m -792.96669,10.24237 c -3.7656,0 -7.7541,3.49166 -9.6468,11.77825 l -0.001,10e-4 c -6.2718,-12.83586 -17.1554,-13.40314 -18.9453,1.17647 -11.4513,-9.46346 -26.019,-4.48597 -20.3617,12.42227 -12.248,-7.93432 -24.9221,1.77362 -17.0738,20.85305 -27.0863,2.35553 -22.724,24.72427 -10.1128,31.42554 -16.2848,5.31334 -10.7897,19.49777 0.2482,24.73042 1.675,-1.39465 3.0809,-1.79182 3.0809,-1.79182 17.3368,-79.77909 118.0434,-85.9725 139.8456,-3.05098 0.2795,0.0969 0.5661,0.19997 0.8475,0.29827 9.6945,-2.20955 11.0037,-10.57705 5.6451,-15.29068 7.3031,-5.91682 3.636,-16.17878 -2.8016,-16.98894 12.4175,-7.09369 5.737,-22.05979 -5.1066,-18.49554 4.1776,-12.03973 -5.5573,-26.20417 -21.1203,-16.89993 6.9655,-11.36822 2.0695,-22.6601 -12.1008,-10.78829 -3.4595,-18.37686 -15.1352,-16.58287 -23.9017,-5.01092 0.8207,-8.64816 -3.6532,-14.37964 -8.4948,-14.36817 z"
     class="top" />
  <path
     sodipodi:nodetypes="sccccccccccs"
     inkscape:connector-curvature="0"
     d="m -795.48419,0 c -40.8402,0 -78.6442,21.56846 -99.4266,56.72519 2.3273,3.22959 5.3632,5.90436 8.8343,7.53082 -9.7475,7.49403 -7.8968,21.55126 6.2525,23.45978 -10.9195,9.78172 -5.4028,22.9299 11.7432,27.08773 l 5.621,-4.92172 c 18.4661,-77.81926 114.0138,-82.13799 133.9794,-2.37096 l 5.6901,4.9502 c 15.674,-3.5692 22.4099,-20.80816 11.2966,-26.62232 9.7125,-3.3447 12.5968,-16.23158 4.6476,-23.34169 5.0715,-2.65539 7.1471,-7.08479 7.3584,-11.22285 C -720.92429,19.2333 -756.93349,0 -795.48419,0 Z"
     style="fill:#333333;stroke:none;stroke-width:0.52333px;stroke-linecap:butt;stroke-linejoin:miter;stroke-opacity:1"
     id="path77"
     class="top" />
  <path
     class="mouth"
     inkscape:connector-curvature="0"
     id="path79"
     style="fill:#2f2f2f;fill-rule:evenodd;stroke-width:1"
     d="m -795.30689,160.64427 c 7.08,0 13.11,-4.93002 15.46,-11.83996 a 2.1400001,2.1400001 0 0 0 -1.51,-2.61009 2.3,2.3 0 0 0 -0.7399,-0.0593 h -26.42 a 2.1199999,2.1199999 0 0 0 -2.3101,1.9099 v 0 a 1.85,1.85 0 0 0 0.059,0.73995 c 2.3402,6.93011 8.3802,11.86013 15.46,11.86013 z" />
  <path
     style="fill:#1a1a1a;fill-opacity:1;fill-rule:nonzero;stroke:none;stroke-width:0.28319"
     d="m 108.37421,22.01936 v 0 C 102.10436,9.19078 91.22307,8.62372 89.42557,23.1963 77.97721,13.73803 63.40464,18.71325 69.06461,35.618288 c -12.2508,-7.92825 -24.91889,1.77611 -17.07623,20.85313 -27.08018,2.36457 -22.71483,24.72631 -10.11094,31.43483 -9.900189,3.356609 -10.701057,9.400591 -8.463985,14.496672 2.657419,4.78418 9.012589,6.4737 11.545415,9.65188 -6.62397,0.59419 -8.411204,5.60106 -5.740369,9.51922 1.689601,2.47868 5.275556,4.22183 8.597109,5.54553 1.04854,0.40658 3.70199,1.27323 3.90528,2.41806 0.187439,1.21561 -6.788374,3.00549 -5.728054,5.26117 0.606476,1.42273 1.77639,2.71506 2.646634,3.71563 1.280695,1.65954 10.755165,8.0351 9.45826,4.20486 -1.02714,-3.72339 -2.21478,-7.46818 -3.14562,-11.19157 -1.16624,-5.3069 -1.78681,-10.72079 -1.10204,-16.15609 1.422312,-5.45501 5.069043,-4.42651 7.783656,-8.35884 3.52637,-5.75052 2.029639,-11.613887 2.123984,-13.574932 0.107,-1.7868 1.54071,-1.18763 3.18843,-1.43372 4.38675,-0.64196 7.0081,-2.11848 8.8377,-6.26984 0.77035,-1.9259 0.62057,-9.75785 0.52426,-11.78004 0.36378,-4.63284 4.18347,0 6.54804,0.64196 3.26331,0.88805 6.87972,0.21399 9.07309,-2.50366 1.75471,-2.37526 2.08638,-2.88883 4.61143,-0.80245 2.68556,2.21478 4.09788,3.13492 7.69288,3.27402 5.56368,0.20329 8.77351,-6.26985 11.31996,-5.63859 3.5201,0.87735 3.6057,5.4567 10.26072,4.86823 2.38597,-0.20329 3.83039,-0.86665 5.4032,-2.64275 0.88805,-0.99505 1.95799,-2.50366 3.43451,-2.62135 1.46581,-0.1177 2.32177,2.36456 3.00653,3.4452 1.19258,2.675468 4.02954,3.651346 6.23774,3.31681 1.95799,-0.17119 3.85401,-1.41147 5.42682,-2.47071 0.99679,-0.661015 1.82842,-0.811279 1.92561,0.207097 0.29592,2.227096 0.0862,7.702478 0.1596,8.482123 0.10556,8.460879 5.37005,10.56885 13.2234,10.33346 -0.31871,3.746353 0.0583,11.280242 5.43531,14.561882 3.94807,2.76045 6.66573,1.27323 6.72991,7.85336 0.007,6.19143 -0.43693,13.06106 -1.29461,18.18898 -0.69547,4.04437 -1.24115,6.48383 -2.52506,10.37841 -0.64196,1.9152 -0.81315,1.96869 1.41231,1.06994 7.14719,-3.14562 10.53892,-11.48045 8.35624,-18.84164 -0.43869,-2.04358 0.84525,-1.7226 2.87814,-2.61065 9.5248,-4.23629 8.1264,-11.33495 -0.75967,-14.273 11.9885,-3.09263 13.88583,-8.900198 6.68712,-15.375032 7.30769,-5.91677 3.63781,-16.17749 -2.80324,-16.99065 12.42201,-7.0937 5.73487,-22.06216 -5.10362,-18.49925 4.17278,-12.03683 -5.56368,-26.20283 -21.12061,-16.89435 6.96533,-11.37346 2.06498,-22.661328 -12.10101,-10.785 C 146.96694,11.24505 135.28319,13.04255 126.52039,24.608598 126.61474,4.5333609 110.51986,7.188613 108.37421,22.01936 Z"
     id="path75-5"
     class="top"
     sodipodi:nodetypes="csccccccsccccccccccccccccccccccccccccccccccccccccc" />
  <path
     style="fill:#1a1a1a;fill-opacity:1;fill-rule:evenodd;stroke:none;stroke-width:0.28319"
     d="m 5.4353,80.502268 c 7.44677,9.13728 15.63181,8.8912 15.63181,8.8912 0,0 -6.07725,3.79829 -6.83691,9.87554 -0.75966,6.087962 4.55794,9.629462 8.09944,10.645902 3.5522,1.00575 7.0937,-2.79254 7.0937,-2.79254 0,0 -5.83117,10.6459 -1.51931,15.9635 4.30115,5.31761 11.90843,3.03863 11.90843,3.03863 0,0 -5.3283,10.13233 1.00574,14.1874 5.83118,3.72339 18.54206,7.67147 20.51075,8.27064 -6.06655,-9.74715 -9.57596,-21.24901 -9.57596,-33.57471 0,-0.0107 0,-0.0321 0,-0.0428 0,-35.201022 28.54599,-63.747012 63.74701,-63.747012 0,0 0,0 0,0 35.21172,0 63.75771,28.54599 63.75771,63.747012 0,12.4755 -3.58431,24.11645 -9.78994,33.94919 h 0.53496 c 0,0 13.93061,-1.00574 16.20959,-9.37267 2.27898,-8.35623 0.75967,-9.87555 0.75967,-9.87555 0,0 10.63519,2.03289 13.41703,-7.59657 2.79255,-9.62946 2.79255,-9.62946 2.79255,-9.62946 0,0 10.13233,0 10.892,-7.083 0.75963,-7.093702 -7.02951,-12.411302 -7.02951,-12.411302 0,0 11.45906,0.82385 14.49767,-10.45331 1.01645,-3.75549 0.83456,-8.21714 0.1391,-12.4969 C 204.01613,28.834878 163.11232,0 115.5,0 84.86763,0 55.46568,12.18661 33.8208,33.831498 v 0.0107 C 20.64983,47.013168 10.98828,63.062258 5.4353,80.502278 Z"
     id="path77-3"
     class="top" />
  <path
     class="eyes"
     inkscape:connector-curvature="0"
     id="path170"
     style="fill:none;stroke:#5e5e5e;stroke-width:5.99981px;stroke-linecap:round;stroke-linejoin:round"
     d="m 145.38,95.627689 c -5.16012,2.259709 -11.02988,2.259709 -16.19,0 M 81.9,97.377688 c 5.175483,-2.269417 11.064517,-2.269417 16.24,0"
     sodipodi:nodetypes="cccc" />
  <path
     id="path172"
     style="fill:#1a1a1a;fill-rule:evenodd;"
     d="M 90.015625 106.27734 C 85.565041 106.26684 83.3254 111.643 86.464844 114.79688 C 89.604288 117.95074 94.990031 115.73575 95 111.28516 C 95.0063 108.53292 92.779586 106.29538 90.027344 106.28906 L 90.015625 106.27734 z M 137.29688 106.27734 C 132.84629 106.26684 130.60665 111.643 133.74609 114.79688 C 136.88554 117.95074 142.27128 115.73575 142.28125 111.28516 C 142.28725 108.53292 140.06083 106.29538 137.30859 106.28906 L 137.29688 106.27734 z "
     class="eyes" />
  <path
     d="m -425.45593,2e-4 a 115.5,115.5 0 1 1 -115.5,115.5 115.5,115.5 0 0 1 115.5,-115.5 z"
     style="fill:#9e9e9e;fill-rule:evenodd"
     id="path887"
     inkscape:connector-curvature="0"
     class="env" />
  <path
     d="m -435.81593,166.5002 h 21 v 26 a 116.53,116.53 0 0 1 15.75,2.5 l 13.11,22.72 a 109.85,109.85 0 0 1 -78.74,0 l 13.13,-22.72 a 116.6,116.6 0 0 1 15.75,-2.53 v -26 z"
     style="fill:#efefef;fill-rule:evenodd"
     id="path889"
     inkscape:connector-curvature="0" />
  <path
     d="m -425.31593,51.7502 a 63.75,63.75 0 1 1 -63.75,63.75 63.75,63.75 0 0 1 63.75,-63.75 z"
     style="fill:#efefef;fill-rule:evenodd"
     id="path891"
     inkscape:connector-curvature="0" />
  <path
     d="m -399.06593,195.0002 a 114.79,114.79 0 0 1 38,16.5 115.55,115.55 0 0 1 -128.47,0 114.79,114.79 0 0 1 38,-16.5 l 15.75,15.75 h 21 z"
     style="fill:#353535;fill-rule:evenodd"
     id="path893"
     inkscape:connector-curvature="0"
     class="clothes" />
  <path
     d="m -394.55593,196.1402 -17.4,17.44 -1.17,1.17 h -24.34 l -1.18,-1.17 -17.43,-17.44 c 1.49,-0.41 3,-0.79 4.51,-1.14 v 0 l 4.67,-1 12.74,12.74 h 17.69 l 12.73,-12.74 4.67,1 v 0 c 1.52,0.35 3,0.73 4.51,1.14 z"
     style="fill:#919191"
     id="path895"
     inkscape:connector-curvature="0"
     class="clothes" />
  <path
     class="mouth"
     inkscape:connector-curvature="0"
     id="path897"
     style="fill:#2f2f2f;fill-rule:evenodd;stroke-width:1"
     d="m -425.27931,160.64427 c 7.08005,0 13.11,-4.93002 15.46,-11.83996 a 2.1400001,2.1400001 0 0 0 -1.50996,-2.61009 2.3,2.3 0 0 0 -0.73995,-0.0593 h -26.41997 a 2.1199999,2.1199999 0 0 0 -2.31004,1.9099 v 0 a 1.85,1.85 0 0 0 0.0593,0.73995 c 2.34011,6.93011 8.38015,11.86013 15.45999,11.86013 z" />
  <path
     style="fill:#1a1a1a;fill-opacity:1;fill-rule:nonzero;stroke:none;stroke-width:0.28319"
     d="m -422.93087,10.25002 c -3.76619,0 -7.75707,3.48801 -9.65085,11.76934 v 0 c -6.26985,-12.82858 -17.15114,-13.39564 -18.94864,1.17694 -11.44836,-9.45827 -26.02093,-4.48305 -20.36096,12.421988 -12.2508,-7.92825 -24.91889,1.77611 -17.07623,20.85313 -27.08018,2.36457 -22.71483,24.72631 -10.11094,31.43483 -2.52505,1.00575 -7.45748,3.12423 -8.61301,5.67068 -3.02793,9.404772 2.43946,11.951232 9.36197,16.455682 1.26253,0.81315 1.39092,0.83455 2.33247,2.02219 -3.56289,0.85595 -5.01801,0.48147 -6.55873,4.24766 -1.86169,4.72913 3.16702,8.04594 6.81552,9.73645 0.85594,0.38518 1.72259,0.73826 2.59995,1.08064 1.04854,0.40658 3.70199,1.27323 3.90528,2.41806 -0.24609,1.29463 -4.56864,2.05429 -5.82047,4.56864 v 0.35309 c 0.23539,1.11273 1.93659,3.18841 2.73905,4.05507 1.6905,1.744 3.66989,3.01723 5.83117,4.09786 l 0.17119,0.0856 c 2.12918,1.03784 4.19416,2.70695 3.4559,0.0214 -1.02714,-3.72339 -2.21478,-7.46818 -3.14562,-11.19157 -1.16624,-5.3069 -1.78681,-10.72079 -1.10204,-16.15609 1.81889,-6.97601 7.27559,-3.34891 9.76855,-13.05327 1.38023,-5.970262 -0.20329,-2.835342 0.13909,-8.880502 0.107,-1.7868 1.54071,-1.18763 3.18843,-1.43372 4.38675,-0.64196 7.0081,-2.11848 8.8377,-6.26984 0.77035,-1.9259 0.62057,-9.75785 0.52426,-11.78004 0.36378,-4.63284 4.18347,0 6.54804,0.64196 3.26331,0.88805 6.87972,0.21399 9.07309,-2.50366 1.75471,-2.37526 2.08638,-2.88883 4.61143,-0.80245 2.68556,2.21478 4.09788,3.13492 7.69288,3.27402 5.56368,0.20329 8.77351,-6.26985 11.31996,-5.63859 3.5201,0.87735 3.6057,5.4567 10.26072,4.86823 2.38597,-0.20329 3.83039,-0.86665 5.4032,-2.64275 0.88805,-0.99505 1.95799,-2.50366 3.43451,-2.62135 1.46581,-0.1177 2.32177,2.36456 3.00653,3.4452 l 0.44938,0.69546 c 1.32672,2.09709 3.3061,2.84604 5.78836,2.62135 1.95799,-0.17119 3.54151,-1.38022 5.11432,-2.43946 0.27819,-0.19259 0.58847,-0.42798 0.94154,-0.47077 l 0.1284,0.0214 0.22468,0.17118 c 0.56708,0.42798 0.26749,9.68296 0.35309,10.59241 1.16622,9.21218 6.12005,8.9126 13.9734,8.67721 -0.28888,4.25836 -0.82384,1.44442 0.49217,5.3711 0.99507,2.974432 2.34318,7.382582 4.94314,9.190782 3.94807,2.76045 6.66573,1.27323 6.72991,7.85336 0.0215,1.25183 -0.0214,2.50366 -0.0428,3.74479 -0.0749,5.2855 -0.36377,9.22288 -1.25181,14.44419 -0.69547,4.04437 -1.24115,6.48383 -2.52506,10.37841 -0.64196,1.9152 -0.81315,1.96869 1.41231,1.06994 7.14719,-3.14562 10.53892,-11.48045 8.35624,-18.84164 -0.43869,-2.04358 0.84525,-1.7226 2.87814,-2.61065 3.46659,-1.6691 5.78836,-3.33821 6.63361,-7.25419 l -0.0321,-0.63127 -0.37446,-1.33742 c -2.01151,-3.14563 -3.6485,-3.70199 -6.98672,-5.05012 7.89614,-1.96869 15.41782,-6.72992 7.52169,-14.593982 l -0.3745,-0.35308 -0.46007,-0.42797 c 7.30769,-5.91677 3.63781,-16.17749 -2.80324,-16.99065 12.42201,-7.0937 5.73487,-22.06216 -5.10362,-18.49925 4.17278,-12.03683 -5.56368,-26.20283 -21.12061,-16.89435 6.96533,-11.37346 2.06498,-22.661328 -12.10101,-10.785 -3.4559,-18.381578 -15.13965,-16.584078 -23.90245,-5.01803 0.82385,-8.645118 -3.6592,-14.379988 -8.49533,-14.369298 z"
     id="path899"
     class="top" />
  <path
     style="fill:#1a1a1a;fill-opacity:1;fill-rule:evenodd;stroke:none;stroke-width:0.28319"
     d="m -535.52063,80.502268 c 7.44677,9.13728 15.63181,8.8912 15.63181,8.8912 0,0 -6.07725,3.79829 -6.83691,9.87554 -0.75966,6.087962 4.55794,9.629462 8.09944,10.645902 3.5522,1.00575 7.0937,-2.79254 7.0937,-2.79254 0,0 -5.83117,10.6459 -1.51931,15.9635 4.30115,5.31761 11.90843,3.03863 11.90843,3.03863 0,0 -5.3283,10.13233 1.00574,14.1874 5.83118,3.72339 18.54206,7.67147 20.51075,8.27064 -6.06655,-9.74715 -9.57596,-21.24901 -9.57596,-33.57471 0,-0.0107 0,-0.0321 0,-0.0428 0,-35.201022 28.54599,-63.747012 63.74701,-63.747012 0,0 0,0 0,0 35.21172,0 63.75771,28.54599 63.75771,63.747012 0,12.4755 -3.58431,24.11645 -9.78994,33.94919 h 0.53496 c 0,0 13.93061,-1.00574 16.20959,-9.37267 2.27898,-8.35623 0.75967,-9.87555 0.75967,-9.87555 0,0 10.63519,2.03289 13.41703,-7.59657 2.79255,-9.62946 2.79255,-9.62946 2.79255,-9.62946 0,0 10.13233,0 10.892,-7.083 0.75963,-7.093702 -7.02951,-12.411302 -7.02951,-12.411302 0,0 11.45906,0.82385 14.49767,-10.45331 1.01645,-3.75549 0.83456,-8.21714 0.1391,-12.4969 C -336.9398,28.834878 -377.84361,0 -425.45593,0 c -30.63237,0 -60.03432,12.18661 -81.6792,33.831498 v 0.0107 c -13.17097,13.17097 -22.83252,29.22006 -28.3855,46.66008 z"
     id="path901"
     class="top" />
  <path
     class="eyes"
     inkscape:connector-curvature="0"
     id="path903"
     style="fill:none;stroke:#5e5e5e;stroke-width:5.99981px;stroke-linecap:round;stroke-linejoin:round"
     d="m -395.57593,95.627689 c -5.16012,2.259709 -11.02988,2.259709 -16.19,0 m -47.29,1.749999 c 5.17548,-2.269417 11.06452,-2.269417 16.24,0"
     sodipodi:nodetypes="cccc" />
  <path
     id="path905"
     style="fill:#1a1a1a;fill-rule:evenodd;stroke-width:1.17256"
     d="m -450.94031,106.27734 c -4.45058,-0.0105 -6.69022,5.36566 -3.55078,8.51954 3.13945,3.15386 8.52519,0.93887 8.53516,-3.51172 0.006,-2.75224 -2.22042,-4.98978 -4.97266,-4.9961 z m 47.28126,0 c -4.45059,-0.0105 -6.69023,5.36566 -3.55079,8.51954 3.13945,3.15386 8.52519,0.93887 8.53516,-3.51172 0.006,-2.75224 -2.22042,-4.98978 -4.97266,-4.9961 z"
     class="eyes" />
</svg>
