<svg version="1.1" viewBox="0 0 231 231" xmlns="http://www.w3.org/2000/svg">
	<style/>
	<path class="env" d="M 115.5,0 A 115.5,115.5 0 1 1 0,115.5 115.5,115.5 0 0 1 115.5,0 Z" style="fill-rule:evenodd;fill:#b2b2b2"/>
	<path class="body" d="m115.5 51.75a63.75 63.75 0 0 0-10.5 126.63v14.09a115.5 115.5 0 0 0-53.729 19.027 115.5 115.5 0 0 0 128.46 0 115.5 115.5 0 0 0-53.729-19.029v-14.084a63.75 63.75 0 0 0 53.25-62.881 63.75 63.75 0 0 0-63.65-63.75 63.75 63.75 0 0 0-0.0996 0z" style="fill:#c8c8c8;stroke-width:1.432"/>
	<path class="mouth" d="m126.28 149.82c-6.16 2.43-15.52 2.42-21.56 0" style="fill:none;stroke-linecap:round;stroke-linejoin:round;stroke-width:5.9998px;stroke:#1c1c1c"/>
	<path class="clothes" d="m141.75 195a114.79 114.79 0 0 1 38 16.5 115.53 115.53 0 0 1-128.46 0 114.79 114.79 0 0 1 38-16.5l13.85 13.85v-1.2h17.86v3.1h5z" style="fill-rule:evenodd;fill:#333"/>
	<polygon class="clothes" points="115.36 207.65 123.37 224.2 148.3 196.86 143.08 189.95" style="fill-rule:evenodd;fill:#fff"/>
	<polygon class="clothes" points="115.36 207.65 107.35 224.2 82.42 196.86 87.63 189.95" style="fill-rule:evenodd;fill:#fff"/>
	<path class="top" d="m157.79 67.5a61.31 61.31 0 0 1-42.79 17.43h-55.7c18.16-37.74 68.27-46.85 98.49-17.43z" style="fill-rule:evenodd;fill:#4d4d4d"/>
	<path class="top" d="m122.93 7.0078c-10.503-0.15729-21.09 1.6448-29.545 5.4316-17.141 7.8999-32.169 23.297-43.973 38.779-5.1703 6.8631-8.7779 13.46-8.1855 18.395 0.93114 12.312 10.372 26.483 11.068 36.9 15.663-72.081 105.99-70.452 124.91-7.0525l4e-3 0.0156c5.616-10.926 8.0682-20.188 8.352-27.653 0.43654-15.607-7.8088-21.149-21.735-28.249 1.7934-3.7704 1.7273-7.5023 2.0625-10.154-0.79964-7.8568-3.6796-13.51-10.43-17.758-5.9434-3.7404-13.06-6.0867-18.463-7.2266-4.5319-0.87895-9.2901-1.3562-14.064-1.4277z" style="fill:#4d4d4d"/>
	<path class="top" d="m42.426 75.338c0.52158 18.689 10.557 74.338-18.115 101.25 12.38 10.603 28.352 19.061 46.025 24.594 11.032-4.6874 22.88-7.4147 34.817-8.5046l0.0633-14.477c-22.49-4.3813-40.766-18.898-48.862-39.967-8.096-21.07-4.7931-44.72 9.2478-62.393zm124.67 2.7207c7.8997 10.886 11.743 24.64 11.787 37.441-0.36632 30.178-22.389 57.576-53.12 62.708l0.0238 14.471c12.282 1.1216 24.518 3.9888 35.825 8.9128 15.488-5.1448 30.007-13.325 42.396-25.043-13.136-22.051-23.282-63.045-18.694-101.55z" style="fill:#4d4d4d"/>
	<path class="top" d="m143.61 46.383c-11.639 0.12482-20.998 1.8906-20.998 1.8906l-9 3.5059c0.63003-0.0191 1.2603-0.0289 1.8906-0.0293h0.0996c35.169 0.055 60.959 27.235 63.283 63.383 7.4e-4 31.157-22.742 57.213-53.106 63.079l-0.0216 14.498c11.567 1.0563 23.154 3.6067 33.887 8.0463 35.952-15.315 55.082-52.303 36.709-68.279-5.018-7.9035-10.44-15.409-9.5544-23.03 5.0545-50.452 0.39626-63.561-43.189-63.064zm-69.966 21.09c-15.286 3.244-17.096 3.73-31.734 6.6953 3.0304 13.081 3.0583 22.274 1.2085 30.012-3.8004 11.361-8.9712 19.787-12.286 28.764-6.8823 22.459-2.9157 31.982 12.093 46.165 8.6595 8.0693 19.861 16.209 30.939 20.647 2.669-1.0316 5.3729-1.9628 8.106-2.792 7.4979-2.275 15.388-3.6535 23.206-4.3673l0.0433-14.393c-23.933-4.5937-44.283-21.98-50.77-45.817-6.3319-23.265 0.51104-48.752 19.195-64.914z" style="fill:#4d4d4d"/>
	<path class="eyes" d="m83.527 103.98v10h10v-10h-10zm53.945 0v10h10v-10h-10z" style="fill:#1a1a1a"/>
	<path class="eyes" d="m56.621 94.906v11.688h5.3418v6.4922h5.3418v6.1055h5.3223v6.2324h26.846v-6.2324h5.3047v-6.1055h5.1445v-6.0039h11.154v6.0039h5.1446v6.1055h5.3066v6.2324h26.846v-6.2324h5.3203v-6.1055h5.3438v-6.4922h5.3418v-11.688z" style="fill:#1a1a1a"/>
	<path class="eyes" d="m67.387 100.65v5.9394h5.1992v-5.9394zm5.1992 5.9394v6.4922h5.4238v-6.4922zm5.4238 0h5.1992v-5.9394h-5.1992zm5.1992 0v6.4922h5.4258v-6.4922zm5.4258 6.4922v6.1055h5.1426v-6.1055zm-10.625 0v6.1055h5.1445v-6.1055zm48.281-12.432v5.9394h5.1992v-5.9394zm5.1992 5.9394v6.4922h5.4238v-6.4922zm5.4238 0h5.1992v-5.9394h-5.1992zm5.1992 0v6.4922h5.4258v-6.4922zm5.4258 6.4922v6.1055h5.1426v-6.1055zm-10.625 0v6.1055h5.1445v-6.1055z" style="fill:#fff"/>
</svg>
