<svg version="1.1" viewBox="0 0 231 231" xmlns="http://www.w3.org/2000/svg">
	<style/>
	<path class="env" d="m115.5 0a115.5 115.5 0 1 1-115.5 115.5 115.5 115.5 0 0 1 115.5-115.5z" style="fill-rule:evenodd;fill:#333"/>
	<path d="m105 166.5h21v26a116.53 116.53 0 0 1 15.75 2.4999l13.12 22.72a109.85 109.85 0 0 1-78.74 0l13.12-22.72a116.6 116.6 0 0 1 15.75-2.53v-26z" style="fill-rule:evenodd;fill:#e6e6e6"/>
	<path d="m115.5 51.75a63.75 63.75 0 1 1-63.75 63.75 63.75 63.75 0 0 1 63.75-63.75z" style="fill-rule:evenodd;fill:#e6e6e6"/>
	<path class="clothes" d="m141.75 195a114.79 114.79 0 0 1 38 16.5 115.53 115.53 0 0 1-128.46 0 114.79 114.79 0 0 1 38-16.5l15.71 15.75h21z" style="fill-rule:evenodd;fill:#666"/>
	<path class="top" d="m41.668 87.073c-9.2319-0.0231-11.63 6.5104 2.2676 17.66-14.015 1.1231-4.3662 16.457 4.875 24.66 4.0686 3.0199 6.4647 5.4657 5.5078 1.1348-1.2079-4.9178-1.8184-9.9634-1.8184-15.027 3.26e-4 -7.5692 1.2547-15.016 3.7883-22.183 0.57048-1.7876 1.0689-2.0306-0.37721-2.6839-5.5405-2.4478-10.375-3.5511-14.243-3.5608z" style="fill:#ccc"/>
	<path class="top" d="m185.48 89.513c-2.4418-0.11189-5.4618 0.81187-9.5148 3.2121-1.314 0.81729-0.70075 1.995-0.32301 3.2653 3.194 10.982 3.8215 22.462 1.2538 33.628-0.31613 1.688-0.47649 3.569 2.6953 1.3516 7.7016-5.371 19.17-18.734 16.918-26.105-1.4251-3.9177-11.4-0.35546-11.4-0.35546s4.987-4.2755 5.3437-9.6191c0.20048-3.0057-1.5237-5.2189-4.9726-5.377z" style="fill:#ccc"/>
	<path class="top" d="m91.689 36.108c-3.7298-7.3864-9.5859-10.504-17.578-6.7891-9.5194 4.5907-15.629 18.444-13.416 29.232 0 0-8.5511-4.9878-18.17-3.5625-19.623 8.094-1.4102 29.869 10.817 37.342 2.075 1.297 2.5792 1.7432 3.4291-0.37685 2.6746-6.5374 6.1886-12.722 11.297-17.709 4.1039 8.7427 14.629 4.1809 20.006-0.14062 4.4873 9.6838 10.377 6.3535 15.377 3.4785 4.0764 7.8829 10.756 7.25 17.631 0.0625 4.875 4.5625 14.713 4.1867 15.555-3.426 8.4753 2.6244 14.012 10.437 22.962-1.4764 8.8552 6.8221 14.407 16.853 17.122 27.51 0.34 1.554 1.175 0.85565 2.2212 0.44315 10.255-4.286 22.842-15.749 15.705-23.975-3.5623-3.5623-13.539-2.1387-13.539-2.1387s6.77-7.1233 9.2637-18.168c2.4936-11.043-23.514-4.9883-23.514-4.9883s7.4818-5.6993 12.113-13.537c4.6314-7.8378-2.4943-11.756-11.045-11.043-8.5496 0.71204-17.1 7.4805-17.1 7.4805s3.3946-7.8055-3.5625-12.826c-9.5935-6.9234-23.869 6.4121-23.869 6.4121-4.2562-26.835-24.872-6.386-31.707 8.1953z" style="fill:#ccc"/>
	<path class="clothes" d="m89.291 195a114.79 114.79 0 0 0-38.002 16.5 115.53 115.53 0 0 0 38.002 16.482zm52.434 0v32.982a115.53 115.53 0 0 0 38-16.482 114.79 114.79 0 0 0-38-16.5z" style="fill:#999"/>
	<path class="clothes" d="m157.15 199.75c0.2548 7.4501 1.54 14.855 4.9512 21.432a115.53 115.53 0 0 0 17.619-9.6797 114.79 114.79 0 0 0-22.57-11.752zm-83.295 2e-3a114.79 114.79 0 0 0-22.57 11.75 115.53 115.53 0 0 0 17.621 9.6797c3.411-6.5765 4.6944-13.98 4.9492-21.43z" style="fill:#ccc"/>
	<path class="clothes" d="m99.197 204.97v2e-3l16.302 16.301 16.301-16.301v-2e-3z" style="fill:#fff"/>
	<path class="eyes" d="m97.56 107.84a10.63 10.63 0 0 1-15 0.13l-0.13-0.13" style="fill:none;stroke-linecap:round;stroke-linejoin:round;stroke-width:6.3px;stroke:#000"/>
	<path class="eyes" d="m148.59 107.84a10.63 10.63 0 0 1-15 0.13l-0.13-0.13" style="fill:none;stroke-linecap:round;stroke-linejoin:round;stroke-width:6.3px;stroke:#000"/>
	<path class="mouth" d="m100.19 152.09c2.8726 4.0616 9.8095 4.7232 15.119-0.45432 5.0656 4.5134 11.167 5.6898 15.495 0.31458" style="fill:none;stroke-linecap:round;stroke-linejoin:round;stroke-width:5.8949;stroke:#333"/>
	<path class="mouth" d="m109.67 135.53c-0.9758 0.0743-2.05 0.45327-3.1485 0.99414-4.3235 2.1399-7.3862 4.2557-10.639 7.1406-0.6251 0.5715 0.1168 0.77785 1.4238 0.87304 5.6967 0.0536 14.384 0.41404 15.098-0.875 1.9251-2.0788 1.7969-5.3303-0.1816-7.3008-0.701-0.67533-1.5769-0.90632-2.5527-0.83203zm11.656 0c-0.9758-0.0743-1.8517 0.1567-2.5527 0.83203-1.9785 1.9705-2.1067 5.222-0.1817 7.3008 0.7142 1.289 9.401 0.9286 15.098 0.875 1.307-0.0952 2.0489-0.30154 1.4238-0.87304-3.2524-2.8849-6.3151-5.0007-10.639-7.1406-1.0985-0.54087-2.1727-0.91985-3.1485-0.99414z" style="fill:#333"/>
</svg>
