<?xml version="1.0" encoding="UTF-8" standalone="no"?>
<svg
   xmlns:dc="http://purl.org/dc/elements/1.1/"
   xmlns:cc="http://creativecommons.org/ns#"
   xmlns:rdf="http://www.w3.org/1999/02/22-rdf-syntax-ns#"
   xmlns:svg="http://www.w3.org/2000/svg"
   xmlns="http://www.w3.org/2000/svg"
   xmlns:sodipodi="http://sodipodi.sourceforge.net/DTD/sodipodi-0.dtd"
   xmlns:inkscape="http://www.inkscape.org/namespaces/inkscape"
   viewBox="0 0 231 231"
   version="1.1"
   id="svg34"
   sodipodi:docname="11.svg"
   inkscape:version="1.0.1 (3bc2e813f5, 2020-09-07)">
  <style
     id="style950"></style>
  <metadata
     id="metadata19">
    <rdf:RDF>
      <cc:Work
         rdf:about="">
        <dc:format>image/svg+xml</dc:format>
        <dc:type
           rdf:resource="http://purl.org/dc/dcmitype/StillImage" />
      </cc:Work>
    </rdf:RDF>
  </metadata>
  <defs
     id="defs38" />
  <sodipodi:namedview
     inkscape:snap-global="false"
     showguides="false"
     inkscape:snap-others="false"
     inkscape:snap-center="true"
     inkscape:snap-object-midpoints="true"
     inkscape:snap-midpoints="true"
     inkscape:snap-smooth-nodes="true"
     inkscape:snap-intersection-paths="true"
     inkscape:object-paths="true"
     inkscape:snap-bbox-midpoints="true"
     inkscape:snap-bbox-edge-midpoints="true"
     inkscape:bbox-nodes="true"
     inkscape:bbox-paths="true"
     inkscape:snap-bbox="false"
     inkscape:snap-page="false"
     inkscape:document-rotation="0"
     pagecolor="#ffffff"
     bordercolor="#666666"
     borderopacity="1"
     objecttolerance="10"
     gridtolerance="10"
     guidetolerance="10"
     inkscape:pageopacity="0"
     inkscape:pageshadow="2"
     inkscape:window-width="1842"
     inkscape:window-height="1051"
     id="namedview36"
     showgrid="false"
     inkscape:zoom="0.72457648"
     inkscape:cx="-23.121205"
     inkscape:cy="72.284697"
     inkscape:window-x="69"
     inkscape:window-y="-9"
     inkscape:window-maximized="1"
     inkscape:current-layer="svg34" />
  <path
     d="M 1633.5343,125.04457 A 220.70184,220.70184 0 1 1 1412.8326,345.7463 220.70184,220.70184 0 0 1 1633.5343,125.04457 Z"
     style="fill:#484848;fill-rule:evenodd;stroke-width:1.91084"
     id="path3362"
     inkscape:connector-curvature="0"
     class="env" />
  <path
     d="m 1613.4707,443.19916 h 40.1276 v 49.68189 a 222.67001,222.67001 0 0 1 30.0956,4.77694 l 25.0704,43.4143 a 209.90561,209.90561 0 0 1 -150.4596,0 l 25.0704,-43.4143 a 222.80377,222.80377 0 0 1 30.0956,-4.83439 v -49.68189 z"
     style="fill:#8a8a8a;fill-rule:evenodd;stroke-width:1.91084"
     id="path3364"
     inkscape:connector-curvature="0" />
  <path
     d="M 1633.5343,223.93062 A 121.81595,121.81595 0 1 1 1511.7186,345.7463 121.81595,121.81595 0 0 1 1633.5343,223.93062 Z"
     style="fill:#8a8a8a;fill-rule:evenodd;stroke-width:1.91084"
     id="path3366"
     inkscape:connector-curvature="0" />
  <path
     d="m 1639.4005,440.60035 a 16.547861,16.547861 0 0 0 -5.2736,-8.08289 h -1.1849 a 15.286708,15.286708 0 0 0 -5.2739,8.064 c -0.9936,3.61133 3.9556,20.27376 5.2739,23.94255 h 1.1849 c 1.2227,-3.36303 6.0953,-20.67515 5.2736,-23.92366 z"
     style="fill:#191919;fill-rule:evenodd;stroke-width:1.91084"
     id="path3368"
     inkscape:connector-curvature="0"
     class="mouth" />
  <path
     d="m 1609.286,415.95065 a 4.7619542,4.7619542 0 1 1 2.2737,-9.2485 l 0.4014,0.11338 a 70.892108,70.892108 0 0 0 10.376,2.14035 85.070529,85.070529 0 0 0 22.4711,0 70.892108,70.892108 0 0 0 10.376,-2.14035 4.758739,4.758739 0 0 1 3.0383,9.01947 l -0.4013,0.11338 a 82.318924,82.318924 0 0 1 -11.7517,2.46501 92.771207,92.771207 0 0 1 -24.9937,0 81.764777,81.764777 0 0 1 -11.7898,-2.46501 z"
     style="fill:#191919;fill-rule:evenodd;stroke-width:1.91084"
     id="path3370"
     inkscape:connector-curvature="0"
     class="mouth" />
  <path
     d="m 1634.4898,513.19339 c -0.2306,0 -0.4778,0.2305 -0.9362,0.2305 -0.4589,0 -0.4778,-0.2305 -0.9362,-0.2305 z m -52.1469,-15.28708 c 1.6626,-0.47736 3.2866,-0.89802 4.8918,-1.3183 a 61.85384,61.85384 0 0 0 0.5734,16.37588 41.083027,41.083027 0 0 0 13.3757,13.1464 c 12.2487,-11.4648 32.1022,-12.6879 32.1022,-12.6879 0,0 20.064,1.1085 32.4843,12.7835 a 41.293221,41.293221 0 0 0 13.2419,-12.726 61.796516,61.796516 0 0 0 0.669,-16.89188 l 4.0702,1.06998 v 0 a 219.34515,219.34515 0 0 1 72.6119,31.5288 220.75917,220.75917 0 0 1 -245.4664,0 219.05852,219.05852 0 0 1 71.4271,-31.28048 z"
     style="fill:#e9e9e9;fill-rule:evenodd;stroke-width:1.91084"
     id="path3372"
     inkscape:connector-curvature="0"
     class="clothes" />
  <path
     d="m 1653.8848,518.67749 -7.4903,14.9616 h -25.72 l -7.4907,-14.9616 a 69.917579,69.917579 0 0 1 20.3505,-5.1595 68.140502,68.140502 0 0 1 20.3505,5.1595 z"
     style="fill:#818181;fill-rule:evenodd;stroke-width:1.91084"
     id="path3374"
     inkscape:connector-curvature="0"
     class="clothes" />
  <path
     d="m 1650.8082,565.77939 -4.1654,-31.9872 h -25.7389 l -4.1847,32.0254 c 5.5411,0.4203 11.159,0.6308 16.8151,0.6308 5.6561,0 11.5797,-0.2305 17.1976,-0.669 z"
     style="fill:#989898;fill-rule:evenodd;stroke-width:1.91084"
     id="path3376"
     inkscape:connector-curvature="0"
     class="clothes" />
  <path
     d="m 1670.4901,480.46038 c 0,0 1.6434,18.72643 -36.9558,32.98131 0,0 30.1723,1.6433 39.3059,22.4715 0.2306,0.9362 17.771,-44.44606 -2.3501,-55.41463 z"
     style="fill:#ffffff;fill-rule:evenodd;stroke-width:1.91084"
     id="path3378"
     inkscape:connector-curvature="0"
     class="clothes" />
  <path
     d="m 1596.5788,480.46038 c -19.892,11.00675 -2.5795,56.15961 -2.1018,55.41431 8.8853,-20.5988 39.2867,-22.4712 39.2867,-22.4712 -38.8282,-14.23596 -37.1849,-32.94311 -37.1849,-32.94311 z"
     style="fill:#ffffff;fill-rule:evenodd;stroke-width:1.91084"
     id="path3380"
     inkscape:connector-curvature="0"
     class="clothes" />
  <path
     d="m 1764.5607,335.50416 23.4077,-23.1976 12.172,-34.66243 -3.0573,-1.16561 -10.7198,9.91711 -18.4396,9.40157 9.8789,-21.3823 8.6563,-35.82841 -3.535,-7.64334 -6.7264,10.66243 -6.401,8.75187 -12.0193,9.74514 -12.3632,9.55427 6,-25.62445 7.2805,-10.52863 12.3439,-9.86002 -26.5606,-2.7326 -22.8155,8.94273 5.1783,-19.66223 -6.1719,-39.63099 -9.5543,-15.17216 -0.6497,4.94929 -4.7962,21.13399 -12.4967,12.21014 -15.0765,5.29285 -0.325,0.19275 -3.1529,-6.80277 -2.5606,-30.70715 4.7962,-18.49663 -11.7899,2.31194 -24.4584,22.45228 -7.5863,16.35704 -18.0956,-14.92384 -6.7261,-15.51609 -0.6497,-14.19742 h -7.4525 l -9.2099,22.50973 -7.3761,31.03181 0.8602,10.07018 -2.1022,-2.82785 -7.2994,-32.82822 -7.6433,4.71988 -15.6495,23.42664 0.6493,16.56718 -12.9937,-10.05127 -35.2932,-0.97436 -17.9425,8.90456 18.9173,7.26123 19.5477,22.12724 1.9109,6.05745 -11.0827,-5.06381 h -9.9364 l -9.2867,-11.88548 h -6.6878 l 2.866,25.08964 8.3886,14.57953 -21.516,7.87275 -11.8663,10.24214 2.2549,4.28032 22.1084,-1.64334 7.9109,5.54116 -16.4523,15.28668 -6.4588,17.82841 v 3.64951 l 19.4332,-9.17215 17.1976,3.42047 7.9298,-13.37575 -0.8787,-11.8662 c 0.8405,-2.0829 1.7196,-4.12763 2.6751,-6.15308 l -3.0191,1.50955 14.6559,-7.35685 v -13.91055 c 1.7964,-2.46501 3.6499,-4.85367 5.6179,-7.16599 l 6.6115,0.99364 5.3885,-13.35647 a 125.351,125.351 0 0 1 13.72,-10.64353 l -6.8791,-6.55408 23.2169,22.58608 2.4265,-11.61789 2.7707,-15.84076 c 2.6945,-1.10853 5.4652,-2.12107 8.2742,-3.03836 l -6.7835,-5.59861 28.2229,23.25467 20.1785,-19.58589 8.4843,4.89147 21.9938,-3.05726 13.3757,20.19779 20.1593,-17.1976 -8.0066,6.91729 c 1.2042,0.68787 2.408,1.39465 3.5736,2.12069 l -12.0193,24.096 26.7519,-13.37612 v 0 l -4.8919,17.1976 22.6054,-9.19105 -6.6308,2.71332 a 74.847542,74.847542 0 0 1 5.2547,6.17197 l 1.2994,-8.88529 -4.0698,29.21688 17.1972,1.54772 c 0.9366,1.91055 1.9109,3.82148 2.6751,5.73241 l 0.3062,-5.42665 -1.2038,21.4012 7.7771,4.60535 q 1.2038,5.10161 1.911,10.35666 l -3.4969,6.6497 14.0066,0.89802 z"
     style="fill:#f9f9f9;fill-rule:evenodd;stroke-width:1.91084"
     id="path3382"
     inkscape:connector-curvature="0"
     class="top" />
  <path
     class="top"
     inkscape:connector-curvature="0"
     id="path3390"
     style="fill:#f9f9f9;fill-rule:evenodd;stroke-width:1.91084"
     d="m 1764.5607,335.50416 23.4077,-23.1976 12.172,-34.66243 -3.0573,-1.16561 -10.7198,9.91711 -18.4396,9.40157 9.8789,-21.3823 8.6563,-35.82841 -3.535,-7.64334 -6.7264,10.66243 -6.401,8.75187 -12.0193,9.74514 -12.3632,9.55427 6,-25.62445 7.2805,-10.52863 12.3439,-9.86002 -26.5606,-2.7326 -22.8155,8.94273 5.1783,-19.66223 -6.1719,-39.63099 -9.5543,-15.17216 -0.6497,4.94929 -4.7962,21.13399 -12.4967,12.21014 -15.0765,5.29285 -0.325,0.19275 -3.1529,-6.80277 -2.5606,-30.70715 4.7962,-18.49663 -11.7899,2.31194 -24.4584,22.45228 -7.5863,16.35704 -18.0956,-14.92384 -6.7261,-15.51609 -0.6497,-14.19742 h -7.4525 l -9.2099,22.50973 -7.3761,31.03181 0.8602,10.07018 -2.1022,-2.82785 -7.2994,-32.82822 -7.6433,4.71988 -15.6495,23.42664 0.6493,16.56718 -12.9937,-10.05127 -35.2932,-0.97436 -17.9425,8.90456 18.9173,7.26123 19.5477,22.12724 1.9109,6.05745 -11.0827,-5.06381 h -9.9364 l -9.2867,-11.88548 h -6.6878 l 2.866,25.08964 8.3886,14.57953 -21.516,7.87275 -11.8663,10.24214 2.2549,4.28032 22.1084,-1.64334 7.9109,5.54116 -16.4523,15.28668 -6.4588,17.82841 v 3.64951 l 19.4332,-9.17215 17.1976,3.42047 7.9298,-13.37575 -0.8787,-11.8662 c 0.8405,-2.0829 1.7196,-4.12763 2.6751,-6.15308 l -3.0191,1.50955 14.6559,-7.35685 v -13.91055 c 1.7964,-2.46501 3.6499,-4.85367 5.6179,-7.16599 l 6.6115,0.99364 5.3885,-13.35647 a 125.351,125.351 0 0 1 13.72,-10.64353 l -6.8791,-6.55408 23.2169,22.58608 2.4265,-11.61789 2.7707,-15.84076 c 2.6945,-1.10853 5.4652,-2.12107 8.2742,-3.03836 l -6.7835,-5.59861 28.2229,23.25467 20.1785,-19.58589 8.4843,4.89147 21.9938,-3.05726 13.3757,20.19779 20.1593,-17.1976 -8.0066,6.91729 c 1.2042,0.68787 2.408,1.39465 3.5736,2.12069 l -12.0193,24.096 26.7519,-13.37612 v 0 l -4.8919,17.1976 22.6054,-9.19105 -6.6308,2.71332 a 74.847542,74.847542 0 0 1 5.2547,6.17197 l 1.2994,-8.88529 -4.0698,29.21688 17.1972,1.54772 c 0.9366,1.91055 1.9109,3.82148 2.6751,5.73241 l 0.3062,-5.42665 -1.2038,21.4012 7.7771,4.60535 q 1.2038,5.10161 1.911,10.35666 l -3.4969,6.6497 14.0066,0.89802 z" />
  <path
     class="eyes"
     id="path3517"
     style="fill-rule:evenodd;stroke-width:1.91084"
     d="m 1688.119,317.36961 a 9.4395421,9.4395421 0 1 0 9.4394,9.43937 9.4395421,9.4395421 0 0 0 -9.4394,-9.43937 z"
     inkscape:connector-curvature="0" />
  <path
     class="eyes"
     id="path3520"
     style="fill-rule:evenodd;stroke-width:1.91084"
     d="m 1578.7807,317.36961 a 9.4395421,9.4395421 0 1 0 9.4204,9.55427 v 0 a 9.5541922,9.5541922 0 0 0 -9.4204,-9.55427 z"
     inkscape:connector-curvature="0" />
  <path
     class="eyes"
     id="path3522"
     style="fill:#1a1a1a;fill-rule:evenodd;stroke:none;stroke-width:0.477192px;stroke-miterlimit:2.61313"
     d="m 1737.4184,298.01276 a 0.97452765,0.97452765 0 0 0 -0.8406,-0.99364 320.33296,320.33296 0 0 0 -43.1852,-3.21033 c -22.9301,0 -52.4905,7.18488 -57.6499,7.18488 h -4.5861 c -2.3883,0 -10.1084,-1.54771 -19.968,-3.21033 a 237.61277,237.61277 0 0 0 -37.6819,-3.97455 317.54314,317.54314 0 0 0 -36.8984,2.36939 c -2.9809,0.34394 -5.1401,0.66897 -6.2865,0.84094 a 0.97452765,0.97452765 0 0 0 -0.8409,0.99364 l -0.1739,12.32504 a 1.089178,1.089178 0 0 0 0.6308,0.99364 l 1.4139,0.45845 c 2.0637,0.8024 1.911,37.93021 12.9555,47.21689 6.5734,5.46482 12.4396,8.57952 37.1085,8.57952 14.2738,0 23.2551,-3.82148 31.7772,-15.28667 6.1338,-8.25487 11.656,-27.80259 11.656,-27.80259 1.567,-7.77713 7.2042,-8.63697 8.465,-8.75187 h 0.2306 c 0.2117,0 6.9936,0.11339 8.7326,8.75187 0,0 5.4648,19.52882 11.5986,27.78369 8.5225,11.46482 17.5034,15.28668 31.7775,15.28668 24.669,0 30.5734,-3.11471 37.1086,-8.57991 11.0634,-9.28668 10.8914,-46.41411 12.9554,-47.21688 l 1.4139,-0.45846 a 1.089178,1.089178 0 0 0 0.6305,-0.99364 l -0.2306,-12.32503 z m -124.2044,43.9491 c -3.6498,8.59881 -12.9936,19.66262 -26.1785,20.33159 -39.5542,1.91056 -41.3696,-9.05763 -43.9495,-17.80913 a 60.095872,60.095872 0 0 1 -2.3119,-25.18488 c 1.0318,-8.7515 3.2485,-13.89166 7.2231,-16.47156 a 17.770798,17.770798 0 0 1 8.3119,-2.88529 162.55503,162.55503 0 0 1 21.7837,-0.99364 113.17896,113.17896 0 0 1 17.5986,1.33757 c 14.0829,2.29304 23.599,7.07037 23.599,11.77097 a 88.127872,88.127872 0 0 1 -6.172,29.88548 z m 110.8286,2.52246 c -2.5606,8.7515 -4.3759,19.79641 -43.9494,17.80913 -13.2038,-0.66897 -22.5668,-11.73278 -26.1975,-20.33159 a 88.567363,88.567363 0 0 1 -6.153,-29.88548 c 0,-6.47773 18.0193,-13.10815 41.198,-13.10815 23.1783,0 26.7515,1.71968 30.0956,3.82148 3.9745,2.5799 6.1908,7.64333 7.2038,16.47156 a 59.675487,59.675487 0 0 1 -2.2167,25.1656 z"
     inkscape:connector-curvature="0" />
  <g
     transform="translate(1830.1215,-498.33051)"
     id="g159">
    <path
       inkscape:connector-curvature="0"
       d="m -142.00279,815.70001 a 9.4395421,9.4395421 0 1 0 9.43937,9.43937 9.4395421,9.4395421 0 0 0 -9.43937,-9.43937 z"
       style="fill-rule:evenodd;stroke-width:1.91084"
       id="path149"
       class="eyes" />
    <path
       inkscape:connector-curvature="0"
       d="m -251.34112,815.70001 a 9.4395421,9.4395421 0 1 0 9.42047,9.55427 v 0 a 9.5541922,9.5541922 0 0 0 -9.42047,-9.55427 z"
       style="fill-rule:evenodd;stroke-width:1.91084"
       id="path151"
       class="eyes" />
    <path
       inkscape:connector-curvature="0"
       d="m -92.703388,796.34316 a 0.97452765,0.97452765 0 0 0 -0.840567,-0.99364 320.33296,320.33296 0 0 0 -43.185265,-3.21033 c -22.93001,0 -52.49045,7.18488 -57.64989,7.18488 h -4.58607 c -2.38829,0 -10.10835,-1.54771 -19.968,-3.21033 a 237.61277,237.61277 0 0 0 -37.68189,-3.97455 317.54314,317.54314 0 0 0 -36.8984,2.36939 c -2.98091,0.34393 -5.14016,0.66897 -6.28649,0.84094 a 0.97452765,0.97452765 0 0 0 -0.84094,0.99364 l -0.17386,12.32504 a 1.089178,1.089178 0 0 0 0.6308,0.99364 l 1.41392,0.45845 c 2.06363,0.8024 1.91093,37.93021 12.95547,47.21689 6.57335,5.46481 12.43956,8.57952 37.10853,8.57952 14.27377,0 23.25506,-3.82148 31.77714,-15.28667 6.13379,-8.25487 11.65606,-27.80259 11.65606,-27.80259 1.56699,-7.77713 7.20416,-8.63697 8.46501,-8.75187 h 0.23055 c 0.21165,0 6.99364,0.11338 8.7326,8.75187 0,0 5.46482,19.52882 11.59861,27.78369 8.52246,11.46482 17.50337,15.28668 31.77752,15.28668 24.66897,0 30.57335,-3.11471 37.10853,-8.57991 11.063435,-9.28668 10.891467,-46.41411 12.955467,-47.21688 l 1.413921,-0.45846 a 1.089178,1.089178 0 0 0 0.630425,-0.99364 l -0.230551,-12.32504 z m -124.204352,43.9491 c -3.64989,8.59881 -12.99363,19.66262 -26.17852,20.33159 -39.55426,1.91055 -41.36957,-9.05763 -43.94948,-17.80913 a 60.095872,60.095872 0 0 1 -2.31193,-25.18488 c 1.03181,-8.7515 3.2485,-13.89166 7.22305,-16.47156 a 17.770798,17.770798 0 0 1 8.31194,-2.88529 162.55503,162.55503 0 0 1 21.78368,-0.99364 113.17896,113.17896 0 0 1 17.59862,1.33757 c 14.0829,2.29304 23.59899,7.07037 23.59899,11.77096 a 88.127872,88.127872 0 0 1 -6.17197,29.88548 z m 110.8286,2.52246 c -2.56063,8.7515 -4.37593,19.79641 -43.94948,17.80913 -13.20378,-0.66897 -22.5668,-11.73278 -26.19741,-20.33159 a 88.567363,88.567363 0 0 1 -6.15308,-29.88548 c 0,-6.47773 18.01928,-13.10816 41.19799,-13.10816 23.17833,0 26.7515,1.71969 30.09562,3.82148 3.97455,2.57991 6.19087,7.64334 7.20378,16.47156 a 59.675487,59.675487 0 0 1 -2.21669,25.16561 z"
       style="fill:#1a1a1a;fill-rule:evenodd;stroke:none;stroke-width:0.477192px;stroke-miterlimit:2.61313"
       id="path153"
       class="eyes" />
    <path
       class="eyes"
       inkscape:connector-curvature="0"
       id="path155"
       d="m -141.09759,795.71084 c -24.33714,0 -43.25481,6.96076 -43.25481,13.7624 a 92.99573,92.99573 0 0 0 6.45808,31.38104 c 3.81241,9.02891 13.64561,20.64302 27.50967,21.34526 41.55213,2.08668 43.45814,-9.50703 46.14652,-18.69619 l -0.0378,-0.0642 a 62.659261,62.659261 0 0 0 2.32781,-26.42381 c -1.06356,-9.2693 -3.39364,-14.58445 -7.56699,-17.29323 -3.51119,-2.20687 -7.26312,-4.01273 -31.60064,-4.01273 z"
       style="fill:#1a1a1a;fill-rule:evenodd;stroke:none;stroke-width:0.501056px;stroke-miterlimit:2.61313" />
    <path
       class="eyes"
       inkscape:connector-curvature="0"
       id="path157"
       d="m -256.35656,795.65377 a 170.68278,170.68278 0 0 0 -18.62966,1.0817 18.659338,18.659338 0 0 0 -8.73071,3.0293 c -4.17336,2.70841 -6.49928,8.10368 -7.58287,17.29322 a 63.100665,63.100665 0 0 0 2.42986,26.44725 c 2.70841,9.18916 4.61442,20.70274 46.14652,18.69619 13.84403,-0.70224 23.65379,-12.31673 27.48586,-21.34526 l -0.10205,-0.0378 a 92.534265,92.534265 0 0 0 6.48151,-31.38104 c 0,-4.93568 -9.99118,-9.95187 -24.7782,-12.35981 a 118.83791,118.83791 0 0 0 -18.48038,-1.40258 170.68278,170.68278 0 0 0 -4.24025,-0.0378 z"
       style="fill:#1a1a1a;fill-rule:evenodd;stroke:none;stroke-width:0.501056px;stroke-miterlimit:2.61313" />
  </g>
  <path
     d="m 1600.0946,139.64502 -9.211,22.5098 -7.375,31.0313 0.86,10.0703 -2.102,-2.8281 -7.301,-32.8282 -7.642,4.7207 -15.649,23.4258 0.649,16.5684 -12.994,-10.0528 -35.293,-0.9746 -17.942,8.9063 18.916,7.2597 19.549,22.127 1.91,6.0586 -2.672,-1.2207 0.192,0.1699 14.172,25.4102 c 0.711,-0.8916 1.421,-1.7824 2.162,-2.6524 l 6.611,0.9942 5.389,-13.3575 a 125.351,125.351 0 0 1 13.637,-10.5859 l 16.421,15.9746 2.426,-11.6172 2.772,-15.8418 c 2.694,-1.1085 5.464,-2.1198 8.273,-3.0371 l -6.783,-5.5996 28.223,23.2539 20.177,-19.5859 8.485,4.8926 21.994,-3.0567 13.375,20.1973 20.16,-17.1973 -8.006,6.916 c 1.204,0.6879 2.407,1.3951 3.572,2.1211 l -12.019,24.0957 26.752,-13.375 -4.891,17.1973 16.756,-6.8145 22.561,-41.832 -1.731,-0.1777 -22.816,8.9433 5.179,-19.6621 -6.171,-39.6308 -9.555,-15.1719 -0.651,4.9492 -4.794,21.1328 -12.499,12.211 -15.076,5.2929 -0.324,0.1914 -3.154,-6.8027 -2.561,-30.707 4.797,-18.4961 -11.789,2.3125 -24.459,22.4511 -7.586,16.3575 -18.096,-14.9239 -6.726,-15.5156 -0.65,-14.1973 z m 123.543,123.295 -0.771,0.3164 a 74.84754,74.84754 0 0 1 0.383,0.4062 z"
     style="fill:#0000ff;fill-rule:evenodd;stroke-width:1.91084"
     id="path179"
     inkscape:connector-curvature="0" />
  <path
     d="m 1600.0947,139.64502 -9.211,22.5098 -7.375,31.0313 0.86,10.0703 -2.102,-2.8281 -7.301,-32.8282 -7.642,4.7207 -15.649,23.4258 0.649,16.5684 -1.541,-1.1934 15.16,33.2871 a 125.351,125.351 0 0 1 0.02,-0.012 l 16.421,15.9746 2.426,-11.6172 2.772,-15.8418 c 2.694,-1.1085 5.464,-2.1198 8.273,-3.0371 l -6.783,-5.5996 28.223,23.2539 20.177,-19.5859 8.485,4.8926 21.994,-3.0567 13.375,20.1973 12.342,-10.5293 10.91,-30.2305 -2.518,-24.2168 -8.887,8.6817 -15.076,5.2929 -0.324,0.1934 -3.154,-6.8027 -2.561,-30.7071 4.797,-18.4961 -11.789,2.3125 -24.459,22.4512 -7.586,16.3574 -18.098,-14.9238 -6.724,-15.5156 -0.651,-14.1973 z m 93.528,99.9258 -0.145,0.125 c 0.03,0.016 0.06,0.033 0.08,0.049 z"
     style="fill:#d35f5f;fill-rule:evenodd;stroke-width:1.91084"
     id="path191"
     inkscape:connector-curvature="0" />
  <path
     class="env"
     inkscape:connector-curvature="0"
     id="path201"
     style="fill:#484848;fill-rule:evenodd"
     d="m -727.50911,0 a 115.5,115.5 0 1 1 -115.5,115.5 115.5,115.5 0 0 1 115.5,-115.5 z" />
  <path
     inkscape:connector-curvature="0"
     id="path203"
     style="fill:#8a8a8a;fill-rule:evenodd"
     d="m -738.00911,166.5 h 21 v 26 a 116.53,116.53 0 0 1 15.75,2.5 l 13.12,22.72 a 109.85,109.85 0 0 1 -78.74,0 l 13.12,-22.72 a 116.6,116.6 0 0 1 15.75,-2.53 v -26 z" />
  <path
     inkscape:connector-curvature="0"
     id="path205"
     style="fill:#8a8a8a;fill-rule:evenodd"
     d="m -727.50911,51.75 a 63.75,63.75 0 1 1 -63.75,63.75 63.75,63.75 0 0 1 63.75,-63.75 z" />
  <path
     class="mouth"
     inkscape:connector-curvature="0"
     id="path207"
     style="fill:#191919;fill-rule:evenodd"
     d="m -724.43911,165.14 a 8.66,8.66 0 0 0 -2.76,-4.23 h -0.62 a 8,8 0 0 0 -2.76,4.22 c -0.52,1.89 2.07,10.61 2.76,12.53 h 0.62 c 0.64,-1.76 3.19,-10.82 2.76,-12.52 z" />
  <path
     class="mouth"
     inkscape:connector-curvature="0"
     id="path209"
     style="fill:#191919;fill-rule:evenodd"
     d="m -740.19911,152.24 a 2.4920724,2.4920724 0 1 1 1.19,-4.84 l 0.21,0.06 a 37.1,37.1 0 0 0 5.43,1.12 44.52,44.52 0 0 0 11.76,0 37.1,37.1 0 0 0 5.43,-1.12 2.4903062,2.4903062 0 0 1 1.59,4.72 l -0.21,0.06 a 43.08,43.08 0 0 1 -6.15,1.29 48.55,48.55 0 0 1 -13.08,0 42.79,42.79 0 0 1 -6.17,-1.29 z" />
  <path
     class="clothes"
     inkscape:connector-curvature="0"
     id="path211"
     style="fill:#e9e9e9;fill-rule:evenodd"
     d="m -727.00911,203.13 c -0.12,0 -0.25,0.12 -0.49,0.12 -0.24,0 -0.25,-0.12 -0.49,-0.12 z m -27.29,-8 c 0.87,-0.25 1.72,-0.47 2.56,-0.69 a 32.37,32.37 0 0 0 0.3,8.57 21.5,21.5 0 0 0 7,6.88 c 6.41,-6 16.8,-6.64 16.8,-6.64 0,0 10.5,0.58 17,6.69 a 21.61,21.61 0 0 0 6.93,-6.66 32.34,32.34 0 0 0 0.35,-8.84 l 2.13,0.56 v 0 a 114.79,114.79 0 0 1 38,16.5 115.53,115.53 0 0 1 -128.46,0 114.64,114.64 0 0 1 37.38,-16.37 z" />
  <path
     class="clothes"
     inkscape:connector-curvature="0"
     id="path213"
     style="fill:#818181;fill-rule:evenodd"
     d="m -716.85911,206 -3.92,7.83 h -13.46 l -3.92,-7.83 a 36.59,36.59 0 0 1 10.65,-2.7 35.66,35.66 0 0 1 10.65,2.7 z" />
  <path
     class="clothes"
     inkscape:connector-curvature="0"
     id="path215"
     style="fill:#989898;fill-rule:evenodd"
     d="m -718.46911,230.65 -2.18,-16.74 h -13.47 l -2.19,16.76 c 2.9,0.22 5.84,0.33 8.8,0.33 2.96,0 6.06,-0.12 9,-0.35 z" />
  <path
     class="clothes"
     inkscape:connector-curvature="0"
     id="path217"
     style="fill:#ffffff;fill-rule:evenodd"
     d="m -708.16911,186 c 0,0 0.86,9.8 -19.34,17.26 0,0 15.79,0.86 20.57,11.76 0.12,0.49 9.3,-23.26 -1.23,-29 z" />
  <path
     class="clothes"
     inkscape:connector-curvature="0"
     id="path219"
     style="fill:#ffffff;fill-rule:evenodd"
     d="m -746.84911,186 c -10.41,5.76 -1.35,29.39 -1.1,29 4.65,-10.78 20.56,-11.76 20.56,-11.76 -20.32,-7.45 -19.46,-17.24 -19.46,-17.24 z" />
  <path
     class="top"
     inkscape:connector-curvature="0"
     id="path221"
     style="fill:#f9f9f9;fill-rule:evenodd"
     d="m -658.93911,110.14 12.25,-12.14 6.37,-18.14 -1.6,-0.61 -5.61,5.19 -9.65,4.92 5.17,-11.19 4.53,-18.75 -1.85,-4 -3.52,5.58 -3.35,4.58 -6.29,5.1 -6.47,5 3.14,-13.41 3.81,-5.51 6.46,-5.16 -13.9,-1.43 -11.94,4.68 2.71,-10.29 -3.23,-20.74 -5,-7.94 -0.34,2.59 -2.51,11.06 -6.54,6.39 -7.89,2.77 -0.17,0.1 -1.65,-3.56 -1.34,-16.07 2.51,-9.68 -6.17,1.21 -12.8,11.75 -3.97,8.56 -9.47,-7.81 -3.52,-8.12 -0.34,-7.43 h -3.9 l -4.82,11.78 -3.86,16.24 0.45,5.27 -1.1,-1.48 -3.82,-17.18 -4,2.47 -8.19,12.26 0.34,8.67 -6.8,-5.26 -18.47,-0.51 -9.39,4.66 9.9,3.8 10.23,11.58 1,3.17 -5.8,-2.65 h -5.2 l -4.86,-6.22 h -3.5 l 1.5,13.13 4.39,7.63 -11.26,4.12 -6.21,5.36 1.18,2.24 11.57,-0.86 4.14,2.9 -8.61,8 -3.38,9.33 V 108 l 10.17,-4.8 9,1.79 4.15,-7 -0.46,-6.21 c 0.44,-1.09 0.9,-2.16 1.4,-3.22 l -1.58,0.79 7.67,-3.85 v -7.28 c 0.94,-1.29 1.91,-2.54 2.94,-3.75 l 3.46,0.52 2.82,-6.99 a 65.6,65.6 0 0 1 7.18,-5.57 l -3.6,-3.43 12.15,11.82 1.27,-6.08 1.45,-8.29 c 1.41,-0.58 2.86,-1.11 4.33,-1.59 l -3.55,-2.93 14.77,12.17 10.56,-10.25 4.44,2.56 11.51,-1.6 7,10.57 10.55,-9 -4.19,3.62 c 0.63,0.36 1.26,0.73 1.87,1.11 l -6.29,12.61 14,-7 v 0 l -2.56,9 11.83,-4.81 -3.47,1.42 a 39.17,39.17 0 0 1 2.75,3.23 l 0.68,-4.65 -2.13,15.29 9,0.81 c 0.49,1 1,2 1.4,3 l 0.16,-2.84 -0.63,11.2 4.07,2.41 q 0.63,2.67 1,5.42 l -1.83,3.48 7.33,0.47 z" />
  <path
     class="eyes"
     inkscape:connector-curvature="0"
     id="path223"
     style="fill-rule:evenodd"
     d="m -704.70911,99.62 a 4.25,4.25 0 1 0 4.26,4.25 4.25,4.25 0 0 0 -4.26,-4.25 z" />
  <path
     class="eyes"
     inkscape:connector-curvature="0"
     id="path225"
     style="fill-rule:evenodd"
     d="m -750.30911,99.62 a 4.25,4.25 0 1 0 4.3,4.25 4.25,4.25 0 0 0 -4.3,-4.25 z" />
  <path
     class="eyes"
     inkscape:connector-curvature="0"
     id="path227"
     style="fill:none;stroke:#000000;stroke-width:3.00472px;stroke-linecap:round;stroke-linejoin:round"
     d="m -731.61911,103.09 a 5.39,5.39 0 0 1 7.6,-0.61 c 0.14,0.12 0.27,0.25 0.4,0.38 m 47.53,-10 h -17.87 m -74.16,0 h -10.8 m 59.85,0 h 32.13 a 4,4 0 0 1 4,4 v 14 a 4,4 0 0 1 -4,4 h -32.13 a 4,4 0 0 1 -4,-4 v -14 a 4,4 0 0 1 4,-4 z m -49,0 h 32.13 a 4,4 0 0 1 4,4 v 14 a 4,4 0 0 1 -4,4 h -32.14 a 4,4 0 0 1 -4,-4 v -14 a 4,4 0 0 1 4,-4 z" />
  <path
     inkscape:connector-curvature="0"
     id="path229"
     d="m 1552.3236,212.31424 13.72,32.02545 3.9267,30.70692 95.4344,-12.23517 23.2712,-13.47316 4.8818,-9.59346 11.02,-30.5278 -2.518,-24.2168 -15.1211,-72.92607 -105.2225,-4.64936 -32.3009,23.00212 -17.1292,38.17373 z"
     style="fill:none;stroke:#000000;stroke-width:1px;stroke-linecap:butt;stroke-linejoin:miter;stroke-opacity:1" />
  <path
     inkscape:connector-curvature="0"
     id="path231"
     d="m 1538.1616,269.99862 -11.692,-24.3594 -26.0519,-22.25565 -28.3772,-7.61338 14.3616,-19.37952 26.4739,-5.53701 11.9391,-2.24941 19.2065,13.15039 8.3021,10.56038 13.7199,32.02467 -13.3704,37.35547 -11.4201,-4.67185 z"
     style="fill:none;stroke:#000000;stroke-width:1px;stroke-linecap:butt;stroke-linejoin:miter;stroke-opacity:1" />
  <path
     inkscape:connector-curvature="0"
     id="path233"
     d="m 1693.6677,239.44752 10.91,-30.2305 -2.518,-24.2168 3.4763,-39.64641 30.3432,13.45869 21.2892,49.91949 -12.6908,12.17873 -21.611,42.3457 -4.1166,12.769 -16.6398,5.87288 c 0,0 -11.2564,-4.89406 -13.9481,-4.40466 -2.6918,0.48941 -7.8305,1.71293 -9.2988,0.48941 -1.4682,-1.22352 11.3787,-28.26324 11.3787,-28.26324 z"
     style="fill:none;stroke:#000000;stroke-width:1px;stroke-linecap:butt;stroke-linejoin:miter;stroke-opacity:1" />
  <path
     class="env"
     inkscape:connector-curvature="0"
     id="path235"
     style="fill:#484848;fill-rule:evenodd;stroke-width:1.91084"
     d="M 1633.5343,726.03609 A 220.70184,220.70184 0 1 1 1412.8326,946.73782 220.70184,220.70184 0 0 1 1633.5343,726.03609 Z" />
  <path
     inkscape:connector-curvature="0"
     id="path237"
     style="fill:#8a8a8a;fill-rule:evenodd;stroke-width:1.91084"
     d="m 1613.4707,1044.1907 h 40.1276 v 49.6819 a 222.67001,222.67001 0 0 1 30.0956,4.7769 l 25.0704,43.4143 a 209.90561,209.90561 0 0 1 -150.4596,0 l 25.0704,-43.4143 a 222.80377,222.80377 0 0 1 30.0956,-4.8344 v -49.6819 z" />
  <path
     inkscape:connector-curvature="0"
     id="path239"
     style="fill:#8a8a8a;fill-rule:evenodd;stroke-width:1.91084"
     d="M 1633.5343,824.92214 A 121.81595,121.81595 0 1 1 1511.7186,946.73782 121.81595,121.81595 0 0 1 1633.5343,824.92214 Z" />
  <path
     class="mouth"
     inkscape:connector-curvature="0"
     id="path241"
     style="fill:#191919;fill-rule:evenodd;stroke-width:1.91084"
     d="m 1639.4005,1041.5919 a 16.547861,16.547861 0 0 0 -5.2736,-8.0829 h -1.1849 a 15.286708,15.286708 0 0 0 -5.2739,8.064 c -0.9936,3.6113 3.9556,20.2737 5.2739,23.9425 h 1.1849 c 1.2227,-3.363 6.0953,-20.6751 5.2736,-23.9236 z" />
  <path
     class="mouth"
     inkscape:connector-curvature="0"
     id="path243"
     style="fill:#191919;fill-rule:evenodd;stroke-width:1.91084"
     d="m 1609.286,1016.9422 a 4.7619542,4.7619542 0 1 1 2.2737,-9.2485 l 0.4014,0.1134 a 70.892108,70.892108 0 0 0 10.376,2.1403 85.070529,85.070529 0 0 0 22.4711,0 70.892108,70.892108 0 0 0 10.376,-2.1403 4.758739,4.758739 0 0 1 3.0383,9.0194 l -0.4013,0.1134 a 82.318924,82.318924 0 0 1 -11.7517,2.465 92.771207,92.771207 0 0 1 -24.9937,0 81.764777,81.764777 0 0 1 -11.7898,-2.465 z" />
  <path
     class="clothes"
     inkscape:connector-curvature="0"
     id="path245"
     style="fill:#e9e9e9;fill-rule:evenodd;stroke-width:1.91084"
     d="m 1634.4898,1114.1849 c -0.2306,0 -0.4778,0.2305 -0.9362,0.2305 -0.4589,0 -0.4778,-0.2305 -0.9362,-0.2305 z m -52.1469,-15.2871 c 1.6626,-0.4773 3.2866,-0.898 4.8918,-1.3183 a 61.85384,61.85384 0 0 0 0.5734,16.3759 41.083027,41.083027 0 0 0 13.3757,13.1464 c 12.2487,-11.4648 32.1022,-12.6879 32.1022,-12.6879 0,0 20.064,1.1085 32.4843,12.7835 a 41.293221,41.293221 0 0 0 13.2419,-12.726 61.796516,61.796516 0 0 0 0.669,-16.8919 l 4.0702,1.07 v 0 a 219.34515,219.34515 0 0 1 72.6119,31.5288 220.75917,220.75917 0 0 1 -245.4664,0 219.05852,219.05852 0 0 1 71.4271,-31.2805 z" />
  <path
     class="clothes"
     inkscape:connector-curvature="0"
     id="path247"
     style="fill:#818181;fill-rule:evenodd;stroke-width:1.91084"
     d="m 1653.8848,1119.669 -7.4903,14.9616 h -25.72 l -7.4907,-14.9616 a 69.917579,69.917579 0 0 1 20.3505,-5.1595 68.140502,68.140502 0 0 1 20.3505,5.1595 z" />
  <path
     class="clothes"
     inkscape:connector-curvature="0"
     id="path249"
     style="fill:#989898;fill-rule:evenodd;stroke-width:1.91084"
     d="m 1650.8082,1166.7709 -4.1654,-31.9872 h -25.7389 l -4.1847,32.0254 c 5.5411,0.4203 11.159,0.6308 16.8151,0.6308 5.6561,0 11.5797,-0.2305 17.1976,-0.669 z" />
  <path
     class="clothes"
     inkscape:connector-curvature="0"
     id="path251"
     style="fill:#ffffff;fill-rule:evenodd;stroke-width:1.91084"
     d="m 1670.4901,1081.4519 c 0,0 1.6434,18.7264 -36.9558,32.9813 0,0 30.1723,1.6433 39.3059,22.4715 0.2306,0.9362 17.771,-44.446 -2.3501,-55.4146 z" />
  <path
     class="clothes"
     inkscape:connector-curvature="0"
     id="path253"
     style="fill:#ffffff;fill-rule:evenodd;stroke-width:1.91084"
     d="m 1596.5788,1081.4519 c -19.892,11.0068 -2.5795,56.1596 -2.1018,55.4143 8.8853,-20.5988 39.2867,-22.4712 39.2867,-22.4712 -38.8282,-14.2359 -37.1849,-32.9431 -37.1849,-32.9431 z" />
  <path
     inkscape:connector-curvature="0"
     d="m 1688.119,918.36113 a 9.4395421,9.4395421 0 1 0 9.4394,9.43937 9.4395421,9.4395421 0 0 0 -9.4394,-9.43937 z"
     style="fill-rule:evenodd;stroke-width:1.91084"
     id="path259"
     class="eyes" />
  <path
     inkscape:connector-curvature="0"
     d="m 1578.7807,918.36113 a 9.4395421,9.4395421 0 1 0 9.4204,9.55427 v 0 a 9.5541922,9.5541922 0 0 0 -9.4204,-9.55427 z"
     style="fill-rule:evenodd;stroke-width:1.91084"
     id="path261"
     class="eyes" />
  <path
     inkscape:connector-curvature="0"
     d="m 1737.4184,899.00428 a 0.97452765,0.97452765 0 0 0 -0.8406,-0.99364 320.33296,320.33296 0 0 0 -43.1852,-3.21033 c -22.9301,0 -52.4905,7.18488 -57.6499,7.18488 h -4.5861 c -2.3883,0 -10.1084,-1.54771 -19.968,-3.21033 a 237.61277,237.61277 0 0 0 -37.6819,-3.97455 317.54314,317.54314 0 0 0 -36.8984,2.36939 c -2.9809,0.34394 -5.1401,0.66897 -6.2865,0.84094 a 0.97452765,0.97452765 0 0 0 -0.8409,0.99364 l -0.1739,12.32504 a 1.089178,1.089178 0 0 0 0.6308,0.99364 l 1.4139,0.45845 c 2.0637,0.8024 1.911,37.93021 12.9555,47.21689 6.5734,5.46482 12.4396,8.57952 37.1085,8.57952 14.2738,0 23.2551,-3.82148 31.7772,-15.28667 6.1338,-8.25487 11.656,-27.80259 11.656,-27.80259 1.567,-7.77713 7.2042,-8.63697 8.465,-8.75187 h 0.2306 c 0.2117,0 6.9936,0.11339 8.7326,8.75187 0,0 5.4648,19.52882 11.5986,27.78369 8.5225,11.46482 17.5034,15.28668 31.7775,15.28668 24.669,0 30.5734,-3.11471 37.1086,-8.57991 11.0634,-9.28668 10.8914,-46.41411 12.9554,-47.21688 l 1.4139,-0.45846 a 1.089178,1.089178 0 0 0 0.6305,-0.99364 l -0.2306,-12.32503 z m -124.2044,43.9491 c -3.6498,8.59881 -12.9936,19.66262 -26.1785,20.33159 -39.5542,1.91056 -41.3696,-9.05763 -43.9495,-17.80913 a 60.095872,60.095872 0 0 1 -2.3119,-25.18488 c 1.0318,-8.7515 3.2485,-13.89166 7.2231,-16.47156 a 17.770798,17.770798 0 0 1 8.3119,-2.88529 162.55503,162.55503 0 0 1 21.7837,-0.99364 113.17896,113.17896 0 0 1 17.5986,1.33757 c 14.0829,2.29304 23.599,7.07037 23.599,11.77097 a 88.127872,88.127872 0 0 1 -6.172,29.88548 z m 110.8286,2.52246 c -2.5606,8.7515 -4.3759,19.79641 -43.9494,17.80913 -13.2038,-0.66897 -22.5668,-11.73278 -26.1975,-20.33159 a 88.567363,88.567363 0 0 1 -6.153,-29.88548 c 0,-6.47773 18.0193,-13.10815 41.198,-13.10815 23.1783,0 26.7515,1.71968 30.0956,3.82148 3.9745,2.5799 6.1908,7.64333 7.2038,16.47156 a 59.675487,59.675487 0 0 1 -2.2167,25.1656 z"
     style="fill:#1a1a1a;fill-rule:evenodd;stroke:none;stroke-width:0.477192px;stroke-miterlimit:2.61313"
     id="path263"
     class="eyes" />
  <g
     id="g275"
     transform="translate(1830.1215,102.66101)">
    <path
       class="eyes"
       id="path265"
       style="fill-rule:evenodd;stroke-width:1.91084"
       d="m -142.00279,815.70001 a 9.4395421,9.4395421 0 1 0 9.43937,9.43937 9.4395421,9.4395421 0 0 0 -9.43937,-9.43937 z"
       inkscape:connector-curvature="0" />
    <path
       class="eyes"
       id="path267"
       style="fill-rule:evenodd;stroke-width:1.91084"
       d="m -251.34112,815.70001 a 9.4395421,9.4395421 0 1 0 9.42047,9.55427 v 0 a 9.5541922,9.5541922 0 0 0 -9.42047,-9.55427 z"
       inkscape:connector-curvature="0" />
    <path
       class="eyes"
       id="path269"
       style="fill:#1a1a1a;fill-rule:evenodd;stroke:none;stroke-width:0.477192px;stroke-miterlimit:2.61313"
       d="m -92.703388,796.34316 a 0.97452765,0.97452765 0 0 0 -0.840567,-0.99364 320.33296,320.33296 0 0 0 -43.185265,-3.21033 c -22.93001,0 -52.49045,7.18488 -57.64989,7.18488 h -4.58607 c -2.38829,0 -10.10835,-1.54771 -19.968,-3.21033 a 237.61277,237.61277 0 0 0 -37.68189,-3.97455 317.54314,317.54314 0 0 0 -36.8984,2.36939 c -2.98091,0.34393 -5.14016,0.66897 -6.28649,0.84094 a 0.97452765,0.97452765 0 0 0 -0.84094,0.99364 l -0.17386,12.32504 a 1.089178,1.089178 0 0 0 0.6308,0.99364 l 1.41392,0.45845 c 2.06363,0.8024 1.91093,37.93021 12.95547,47.21689 6.57335,5.46481 12.43956,8.57952 37.10853,8.57952 14.27377,0 23.25506,-3.82148 31.77714,-15.28667 6.13379,-8.25487 11.65606,-27.80259 11.65606,-27.80259 1.56699,-7.77713 7.20416,-8.63697 8.46501,-8.75187 h 0.23055 c 0.21165,0 6.99364,0.11338 8.7326,8.75187 0,0 5.46482,19.52882 11.59861,27.78369 8.52246,11.46482 17.50337,15.28668 31.77752,15.28668 24.66897,0 30.57335,-3.11471 37.10853,-8.57991 11.063435,-9.28668 10.891467,-46.41411 12.955467,-47.21688 l 1.413921,-0.45846 a 1.089178,1.089178 0 0 0 0.630425,-0.99364 l -0.230551,-12.32504 z m -124.204352,43.9491 c -3.64989,8.59881 -12.99363,19.66262 -26.17852,20.33159 -39.55426,1.91055 -41.36957,-9.05763 -43.94948,-17.80913 a 60.095872,60.095872 0 0 1 -2.31193,-25.18488 c 1.03181,-8.7515 3.2485,-13.89166 7.22305,-16.47156 a 17.770798,17.770798 0 0 1 8.31194,-2.88529 162.55503,162.55503 0 0 1 21.78368,-0.99364 113.17896,113.17896 0 0 1 17.59862,1.33757 c 14.0829,2.29304 23.59899,7.07037 23.59899,11.77096 a 88.127872,88.127872 0 0 1 -6.17197,29.88548 z m 110.8286,2.52246 c -2.56063,8.7515 -4.37593,19.79641 -43.94948,17.80913 -13.20378,-0.66897 -22.5668,-11.73278 -26.19741,-20.33159 a 88.567363,88.567363 0 0 1 -6.15308,-29.88548 c 0,-6.47773 18.01928,-13.10816 41.19799,-13.10816 23.17833,0 26.7515,1.71969 30.09562,3.82148 3.97455,2.57991 6.19087,7.64334 7.20378,16.47156 a 59.675487,59.675487 0 0 1 -2.21669,25.16561 z"
       inkscape:connector-curvature="0" />
    <path
       style="fill:#1a1a1a;fill-rule:evenodd;stroke:none;stroke-width:0.501056px;stroke-miterlimit:2.61313"
       d="m -141.09759,795.71084 c -24.33714,0 -43.25481,6.96076 -43.25481,13.7624 a 92.99573,92.99573 0 0 0 6.45808,31.38104 c 3.81241,9.02891 13.64561,20.64302 27.50967,21.34526 41.55213,2.08668 43.45814,-9.50703 46.14652,-18.69619 l -0.0378,-0.0642 a 62.659261,62.659261 0 0 0 2.32781,-26.42381 c -1.06356,-9.2693 -3.39364,-14.58445 -7.56699,-17.29323 -3.51119,-2.20687 -7.26312,-4.01273 -31.60064,-4.01273 z"
       id="path271"
       inkscape:connector-curvature="0"
       class="eyes" />
    <path
       style="fill:#1a1a1a;fill-rule:evenodd;stroke:none;stroke-width:0.501056px;stroke-miterlimit:2.61313"
       d="m -256.35656,795.65377 a 170.68278,170.68278 0 0 0 -18.62966,1.0817 18.659338,18.659338 0 0 0 -8.73071,3.0293 c -4.17336,2.70841 -6.49928,8.10368 -7.58287,17.29322 a 63.100665,63.100665 0 0 0 2.42986,26.44725 c 2.70841,9.18916 4.61442,20.70274 46.14652,18.69619 13.84403,-0.70224 23.65379,-12.31673 27.48586,-21.34526 l -0.10205,-0.0378 a 92.534265,92.534265 0 0 0 6.48151,-31.38104 c 0,-4.93568 -9.99118,-9.95187 -24.7782,-12.35981 a 118.83791,118.83791 0 0 0 -18.48038,-1.40258 170.68278,170.68278 0 0 0 -4.24025,-0.0378 z"
       id="path273"
       inkscape:connector-curvature="0"
       class="eyes" />
  </g>
  <path
     sodipodi:nodetypes="cccccccccccccccccccccccccccccccccccccc"
     inkscape:connector-curvature="0"
     d="m 1711.1152,756.38086 -0.6504,4.94922 -4.7968,21.13281 -3.6075,3.52539 v 0.004 l 2.5176,24.21679 -10.9101,30.23047 c 7.3289,0.12731 -9.8629,-1.02061 -0.1016,0.30274 1.1736,0.67139 2.3482,1.35874 3.4843,2.0664 l -12.0195,24.09571 26.752,-13.375 -4.8926,17.19726 15.9883,-6.5 21.5996,-42.32422 -22.8164,8.94336 5.1777,-19.66211 -6.1719,-39.63086 z m -207.0781,45.89844 -17.9434,8.90625 18.918,7.25976 19.5469,22.12696 1.9121,6.05859 h -0 l 11.6934,24.35937 c 0.711,-0.89154 1.4217,-1.78241 2.1621,-2.65234 l 6.6113,0.99414 5.3887,-13.35742 c 4.2962,-3.83776 8.852,-7.37479 13.6347,-10.58594 l 0.047,0.0469 0.037,-0.10352 -13.7187,-32.02539 -12.9942,-10.05273 z m 218.8281,61.96875 0,0.002 v -0.002 z"
     style="fill:#552200;stroke:none;stroke-width:1px;stroke-linecap:butt;stroke-linejoin:miter;stroke-opacity:1"
     id="path283" />
  <path
     sodipodi:nodetypes="ccccccccccccccccccccccccccccccccccccccccc"
     inkscape:connector-curvature="0"
     d="m 1600.0937,740.63672 -9.2089,22.50976 -7.377,31.03125 0.8613,10.07032 -2.1035,-2.82813 -7.2988,-32.82812 -7.6426,4.7207 -15.6504,23.42578 0.6504,16.56836 13.7188,32.02539 0.02,0.1582 16.3183,15.87305 2.4278,-11.61719 2.7695,-15.84179 c 2.6945,-1.10853 8.2754,-3.03907 8.2754,-3.03907 0,0 16.9391,13.94822 21.4394,17.65625 l 20.1778,-19.58593 8.4843,4.89257 21.9942,-3.05664 13.375,20.19727 12.3398,-10.52734 10.9141,-30.23243 -2.5176,-24.21679 v -0.004 l -8.8887,8.68555 -15.0761,5.29297 -0.3262,0.1914 -3.1523,-6.80273 -2.5606,-30.70703 4.7969,-18.4961 -11.791,2.3125 -24.4571,22.45118 -7.5879,16.35742 -18.0957,-14.92383 -6.7246,-15.51563 -0.6504,-14.19726 z m 93.5274,99.92578 -0.1445,0.125 c 0.028,0.0158 0.054,0.033 0.082,0.0488 z"
     style="fill:#800000;stroke:none;stroke-width:1px;stroke-linecap:butt;stroke-linejoin:miter;stroke-opacity:1"
     id="path281" />
  <path
     inkscape:connector-curvature="0"
     id="path316"
     d="m 1562.4492,847.83203 c -0.9209,0.66494 -1.8242,1.35335 -2.7265,2.04297 0.9023,-0.68969 1.8056,-1.37796 2.7265,-2.04297 z"
     style="fill:#f9f9f9;fill-rule:evenodd;stroke-width:1.91084" />
  <path
     inkscape:connector-curvature="0"
     d="m 1744.4785,821.90234 -21.5976,42.31836 c 6.1571,-2.50786 9.5956,-3.90566 -0.016,0.0274 1.8618,1.9609 3.6171,4.02114 5.2559,6.17187 3.6664,-25.49982 -2.156,15.91354 -2.7715,20.33203 l 17.1973,1.54688 c 0.9366,1.91055 1.9116,3.82149 2.6758,5.73242 l 0.3066,-5.42578 -1.2051,21.40039 7.7774,4.60547 c 0.8025,3.40107 1.4406,6.85405 1.9121,10.35742 l -3.4981,6.65039 14.0078,0.89648 0.037,-0.0195 23.4082,-23.19726 12.1719,-34.66406 -3.0566,-1.16407 -10.7207,9.91602 -18.4395,9.40234 9.8789,-21.38281 8.6563,-35.82813 -3.5352,-7.64257 -6.7265,10.66211 -6.4004,8.75195 -12.0196,9.74414 -12.3632,9.55469 6,-25.625 7.2812,-10.52735 12.3438,-9.86132 z m -255.0019,7.7793 2.8652,25.08984 8.3887,14.57813 -21.5157,7.87305 -11.8652,10.24218 2.2539,4.28125 22.1094,-1.64453 7.9101,5.54102 -16.4531,15.28711 -6.457,17.82812 v 3.65039 l 19.4316,-9.17187 17.1973,3.41992 7.9316,-13.375 -0.8789,-11.86719 c 0.8405,-2.0829 1.7184,-4.12689 2.6739,-6.15234 l -3.0176,1.50976 14.6543,-7.35742 v -13.91015 c 1.1205,-1.53764 2.2781,-3.03546 3.457,-4.51368 l -11.6934,-24.35937 -11.082,-5.06445 h -9.9355 l -9.2871,-11.88477 z"
     style="fill:#d35f5f;fill-rule:evenodd;stroke-width:1.91084"
     id="path314" />
  <g
     id="g413">
    <path
       class="env"
       inkscape:connector-curvature="0"
       id="path319"
       style="fill:#484848;fill-rule:evenodd;stroke-width:1.91084"
       d="M 576.33254,726.03609 A 115.5,115.5 0 1 1 460.83261,841.53603 115.5,115.5 0 0 1 576.33254,726.03609 Z" />
    <path
       inkscape:connector-curvature="0"
       id="path321"
       style="fill:#8a8a8a;fill-rule:evenodd;stroke-width:1.91084"
       d="m 565.83264,892.53609 h 21 v 26.00005 a 116.53,116.53 0 0 1 15.74995,2.4999 l 13.1201,22.72003 a 109.85,109.85 0 0 1 -78.7401,0 l 13.12011,-22.72003 a 116.6,116.6 0 0 1 15.74994,-2.52999 V 892.506 Z" />
    <path
       inkscape:connector-curvature="0"
       id="path323"
       style="fill:#8a8a8a;fill-rule:evenodd;stroke-width:1.91084"
       d="m 576.33254,777.78617 a 63.75,63.75 0 1 1 -63.74987,63.74986 63.75,63.75 0 0 1 63.74987,-63.74986 z" />
    <path
       class="mouth"
       inkscape:connector-curvature="0"
       id="path325"
       style="fill:#191919;fill-rule:evenodd;stroke-width:1.91084"
       d="m 579.4025,891.17606 a 8.66,8.66 0 0 0 -2.75984,-4.23003 h -0.62009 a 8.0000002,8.0000002 0 0 0 -2.75999,4.22014 c -0.51998,1.8899 2.07008,10.60984 2.75999,12.52984 h 0.62009 c 0.63988,-1.75996 3.18986,-10.81991 2.75984,-12.51995 z" />
    <path
       class="mouth"
       inkscape:connector-curvature="0"
       id="path327"
       style="fill:#191919;fill-rule:evenodd;stroke-width:1.91084"
       d="m 563.64266,878.27612 a 2.4920758,2.4920758 0 1 1 1.1899,-4.84002 l 0.21006,0.0593 a 37.100001,37.100001 0 0 0 5.43008,1.12009 44.520001,44.520001 0 0 0 11.75981,0 37.100001,37.100001 0 0 0 5.43008,-1.12009 2.4903932,2.4903932 0 0 1 1.59004,4.72013 l -0.21002,0.0593 a 43.080002,43.080002 0 0 1 -6.15002,1.29001 48.55,48.55 0 0 1 -13.07997,0 42.79,42.79 0 0 1 -6.16996,-1.29001 z" />
    <path
       class="clothes"
       inkscape:connector-curvature="0"
       id="path329"
       style="fill:#e9e9e9;fill-rule:evenodd;stroke-width:1.91084"
       d="m 576.83258,929.16619 c -0.12068,0 -0.25005,0.12063 -0.48994,0.12063 -0.24016,0 -0.25005,-0.12063 -0.48994,-0.12063 z m -27.29006,-8.00021 c 0.87009,-0.24978 1.71998,-0.46995 2.56003,-0.6899 a 32.37,32.37 0 0 0 0.30007,8.57 21.5,21.5 0 0 0 6.99991,6.87992 c 6.41012,-5.99988 16.80006,-6.63997 16.80006,-6.63997 0,0 10.50011,0.58011 17.00003,6.69 a 21.610001,21.610001 0 0 0 6.92989,-6.65991 32.34,32.34 0 0 0 0.35011,-8.84004 l 2.13006,0.55996 v 0 a 114.79,114.79 0 0 1 38.00002,16.49998 115.53,115.53 0 0 1 -128.46005,0 114.64,114.64 0 0 1 37.37998,-16.37004 z" />
    <path
       class="clothes"
       inkscape:connector-curvature="0"
       id="path331"
       style="fill:#818181;fill-rule:evenodd;stroke-width:1.91084"
       d="m 586.98257,932.03619 -3.9199,7.82986 h -13.46006 l -3.92011,-7.82986 a 36.59,36.59 0 0 1 10.65004,-2.70013 35.660002,35.660002 0 0 1 10.65003,2.70013 z" />
    <path
       class="clothes"
       inkscape:connector-curvature="0"
       id="path333"
       style="fill:#989898;fill-rule:evenodd;stroke-width:1.91084"
       d="m 585.3725,956.68605 -2.17988,-16.73988 h -13.46996 l -2.18998,16.75987 c 2.89983,0.21995 5.83985,0.33011 8.79986,0.33011 2.96001,0 6.06001,-0.12062 9.00003,-0.3501 z" />
    <path
       class="clothes"
       inkscape:connector-curvature="0"
       id="path335"
       style="fill:#ffffff;fill-rule:evenodd;stroke-width:1.91084"
       d="m 595.67263,912.03601 c 0,0 0.86005,9.8001 -19.34009,17.26012 0,0 15.79008,0.85999 20.56997,11.76002 0.12068,0.48994 9.30011,-23.25994 -1.22988,-29.00015 z" />
    <path
       class="clothes"
       inkscape:connector-curvature="0"
       id="path337"
       style="fill:#ffffff;fill-rule:evenodd;stroke-width:1.91084"
       d="m 556.9926,912.03601 c -10.41009,5.7602 -1.34993,29.39003 -1.09994,28.99999 4.64995,-10.77998 20.55993,-11.75986 20.55993,-11.75986 -20.31998,-7.45008 -19.45999,-17.24013 -19.45999,-17.24013 z" />
    <path
       inkscape:connector-curvature="0"
       d="m 604.89837,826.68564 a 4.9400001,4.9400001 0 1 0 4.93993,4.93991 4.9400001,4.9400001 0 0 0 -4.93993,-4.93991 z"
       style="fill-rule:evenodd;stroke-width:1.91084"
       id="path339"
       class="eyes" />
    <path
       inkscape:connector-curvature="0"
       d="m 547.67831,826.68564 a 4.9400001,4.9400001 0 1 0 4.92998,5.00004 v 0 a 5,5 0 0 0 -4.92998,-5.00004 z"
       style="fill-rule:evenodd;stroke-width:1.91084"
       id="path341"
       class="eyes" />
    <path
       inkscape:connector-curvature="0"
       d="m 630.69825,816.55561 a 0.51000002,0.51000002 0 0 0 -0.43991,-0.52 167.64,167.64 0 0 0 -22.60013,-1.68006 c -12.00002,0 -27.46988,3.76006 -30.16995,3.76006 h -2.40005 c -1.24987,0 -5.29003,-0.80996 -10.44986,-1.68006 a 124.35,124.35 0 0 0 -19.72009,-2.08 166.18,166.18 0 0 0 -19.31005,1.23997 c -1.56,0.17999 -2.68997,0.35009 -3.28992,0.44009 a 0.51000002,0.51000002 0 0 0 -0.44007,0.52 l -0.091,6.45007 a 0.57000005,0.57000005 0 0 0 0.33012,0.52 l 0.73994,0.23992 c 1.08,0.41992 1.00008,19.85004 6.78001,24.71004 3.44006,2.85991 6.51002,4.48993 19.42001,4.48993 7.46991,0 12.1701,-1.9999 16.62997,-7.99998 3.21001,-4.32003 6.09994,-14.54995 6.09994,-14.54995 0.82006,-4.07001 3.77018,-4.51999 4.43,-4.58012 h 0.12068 c 0.11078,0 3.65996,0.0593 4.57003,4.58012 0,0 2.8599,10.22003 6.0699,14.54005 4.46009,5.99989 9.16006,7.99999 16.63014,7.99999 12.91004,0 15.99999,-1.63002 19.42006,-4.49013 5.78981,-4.86 5.6998,-24.28992 6.77995,-24.71003 l 0.73994,-0.23993 a 0.57000005,0.57000005 0 0 0 0.32996,-0.52 l -0.12068,-6.45006 z m -64.99994,22.9999 c -1.91006,4.50002 -6.79995,10.29005 -13.70001,10.64015 -20.69992,0.99985 -21.64997,-4.74014 -23.00011,-9.32006 a 31.450002,31.450002 0 0 1 -1.20989,-13.18002 c 0.53997,-4.57993 1.70004,-7.26993 3.78007,-8.62007 a 9.3000002,9.3000002 0 0 1 4.34987,-1.50996 85.070002,85.070002 0 0 1 11.40007,-0.52 59.229999,59.229999 0 0 1 9.20988,0.69999 c 7.37002,1.20002 12.35008,3.70014 12.35008,6.16011 a 46.120002,46.120002 0 0 1 -3.23,15.63998 z m 57.99998,1.32009 c -1.34004,4.57992 -2.29004,10.36006 -23.00006,9.32006 -6.90995,-0.3501 -11.8099,-6.14013 -13.70995,-10.64015 a 46.350001,46.350001 0 0 1 -3.22005,-15.63998 c 0,-3.38999 9.43005,-6.85989 21.56017,-6.85989 12.12991,0 13.99987,0.89996 15.74994,1.99989 2.07998,1.35015 3.23983,3.99999 3.76997,8.62007 a 31.230001,31.230001 0 0 1 -1.16007,13.16993 z"
       style="fill:#1a1a1a;fill-rule:evenodd;stroke:none;stroke-width:0.477192px;stroke-miterlimit:2.61313"
       id="path343"
       class="eyes" />
    <g
       id="g355"
       transform="matrix(0.52333048,0,0,0.52333048,679.21261,399.80491)"
       style="stroke-width:1.91084">
      <path
         class="eyes"
         id="path345"
         style="fill-rule:evenodd;stroke-width:3.65131"
         d="m -142.00279,815.70001 a 9.4395421,9.4395421 0 1 0 9.43937,9.43937 9.4395421,9.4395421 0 0 0 -9.43937,-9.43937 z"
         inkscape:connector-curvature="0" />
      <path
         class="eyes"
         id="path347"
         style="fill-rule:evenodd;stroke-width:3.65131"
         d="m -251.34112,815.70001 a 9.4395421,9.4395421 0 1 0 9.42047,9.55427 v 0 a 9.5541922,9.5541922 0 0 0 -9.42047,-9.55427 z"
         inkscape:connector-curvature="0" />
      <path
         class="eyes"
         id="path349"
         style="fill:#1a1a1a;fill-rule:evenodd;stroke:none;stroke-width:0.911837px;stroke-miterlimit:2.61313"
         d="m -92.703388,796.34316 a 0.97452765,0.97452765 0 0 0 -0.840567,-0.99364 320.33296,320.33296 0 0 0 -43.185265,-3.21033 c -22.93001,0 -52.49045,7.18488 -57.64989,7.18488 h -4.58607 c -2.38829,0 -10.10835,-1.54771 -19.968,-3.21033 a 237.61277,237.61277 0 0 0 -37.68189,-3.97455 317.54314,317.54314 0 0 0 -36.8984,2.36939 c -2.98091,0.34393 -5.14016,0.66897 -6.28649,0.84094 a 0.97452765,0.97452765 0 0 0 -0.84094,0.99364 l -0.17386,12.32504 a 1.089178,1.089178 0 0 0 0.6308,0.99364 l 1.41392,0.45845 c 2.06363,0.8024 1.91093,37.93021 12.95547,47.21689 6.57335,5.46481 12.43956,8.57952 37.10853,8.57952 14.27377,0 23.25506,-3.82148 31.77714,-15.28667 6.13379,-8.25487 11.65606,-27.80259 11.65606,-27.80259 1.56699,-7.77713 7.20416,-8.63697 8.46501,-8.75187 h 0.23055 c 0.21165,0 6.99364,0.11338 8.7326,8.75187 0,0 5.46482,19.52882 11.59861,27.78369 8.52246,11.46482 17.50337,15.28668 31.77752,15.28668 24.66897,0 30.57335,-3.11471 37.10853,-8.57991 11.063435,-9.28668 10.891467,-46.41411 12.955467,-47.21688 l 1.413921,-0.45846 a 1.089178,1.089178 0 0 0 0.630425,-0.99364 l -0.230551,-12.32504 z m -124.204352,43.9491 c -3.64989,8.59881 -12.99363,19.66262 -26.17852,20.33159 -39.55426,1.91055 -41.36957,-9.05763 -43.94948,-17.80913 a 60.095872,60.095872 0 0 1 -2.31193,-25.18488 c 1.03181,-8.7515 3.2485,-13.89166 7.22305,-16.47156 a 17.770798,17.770798 0 0 1 8.31194,-2.88529 162.55503,162.55503 0 0 1 21.78368,-0.99364 113.17896,113.17896 0 0 1 17.59862,1.33757 c 14.0829,2.29304 23.59899,7.07037 23.59899,11.77096 a 88.127872,88.127872 0 0 1 -6.17197,29.88548 z m 110.8286,2.52246 c -2.56063,8.7515 -4.37593,19.79641 -43.94948,17.80913 -13.20378,-0.66897 -22.5668,-11.73278 -26.19741,-20.33159 a 88.567363,88.567363 0 0 1 -6.15308,-29.88548 c 0,-6.47773 18.01928,-13.10816 41.19799,-13.10816 23.17833,0 26.7515,1.71969 30.09562,3.82148 3.97455,2.57991 6.19087,7.64334 7.20378,16.47156 a 59.675487,59.675487 0 0 1 -2.21669,25.16561 z"
         inkscape:connector-curvature="0" />
      <path
         style="fill:#1a1a1a;fill-rule:evenodd;stroke:none;stroke-width:0.957437px;stroke-miterlimit:2.61313"
         d="m -141.09759,795.71084 c -24.33714,0 -43.25481,6.96076 -43.25481,13.7624 a 92.99573,92.99573 0 0 0 6.45808,31.38104 c 3.81241,9.02891 13.64561,20.64302 27.50967,21.34526 41.55213,2.08668 43.45814,-9.50703 46.14652,-18.69619 l -0.0378,-0.0642 a 62.659261,62.659261 0 0 0 2.32781,-26.42381 c -1.06356,-9.2693 -3.39364,-14.58445 -7.56699,-17.29323 -3.51119,-2.20687 -7.26312,-4.01273 -31.60064,-4.01273 z"
         id="path351"
         inkscape:connector-curvature="0"
         class="eyes" />
      <path
         style="fill:#1a1a1a;fill-rule:evenodd;stroke:none;stroke-width:0.957437px;stroke-miterlimit:2.61313"
         d="m -256.35656,795.65377 a 170.68278,170.68278 0 0 0 -18.62966,1.0817 18.659338,18.659338 0 0 0 -8.73071,3.0293 c -4.17336,2.70841 -6.49928,8.10368 -7.58287,17.29322 a 63.100665,63.100665 0 0 0 2.42986,26.44725 c 2.70841,9.18916 4.61442,20.70274 46.14652,18.69619 13.84403,-0.70224 23.65379,-12.31673 27.48586,-21.34526 l -0.10205,-0.0378 a 92.534265,92.534265 0 0 0 6.48151,-31.38104 c 0,-4.93568 -9.99118,-9.95187 -24.7782,-12.35981 a 118.83791,118.83791 0 0 0 -18.48038,-1.40258 170.68278,170.68278 0 0 0 -4.24025,-0.0378 z"
         id="path353"
         inkscape:connector-curvature="0"
         class="eyes" />
    </g>
    <path
       sodipodi:nodetypes="cccccccccccccccccccccccccccccccccccccc"
       inkscape:connector-curvature="0"
       d="m 616.93299,741.91643 -0.34038,2.59008 -2.51031,11.05944 -1.88791,1.84494 v 0.002 l 1.31753,12.67338 -5.70958,15.82053 c 3.83543,0.0666 -5.16156,-0.53412 -0.0532,0.15843 0.61418,0.35136 1.22888,0.71107 1.82344,1.08141 l -6.29018,12.61002 14.00014,-6.99954 -2.56044,8.99985 8.36716,-3.40165 11.30373,-22.14956 -11.94052,4.68034 2.70965,-10.28979 -3.22994,-20.74003 z m -108.37028,24.02005 -9.39033,4.66091 9.90036,3.79926 10.22949,11.57971 1.00066,3.17064 v 0 l 6.11952,12.74801 c 0.37208,-0.46657 0.74401,-0.93279 1.13149,-1.38806 l 3.45989,0.52027 2.82007,-6.99035 c 2.24834,-2.00841 4.63253,-3.85945 7.13546,-5.53994 l 0.0246,0.0245 0.0194,-0.0542 -7.17942,-16.75987 -6.80026,-5.2609 z m 114.51941,32.43014 v 10e-4 z"
       style="fill:#f2f2f2;stroke:none;stroke-width:1px;stroke-linecap:butt;stroke-linejoin:miter;stroke-opacity:1"
       id="path357"
       class="top" />
    <path
       sodipodi:nodetypes="ccccccccccccccccccccccccccccccccccccccccc"
       inkscape:connector-curvature="0"
       d="m 558.83205,733.67704 -4.8193,11.78004 -3.8606,16.2396 0.45074,5.27011 -1.10083,-1.48005 -3.81968,-17.17995 -3.99961,2.47048 -8.19033,12.25943 0.34038,8.67072 7.17946,16.75987 0.0105,0.0828 8.53986,8.30685 1.27055,-6.07963 1.44936,-8.29049 c 1.41011,-0.58013 4.33077,-1.59044 4.33077,-1.59044 0,0 8.86475,7.29953 11.21989,9.24005 l 10.55966,-10.24991 4.44009,2.56043 11.51024,-1.59963 6.99954,10.56984 6.45779,-5.50927 5.71169,-15.82156 -1.31754,-12.67338 v -0.002 l -4.65173,4.54541 -7.88978,2.76997 -0.17071,0.10017 -1.6497,-3.56008 -1.34004,-16.06992 2.51037,-9.67958 -6.17059,1.21021 -12.79915,11.74938 -3.97098,8.56034 -9.47003,-7.8101 -3.51919,-8.1198 -0.34037,-7.42986 z m 48.94574,52.29421 -0.0756,0.0654 c 0.0146,0.008 0.0283,0.0173 0.0429,0.0255 z"
       style="fill:#f2f2f2;stroke:none;stroke-width:1px;stroke-linecap:butt;stroke-linejoin:miter;stroke-opacity:1"
       id="path359"
       class="top" />
    <path
       inkscape:connector-curvature="0"
       id="path361"
       d="m 539.13154,789.77561 c -0.48194,0.34799 -0.95466,0.70825 -1.42686,1.06915 0.4722,-0.36093 0.94492,-0.72113 1.42686,-1.06915 z"
       style="fill:#f9f9f9;fill-rule:evenodd;stroke-width:1.91084" />
    <path
       inkscape:connector-curvature="0"
       d="m 634.39302,776.20582 -11.30268,22.14648 c 3.22219,-1.31244 5.02167,-2.04395 -0.008,0.0143 0.97434,1.0262 1.89294,2.10439 2.75058,3.22993 1.91873,-13.34483 -1.1283,8.32804 -1.45041,10.64037 l 8.99987,0.80953 c 0.49015,0.99985 1.0004,1.9999 1.40032,2.99995 l 0.16046,-2.83947 -0.63067,11.19947 4.07015,2.41018 c 0.41998,1.77989 0.75391,3.58694 1.00066,5.42036 l -1.83066,3.48035 7.33071,0.46916 0.0194,-0.0102 12.25023,-12.13983 6.36992,-18.14076 -1.59961,-0.6092 -5.61047,5.18936 -9.64995,4.92053 5.16993,-11.19028 4.5301,-18.74995 -1.85007,-3.99959 -3.52019,5.57981 -3.34952,4.58016 -6.29022,5.09941 -6.47004,5.00026 3.13998,-13.41035 3.81047,-5.50928 6.45989,-5.16073 z m -133.45027,4.07114 1.49945,13.13028 4.39006,7.62918 -11.25982,4.12021 -6.20942,5.36004 1.17953,2.24051 11.57053,-0.86063 4.13959,2.89978 -8.61041,8.00021 -3.37914,9.33 v 1.91036 l 10.16915,-4.79992 8.99987,1.78975 4.15085,-6.99955 -0.45996,-6.21046 c 0.43986,-1.09004 0.89929,-2.15972 1.39934,-3.2197 l -1.57921,0.7901 7.66904,-3.85036 v -7.27961 c 0.5864,-0.80469 1.1922,-1.58855 1.80916,-2.36214 l -6.11951,-12.74801 -5.79955,-2.65038 h -5.19955 l -4.86023,-6.21966 z"
       style="fill:#f2f2f2;fill-rule:evenodd;stroke-width:1.91084"
       id="path363"
       class="top" />
  </g>
  <path
     class="env"
     inkscape:connector-curvature="0"
     id="path4-1"
     style="fill:#484848;fill-rule:evenodd"
     d="M 115.5,-1.9e-4 A 115.5,115.5 0 1 1 0,115.49981 115.5,115.5 0 0 1 115.5,-1.9e-4 Z" />
  <path
     inkscape:connector-curvature="0"
     id="path6"
     style="fill:#8a8a8a;fill-rule:evenodd"
     d="m 105,166.49981 h 21 v 26 a 116.53,116.53 0 0 1 15.75,2.5 l 13.12,22.72 a 109.85,109.85 0 0 1 -78.74,0 l 13.12,-22.72 a 116.6,116.6 0 0 1 15.75,-2.53 v -26 z" />
  <path
     inkscape:connector-curvature="0"
     id="path8"
     style="fill:#8a8a8a;fill-rule:evenodd"
     d="m 115.5,51.74981 a 63.75,63.75 0 1 1 -63.75,63.75 63.75,63.75 0 0 1 63.75,-63.75 z" />
  <path
     class="clothes"
     inkscape:connector-curvature="0"
     id="path14"
     style="fill:#e9e9e9;fill-rule:evenodd"
     d="m 116,203.12981 c -0.12,0 -0.25,0.12 -0.49,0.12 -0.24,0 -0.25,-0.12 -0.49,-0.12 z m -27.29,-8 c 0.87,-0.25 1.72,-0.47 2.56,-0.69 a 32.37,32.37 0 0 0 0.3,8.57 21.5,21.5 0 0 0 7,6.88 c 6.41,-6 16.8,-6.64 16.8,-6.64 0,0 10.5,0.58 17,6.69 a 21.61,21.61 0 0 0 6.93,-6.66 32.34,32.34 0 0 0 0.35,-8.84 l 2.13,0.56 v 0 a 114.79,114.79 0 0 1 38,16.5 115.53,115.53 0 0 1 -128.46,0 114.64,114.64 0 0 1 37.38,-16.37 z" />
  <path
     class="clothes"
     inkscape:connector-curvature="0"
     id="path16"
     style="fill:#818181;fill-rule:evenodd"
     d="m 126.15,205.99981 -3.92,7.83 h -13.46 l -3.92,-7.83 a 36.59,36.59 0 0 1 10.65,-2.7 35.66,35.66 0 0 1 10.65,2.7 z" />
  <path
     class="clothes"
     inkscape:connector-curvature="0"
     id="path18"
     style="fill:#989898;fill-rule:evenodd"
     d="m 124.54,230.64981 -2.18,-16.74 h -13.47 l -2.19,16.76 c 2.9,0.22 5.84,0.33 8.8,0.33 2.96,0 6.06,-0.12 9,-0.35 z" />
  <path
     class="clothes"
     inkscape:connector-curvature="0"
     id="path20"
     style="fill:#ffffff;fill-rule:evenodd"
     d="m 134.84,185.99981 c 0,0 0.86,9.8 -19.34,17.26 0,0 15.79,0.86 20.57,11.76 0.12,0.49 9.3,-23.26 -1.23,-29 z" />
  <path
     class="clothes"
     inkscape:connector-curvature="0"
     id="path22"
     style="fill:#ffffff;fill-rule:evenodd"
     d="m 96.16,185.99981 c -10.41,5.76 -1.35,29.39 -1.1,29 4.65,-10.78 20.56,-11.76 20.56,-11.76 -20.32,-7.45 -19.46,-17.24 -19.46,-17.24 z" />
  <path
     class="mouth"
     id="path164"
     style="fill:#333333"
     d="m 118.57,165.13981 a 8.66,8.66 0 0 0 -2.76,-4.23 h -0.62 a 8,8 0 0 0 -2.76,4.22 c -0.52,1.89 2.07,10.61 2.76,12.53 h 0.62 c 0.64,-1.76 3.19,-10.82 2.76,-12.52 z"
     inkscape:connector-curvature="0" />
  <path
     class="mouth"
     id="path166"
     style="fill:#333333"
     d="m 102.81,152.23981 a 2.4920724,2.4920724 0 1 1 1.19,-4.84 l 0.21,0.06 a 37.1,37.1 0 0 0 5.43,1.12 44.52,44.52 0 0 0 11.76,0 37.1,37.1 0 0 0 5.43,-1.12 2.4903062,2.4903062 0 0 1 1.59,4.72 l -0.21,0.06 a 43.08,43.08 0 0 1 -6.15,1.29 48.55,48.55 0 0 1 -13.08,0 42.79,42.79 0 0 1 -6.17,-1.29 z"
     inkscape:connector-curvature="0" />
  <path
     d="m -260.5,-1.9e-4 a 115.5,115.5 0 1 1 -115.5,115.5 115.5,115.5 0 0 1 115.5,-115.5 z"
     style="fill:#484848;fill-rule:evenodd"
     id="path248"
     inkscape:connector-curvature="0"
     class="env" />
  <path
     d="m -271,166.49981 h 21 v 26 a 116.53,116.53 0 0 1 15.75,2.5 l 13.12,22.72 a 109.85,109.85 0 0 1 -78.74,0 l 13.12,-22.72 a 116.6,116.6 0 0 1 15.75,-2.53 v -26 z"
     style="fill:#8a8a8a;fill-rule:evenodd"
     id="path250"
     inkscape:connector-curvature="0" />
  <path
     d="m -260.5,51.74981 a 63.75,63.75 0 1 1 -63.75,63.75 63.75,63.75 0 0 1 63.75,-63.75 z"
     style="fill:#8a8a8a;fill-rule:evenodd"
     id="path252"
     inkscape:connector-curvature="0" />
  <path
     d="m -260,203.12981 c -0.12,0 -0.25,0.12 -0.49,0.12 -0.24,0 -0.25,-0.12 -0.49,-0.12 z m -27.29,-8 c 0.87,-0.25 1.72,-0.47 2.56,-0.69 a 32.37,32.37 0 0 0 0.3,8.57 21.5,21.5 0 0 0 7,6.88 c 6.41,-6 16.8,-6.64 16.8,-6.64 0,0 10.5,0.58 17,6.69 a 21.61,21.61 0 0 0 6.93,-6.66 32.34,32.34 0 0 0 0.35,-8.84 l 2.13,0.56 v 0 a 114.79,114.79 0 0 1 38,16.5 115.53,115.53 0 0 1 -128.46,0 114.64,114.64 0 0 1 37.38,-16.37 z"
     style="fill:#e9e9e9;fill-rule:evenodd"
     id="path254"
     inkscape:connector-curvature="0"
     class="clothes" />
  <path
     d="m -249.85,205.99981 -3.92,7.83 h -13.46 l -3.92,-7.83 a 36.59,36.59 0 0 1 10.65,-2.7 35.66,35.66 0 0 1 10.65,2.7 z"
     style="fill:#818181;fill-rule:evenodd"
     id="path256"
     inkscape:connector-curvature="0"
     class="clothes" />
  <path
     d="m -251.46,230.64981 -2.18,-16.74 h -13.47 l -2.19,16.76 c 2.9,0.22 5.84,0.33 8.8,0.33 2.96,0 6.06,-0.12 9,-0.35 z"
     style="fill:#989898;fill-rule:evenodd"
     id="path258"
     inkscape:connector-curvature="0"
     class="clothes" />
  <path
     d="m -241.16,185.99981 c 0,0 0.86,9.8 -19.34,17.26 0,0 15.79,0.86 20.57,11.76 0.12,0.49 9.3,-23.26 -1.23,-29 z"
     style="fill:#ffffff;fill-rule:evenodd"
     id="path260"
     inkscape:connector-curvature="0"
     class="clothes" />
  <path
     d="m -279.84,185.99981 c -10.41,5.76 -1.35,29.39 -1.1,29 4.65,-10.78 20.56,-11.76 20.56,-11.76 -20.32,-7.45 -19.46,-17.24 -19.46,-17.24 z"
     style="fill:#ffffff;fill-rule:evenodd"
     id="path262"
     inkscape:connector-curvature="0"
     class="clothes" />
  <path
     inkscape:connector-curvature="0"
     id="path264"
     style="fill:#333333;fill-rule:evenodd;stroke-width:1.91084"
     d="m -289.15429,100.6502 a 4.9400001,4.9400001 0 1 0 4.92968,5 5,5 0 0 0 -4.92968,-5 z m 57.2207,0 a 4.9400001,4.9400001 0 1 0 4.93945,4.93945 4.9400001,4.9400001 0 0 0 -4.93945,-4.93945 z"
     class="eyes" />
  <path
     inkscape:connector-curvature="0"
     d="m -206.13436,90.51933 a 0.51000002,0.51000002 0 0 0 -0.43991,-0.52 167.64,167.64 0 0 0 -22.60013,-1.68006 c -12.00002,0 -27.46988,3.76006 -30.16995,3.76006 h -2.40005 c -1.24987,0 -5.29003,-0.80996 -10.44986,-1.68006 a 124.35,124.35 0 0 0 -19.72009,-2.08 166.18,166.18 0 0 0 -19.31005,1.23997 c -1.56,0.17999 -2.68997,0.35009 -3.28992,0.44009 a 0.51000002,0.51000002 0 0 0 -0.44007,0.52 l -0.091,6.45007 a 0.57000005,0.57000005 0 0 0 0.33012,0.52 l 0.73994,0.23992 c 1.08,0.41992 1.00008,19.85004 6.78001,24.71004 3.44006,2.85991 6.51002,4.48993 19.42001,4.48993 7.46991,0 12.1701,-1.9999 16.62997,-7.99998 3.21001,-4.32003 6.09994,-14.54995 6.09994,-14.54995 0.82006,-4.07001 3.77018,-4.51999 4.43,-4.58012 h 0.12068 c 0.11078,0 3.65996,0.0593 4.57003,4.58012 0,0 2.8599,10.22003 6.0699,14.54005 4.46009,5.99989 9.16006,7.99999 16.63014,7.99999 12.91004,0 15.99999,-1.63002 19.42006,-4.49013 5.78981,-4.86 5.6998,-24.28992 6.77995,-24.71003 l 0.73994,-0.23993 a 0.57000005,0.57000005 0 0 0 0.32996,-0.52 l -0.12068,-6.45006 z m -64.99994,22.9999 c -1.91006,4.50002 -6.79995,10.29005 -13.70001,10.64015 -20.69992,0.99985 -21.64997,-4.74014 -23.00011,-9.32006 a 31.450002,31.450002 0 0 1 -1.20989,-13.18002 c 0.53997,-4.57993 1.70004,-7.26993 3.78007,-8.62007 a 9.3000002,9.3000002 0 0 1 4.34987,-1.50996 85.070002,85.070002 0 0 1 11.40007,-0.52 59.229999,59.229999 0 0 1 9.20988,0.69999 c 7.37002,1.20002 12.35008,3.70014 12.35008,6.16011 a 46.120002,46.120002 0 0 1 -3.23,15.63998 z m 57.99998,1.32009 c -1.34004,4.57992 -2.29004,10.36006 -23.00006,9.32006 -6.90995,-0.3501 -11.8099,-6.14013 -13.70995,-10.64015 a 46.350001,46.350001 0 0 1 -3.22005,-15.63998 c 0,-3.38999 9.43005,-6.85989 21.56017,-6.85989 12.12991,0 13.99987,0.89996 15.74994,1.99989 2.07998,1.35015 3.23983,3.99999 3.76997,8.62007 a 31.230001,31.230001 0 0 1 -1.16007,13.16993 z"
     style="fill:#333333;fill-rule:evenodd;stroke:none;stroke-width:0.477192px;stroke-miterlimit:2.61313"
     id="path266"
     class="eyes" />
  <path
     inkscape:connector-curvature="0"
     class="eyes"
     d="m -289.1543,100.64844 a 4.9400001,4.9400001 0 1 0 4.92969,5 5,5 0 0 0 -4.92969,-5 z m 57.22071,0 a 4.9400001,4.9400001 0 1 0 4.93945,4.9414 4.9400001,4.9400001 0 0 0 -4.93945,-4.9414 z"
     style="fill:#333333;fill-rule:evenodd;stroke-width:1.91084"
     id="path268" />
  <path
     inkscape:connector-curvature="0"
     d="m -206.13451,90.519278 a 0.51000002,0.51000002 0 0 0 -0.43989,-0.520002 167.64,167.64 0 0 0 -22.60017,-1.680063 c -11.99997,0 -27.46985,3.760066 -30.16994,3.760066 h -2.40003 c -1.24987,0 -5.29001,-0.809964 -10.44987,-1.680063 a 124.35,124.35 0 0 0 -19.72007,-2.080003 166.18,166.18 0 0 0 -19.31006,1.239974 c -1.56,0.179989 -2.69,0.350092 -3.28991,0.440089 a 0.51000002,0.51000002 0 0 0 -0.44009,0.520002 l -0.091,6.450069 a 0.57000005,0.57000005 0 0 0 0.33011,0.520002 l 0.73995,0.239921 c 1.07996,0.419921 1.00005,19.85004 6.77999,24.71004 3.44004,2.8599 6.51,4.48992 19.42003,4.48992 7.4699,0 12.17008,-1.99989 16.62994,-7.99998 3.21,-4.32002 6.09998,-14.54994 6.09998,-14.54994 0.82005,-4.07001 3.77015,-4.519991 4.42999,-4.580121 h 0.12066 c 0.11076,0 3.65998,0.05934 4.57003,4.580121 0,0 2.85991,10.22003 6.06991,14.54005 4.46006,5.99989 9.16005,7.99999 16.63014,7.99999 12.91003,0 15.99997,-1.63003 19.42003,-4.49013 5.78983,-4.86 5.69984,-24.28992 6.77999,-24.710034 l 0.73995,-0.239926 a 0.57000005,0.57000005 0 0 0 0.32992,-0.520003 l -0.12066,-6.450069 z m -64.99992,22.999902 c -1.9101,4.50002 -6.79996,10.29005 -13.70002,10.64014 -20.69995,0.99985 -21.64995,-4.74013 -23.0001,-9.32006 a 31.450002,31.450002 0 0 1 -1.2099,-13.18001 c 0.53998,-4.57993 1.70004,-7.269932 3.78004,-8.620073 a 9.3000002,9.3000002 0 0 1 4.34989,-1.50996 85.070002,85.070002 0 0 1 11.40007,-0.520002 59.229999,59.229999 0 0 1 9.20989,0.699991 c 7.37001,1.200018 12.35007,3.70014 12.35007,6.160102 a 46.120002,46.120002 0 0 1 -3.22998,15.639982 z m 57.99998,1.32008 c -1.34005,4.57993 -2.29005,10.36007 -23.0001,9.32006 -6.90994,-0.35009 -11.80989,-6.14012 -13.7099,-10.64014 a 46.350001,46.350001 0 0 1 -3.2201,-15.639981 c 0,-3.389993 9.43004,-6.859899 21.56017,-6.859899 12.12992,0 13.99987,0.899966 15.74995,1.999896 2.08001,1.350146 3.23987,3.999993 3.76996,8.620074 a 31.230001,31.230001 0 0 1 -1.16006,13.16993 z"
     style="fill:#333333"
     id="path270"
     class="eyes" />
  <path
     inkscape:connector-curvature="0"
     d="m -291.7793,90.150391 v 0.0078 a 89.323501,89.323501 0 0 0 -9.75,0.566406 9.7650003,9.7650003 0 0 0 -4.56835,1.585938 c -2.18405,1.417393 -3.40167,4.239662 -3.96875,9.048833 a 33.022501,33.022501 0 0 0 1.27148,13.84179 c 1.41739,4.80897 2.41538,10.83329 24.15039,9.78321 7.245,-0.36751 12.37933,-6.44502 14.38476,-11.16993 l -0.0547,-0.0195 a 48.426001,48.426001 0 0 0 3.39257,-16.423826 c 0,-2.582991 -5.2283,-5.206648 -12.96679,-6.466797 a 62.1915,62.1915 0 0 0 -9.67188,-0.734375 89.323501,89.323501 0 0 0 -2.21875,-0.01953 z m 60.3086,0.03711 c -12.7316,0.0019 -22.62696,3.644543 -22.62696,7.203125 a 48.6675,48.6675 0 0 0 3.38086,16.421875 c 1.99515,4.72511 7.141,10.80437 14.39649,11.17188 21.7455,1.09202 22.74152,-4.97619 24.14843,-9.78516 l -0.0195,-0.0332 a 32.791501,32.791501 0 0 0 1.21875,-13.82813 c -0.55659,-4.850906 -1.77688,-7.633194 -3.96093,-9.050781 -1.83699,-1.154594 -3.80053,-2.099072 -16.52735,-2.099609 z"
     style="fill:#333333"
     id="path272" />
  <path
     inkscape:connector-curvature="0"
     d="m -219.89962,15.88015 -0.34038,2.59008 -2.51031,11.05944 -1.88791,1.84494 v 0.002 l 1.31753,12.67338 -5.70958,15.82053 c 3.83543,0.0666 -5.16156,-0.53412 -0.0532,0.15843 0.61418,0.35136 1.22888,0.71107 1.82344,1.08141 l -6.29018,12.61002 14.00014,-6.99954 -2.56044,8.99985 8.36716,-3.40165 11.30373,-22.14956 -11.94052,4.68034 2.70965,-10.28979 -3.22994,-20.74003 z m -108.37028,24.02005 -9.39033,4.66091 9.90036,3.79926 10.22949,11.57971 1.00066,3.17064 v 0 l 6.11952,12.74801 c 0.37208,-0.46657 0.74401,-0.93279 1.13149,-1.38806 l 3.45989,0.52027 2.82007,-6.99035 c 2.24834,-2.00841 4.63253,-3.85945 7.13546,-5.53994 l 0.0246,0.0245 0.0194,-0.0542 -7.17942,-16.75987 -6.80026,-5.2609 z m 114.51941,32.43014 v 10e-4 z"
     style="fill:#f2f2f2"
     id="path274"
     class="top" />
  <path
     inkscape:connector-curvature="0"
     d="m -278.00056,7.6407598 -4.8193,11.7800402 -3.8606,16.2396 0.45074,5.27011 -1.10083,-1.48005 -3.81968,-17.17995 -3.99961,2.47048 -8.19033,12.25943 0.34038,8.67072 7.17946,16.75987 0.0105,0.0828 8.53986,8.30685 1.27055,-6.07963 1.44936,-8.29049 c 1.41011,-0.58013 4.33077,-1.59044 4.33077,-1.59044 0,0 8.86475,7.29953 11.21989,9.24005 l 10.55966,-10.24991 4.44009,2.56043 11.51024,-1.59963 6.99954,10.56984 6.45779,-5.50927 5.71169,-15.82156 -1.31754,-12.67338 v -0.002 l -4.65173,4.54541 -7.88978,2.76997 -0.17071,0.10017 -1.6497,-3.56008 -1.34004,-16.06992 2.51037,-9.6795802 -6.17059,1.2102102 -12.79915,11.74938 -3.97098,8.56034 -9.47003,-7.8101 -3.51919,-8.1198 -0.34037,-7.4298602 z m 48.94574,52.2942102 -0.0756,0.0654 c 0.0146,0.008 0.0283,0.0173 0.0429,0.0255 z"
     style="fill:#f2f2f2"
     id="path276"
     class="top" />
  <path
     inkscape:connector-curvature="0"
     id="path278"
     d="m -297.70107,63.73933 c -0.48194,0.34799 -0.95466,0.70825 -1.42686,1.06915 0.4722,-0.36093 0.94492,-0.72113 1.42686,-1.06915 z"
     style="fill:#f9f9f9;fill-rule:evenodd;stroke-width:1.91084" />
  <path
     inkscape:connector-curvature="0"
     d="m -202.43959,50.16954 -11.30268,22.14648 c 3.22219,-1.31244 5.02167,-2.04395 -0.008,0.0143 0.97434,1.0262 1.89294,2.10439 2.75058,3.22993 1.91873,-13.34483 -1.1283,8.32804 -1.45041,10.64037 l 8.99987,0.80953 c 0.49015,0.99985 1.0004,1.9999 1.40032,2.99995 l 0.16046,-2.83947 -0.63067,11.19947 4.07015,2.41018 c 0.41998,1.77989 0.75391,3.58694 1.00066,5.42036 l -1.83066,3.48035 7.33071,0.46916 0.0194,-0.0102 12.25023,-12.13983 6.36992,-18.14076 -1.59961,-0.6092 -5.61047,5.18936 -9.64995,4.92053 5.16993,-11.19028 4.5301,-18.74995 -1.85007,-3.99959 -3.52019,5.57981 -3.34952,4.58016 -6.29022,5.09941 -6.47004,5.00026 3.13998,-13.41035 3.81047,-5.50928 6.45989,-5.16073 z m -133.45027,4.07114 1.49945,13.13028 4.39006,7.62918 -11.25982,4.12021 -6.20942,5.36004 1.17953,2.24051 11.57053,-0.86063 4.13959,2.89978 -8.61041,8.00021 -3.37914,9.33 v 1.91036 l 10.16915,-4.79992 8.99987,1.78975 4.15085,-6.99955 -0.45996,-6.21046 c 0.43986,-1.09004 0.89929,-2.15972 1.39934,-3.2197 l -1.57921,0.7901 7.66904,-3.85036 v -7.27961 c 0.5864,-0.80469 1.1922,-1.58855 1.80916,-2.36214 l -6.11951,-12.74801 -5.79955,-2.65038 h -5.19955 l -4.86023,-6.21966 z"
     style="fill:#f2f2f2"
     id="path280"
     class="top" />
  <path
     inkscape:connector-curvature="0"
     d="m -257.43,165.13981 a 8.66,8.66 0 0 0 -2.76,-4.23 h -0.62 a 8,8 0 0 0 -2.76,4.22 c -0.52,1.89 2.07,10.61 2.76,12.53 h 0.62 c 0.64,-1.76 3.19,-10.82 2.76,-12.52 z"
     style="fill:#333333"
     id="path282"
     class="mouth" />
  <path
     inkscape:connector-curvature="0"
     d="m -273.19,152.23981 a 2.4920724,2.4920724 0 1 1 1.19,-4.84 l 0.21,0.06 a 37.1,37.1 0 0 0 5.43,1.12 44.52,44.52 0 0 0 11.76,0 37.1,37.1 0 0 0 5.43,-1.12 2.4903062,2.4903062 0 0 1 1.59,4.72 l -0.21,0.06 a 43.08,43.08 0 0 1 -6.15,1.29 48.55,48.55 0 0 1 -13.08,0 42.79,42.79 0 0 1 -6.17,-1.29 z"
     style="fill:#333333"
     id="path284"
     class="mouth" />
  <path
     id="path308"
     style="fill:#f9f9f9"
     d="m 156.10009,15.87907 c -0.38556,5.30146 -1.70487,9.47618 -3.66016,12.75977 -0.41226,23.77298 -9.23429,35.22861 -15.15429,42.79687 l 15.0625,-4.66406 c -0.66253,2.81351 -2.46284,7.15605 -0.34766,12.13672 1.63337,-2.31438 7.93951,-5.80702 13,-3.34766 -0.43442,3.55323 -0.95271,7.09405 -1.45117,10.63868 l 8.96484,0.85937 c 0.83453,3.87921 0.51719,9.34489 -0.59961,11.73633 l 5.55078,2.00976 c 0.20764,2.76461 0.10001,5.49063 -0.74609,8.875 8.45452,-1.7225 14.21334,-4.38959 19.64062,-13.1875 2.8639,-4.75235 4.90185,-10.48317 4.73047,-17.24218 -4.16121,4.916 -9.64845,7.24848 -15.25976,10.10937 6.507,-11.06543 8.86482,-22.76775 8.13672,-30.58008 -7.34558,10.25145 -11.64935,13.05972 -19.91797,16.90039 1.23859,-11.40036 5.52493,-18.58249 12.46094,-27.26953 -11.39225,-1.30247 -16.30073,1.47493 -24.89063,6.43946 4.54665,-14.03555 2.22082,-26.67904 -5.51953,-38.97071 z M 38.34033,44.56071 c 9.33778,3.63657 19.58098,9.02335 21.1289,18.54883 -7.61817,0.0414 -14.89678,-3.50715 -20.24219,-7.18945 -0.15967,8.23087 2.84508,12.25242 6.77344,19.08008 -7.2127,1.61288 -12.08446,4.83147 -17.4707,9.48046 7.29482,-0.15715 12.29906,-1.05022 16.89062,4.2793 -6.05124,5.0164 -11.99023,10.79012 -11.99023,19.24024 9.257041,-6.16885 12.495077,-5.94855 21.13672,-2.20118 1.29061,-8.09956 2.39776,-14.87177 2.78688,-16.43476 2.47193,-0.73247 3.52473,-0.94807 5.9221,-1.29375 -2.15563,-7.42806 1.09961,-9.5176 2.41406,-11.59961 l 7.54297,1.50586 C 69.32363,71.80685 75.88938,65.4938 80.37743,62.46696 75.93008,55.25873 74.71255,50.90864 73.00048,45.67009 61.802895,37.375377 49.10548,39.395913 38.34033,44.56071 Z"
     inkscape:connector-curvature="0"
     class="top"
     sodipodi:nodetypes="cccccccccccccccccccccccccccccccccc" />
  <path
     class="eyes"
     d="m 86.85077,100.38592 a 4.9400001,4.9400001 0 1 0 4.92968,5 5,5 0 0 0 -4.92968,-5 z m 57.2207,0 a 4.9400001,4.9400001 0 1 0 4.93945,4.93945 4.9400001,4.9400001 0 0 0 -4.93945,-4.93945 z"
     style="fill:#333333;fill-rule:evenodd;"
     id="path310"
     inkscape:connector-curvature="0" />
  <path
     class="eyes"
     d="m 86.207031,89.365234 c -25.504353,0 -21.502935,6.856082 -21.035156,19.595706 0.80177,18.12145 17.762912,16.51367 21.201172,16.63867 14.757523,-0.041 20.517933,-8.22699 22.951173,-22.93164 1.81656,-10.73102 -9.25096,-13.174341 -23.117189,-13.302736 z m 58.597659,0 c -13.86624,0.128395 -24.9357,2.571716 -23.11914,13.302736 2.43324,14.70465 8.19365,22.89064 22.95117,22.93164 3.43826,-0.125 20.3994,1.48278 21.20117,-16.63867 0,-18.965355 -0.47958,-19.595706 -21.0332,-19.595706 z"
     style="fill:#4d4d4d;stroke:none;"
     id="path340"
     sodipodi:nodetypes="cccccccccc" />
  <path
     class="eyes"
     id="path312"
     style="fill:#333333;fill-rule:evenodd;"
     d="m 169.8707,90.25505 a 0.51000002,0.51000002 0 0 0 -0.43991,-0.52 167.64,167.64 0 0 0 -22.60013,-1.68006 c -12.00002,0 -27.46988,3.76006 -30.16995,3.76006 h -2.40005 c -1.24987,0 -5.29003,-0.80996 -10.44986,-1.68006 a 124.35,124.35 0 0 0 -19.72009,-2.08 166.18,166.18 0 0 0 -19.31005,1.23997 c -1.56,0.17999 -2.68997,0.35009 -3.28992,0.44009 a 0.51000002,0.51000002 0 0 0 -0.44007,0.52 l -0.091,6.45007 a 0.57000005,0.57000005 0 0 0 0.33012,0.52 l 0.73994,0.23992 c 1.08,0.41992 1.00008,19.85004 6.78001,24.71004 3.44006,2.85991 6.51002,4.48993 19.42001,4.48993 7.46991,0 12.1701,-1.9999 16.62997,-7.99998 3.21001,-4.32003 6.09994,-14.54995 6.09994,-14.54995 0.82006,-4.07001 3.77018,-4.51999 4.43,-4.58012 h 0.12068 c 0.11078,0 3.65996,0.0593 4.57003,4.58012 0,0 2.8599,10.22003 6.0699,14.54005 4.46009,5.99989 9.16006,7.99999 16.63014,7.99999 12.91004,0 15.99999,-1.63002 19.42006,-4.49013 5.78981,-4.86 5.6998,-24.28992 6.77995,-24.71003 l 0.73994,-0.23993 a 0.57000005,0.57000005 0 0 0 0.32996,-0.52 l -0.12068,-6.45006 z m -64.99994,22.9999 c -1.91006,4.50002 -6.79995,10.29005 -13.70001,10.64015 -20.69992,0.99985 -21.64997,-4.74014 -23.00011,-9.32006 a 31.450002,31.450002 0 0 1 -1.20989,-13.18002 c 0.53997,-4.57993 1.70004,-7.26993 3.78007,-8.62007 a 9.3000002,9.3000002 0 0 1 4.34987,-1.50996 85.070002,85.070002 0 0 1 11.40007,-0.52 59.229999,59.229999 0 0 1 9.20988,0.69999 c 7.37002,1.20002 12.35008,3.70014 12.35008,6.16011 a 46.120002,46.120002 0 0 1 -3.23,15.63998 z m 57.99998,1.32009 c -1.34004,4.57992 -2.29004,10.36006 -23.00006,9.32006 -6.90995,-0.3501 -11.8099,-6.14013 -13.70995,-10.64015 a 46.350001,46.350001 0 0 1 -3.22005,-15.63998 c 0,-3.38999 9.43005,-6.85989 21.56017,-6.85989 12.12991,0 13.99987,0.89996 15.74994,1.99989 2.07998,1.35015 3.23983,3.99999 3.76997,8.62007 a 31.230001,31.230001 0 0 1 -1.16007,13.16993 z"
     inkscape:connector-curvature="0" />
  <path
     id="path320"
     style="fill:#f9f9f9"
     d="M 101.90087,7.64079 C 91.85367,13.88244 89.45973,36.287 89.77001,40.92985 82.84514,35.10402 81.87083,27.1794 82.00048,21.72673 c -9.62351,6.01578 -10.66619,14.42138 -9,23.94336 1.10611,5.14114 2.39718,10.46108 7.37695,16.79687 0.002,-10e-4 0.004,-0.003 0.006,-0.004 2.77422,2.87423 5.4644,5.5941 8.34766,8.35742 0.41187,-6.97104 0.45449,-13.62182 7.18555,-15.82422 3.95315,2.81689 7.41226,5.93884 11.08398,9.10352 l 10.55859,-10.25 c 5.64469,3.96096 5.45309,6.56525 6.52149,14.10351 2.15302,-1.7546 8.71895,-9.00368 15.84375,-10.13867 0.98706,4.12611 -0.99388,10.30779 -2.63867,13.62109 0,0 14.32031,-11.8457 15.19531,-27.9707 0.33968,-6.25989 0.2237,-11.14626 -0.041,-14.82617 -3.21251,5.56523 -8.71179,8.779945 -13.78906,10.15038 -4.27151,-9.24856 -2.47847,-21.43491 -0.48047,-29.3086 C 125.96073,12.5 117.23886,27.81751 115.99868,34.55084 106.73085,27.15382 102.39358,18.40443 101.90103,7.64068 Z"
     class="top"
     inkscape:connector-curvature="0"
     sodipodi:nodetypes="sccccccccccccscccccs" />
</svg>
