<?xml version="1.0" encoding="UTF-8" standalone="no"?>
<svg
   xmlns:dc="http://purl.org/dc/elements/1.1/"
   xmlns:cc="http://creativecommons.org/ns#"
   xmlns:rdf="http://www.w3.org/1999/02/22-rdf-syntax-ns#"
   xmlns:svg="http://www.w3.org/2000/svg"
   xmlns="http://www.w3.org/2000/svg"
   xmlns:sodipodi="http://sodipodi.sourceforge.net/DTD/sodipodi-0.dtd"
   xmlns:inkscape="http://www.inkscape.org/namespaces/inkscape"
   viewBox="0 0 231 231.66"
   version="1.1"
   id="svg26"
   sodipodi:docname="15.svg"
   inkscape:version="1.0.1 (3bc2e813f5, 2020-09-07)">
  <style
     id="style45"></style>
  <metadata
     id="metadata15">
    <rdf:RDF>
      <cc:Work
         rdf:about="">
        <dc:format>image/svg+xml</dc:format>
        <dc:type
           rdf:resource="http://purl.org/dc/dcmitype/StillImage" />
      </cc:Work>
    </rdf:RDF>
  </metadata>
  <defs
     id="defs30">
    <pattern
       id="EMFhbasepattern"
       patternUnits="userSpaceOnUse"
       width="6"
       height="6"
       x="0"
       y="0" />
    <pattern
       id="EMFhbasepattern-3"
       patternUnits="userSpaceOnUse"
       width="6"
       height="6"
       x="0"
       y="0" />
  </defs>
  <sodipodi:namedview
     inkscape:document-rotation="0"
     pagecolor="#ffffff"
     bordercolor="#666666"
     borderopacity="1"
     objecttolerance="10"
     gridtolerance="10"
     guidetolerance="10"
     inkscape:pageopacity="0"
     inkscape:pageshadow="2"
     inkscape:window-width="1842"
     inkscape:window-height="1051"
     id="namedview28"
     showgrid="false"
     inkscape:zoom="0.35061451"
     inkscape:cx="-308.71315"
     inkscape:cy="-111.50565"
     inkscape:window-x="69"
     inkscape:window-y="-9"
     inkscape:window-maximized="1"
     inkscape:current-layer="svg26" />
  <path
     class="env"
     inkscape:connector-curvature="0"
     id="path17"
     style="fill:#9f9f9f;fill-rule:evenodd"
     d="m 609.80086,0 a 115.5,115.5 0 1 1 -115.5,115.5 115.5,115.5 0 0 1 115.5,-115.5 z" />
  <path
     inkscape:connector-curvature="0"
     id="path19"
     style="fill:#585858;fill-rule:evenodd"
     d="m 599.30086,166.5 h 21 v 26 a 116.53,116.53 0 0 1 15.75,2.5 l 13.12,22.72 a 109.85,109.85 0 0 1 -78.74,0 l 13.12,-22.72 a 116.6,116.6 0 0 1 15.75,-2.53 v -26 z" />
  <path
     inkscape:connector-curvature="0"
     id="path21"
     style="fill:#585858;fill-rule:evenodd"
     d="m 609.80086,51.75 a 63.75,63.75 0 1 1 -63.75,63.75 63.75,63.75 0 0 1 63.75,-63.75 z" />
  <path
     class="mouth"
     inkscape:connector-curvature="0"
     id="path23"
     style="fill:#ffffff;fill-rule:evenodd;stroke:#000000;stroke-width:2.99991px;stroke-linecap:round;stroke-linejoin:round"
     d="m 591.36086,144.59 a 20.15,20.15 0 0 0 36.88,4.53 z" />
  <path
     class="clothes"
     inkscape:connector-curvature="0"
     id="path25"
     style="fill-rule:evenodd"
     d="m 636.05086,195 a 114.79,114.79 0 0 1 38,16.5 115.53,115.53 0 0 1 -128.46,0 114.79,114.79 0 0 1 38,-16.5 v 0 a 115.77,115.77 0 0 1 15.71,-2.53 v -14.09 a 63.8,63.8 0 0 0 21,0 v 14.09 a 116.6,116.6 0 0 1 15.75,2.53 z" />
  <path
     class="clothes"
     inkscape:connector-curvature="0"
     id="path27"
     style="fill:none;stroke:#b2b2b2;stroke-width:1.99984px;stroke-miterlimit:2.61313"
     d="m 554.22086,206.23 7.83,2.88 29.72,-3.38 23.81,-1.87 21.8,-8.54 m -38.08,-9.79 21,-7.14 m 18.72,41.31 2.86,-23.18 m 4.4,1.36 14.93,21.12 m -43.29,11.77 21.1,-11 8.36,5 m -31.8,-20.89 23.44,15.84 -1.82,8 m -37.9,-42.19 16.28,18.33 -7.91,27.14 m -15.9,-25.25 -11.32,21.49 m -18.4,-18.13 13.65,16.77 m -9.27,-25.46 -4.38,8.69 -9.26,6.89 m 42.51,-23.1 -3.53,12.83 9.26,24.94" />
  <path
     class="top"
     inkscape:connector-curvature="0"
     id="path29"
     style="fill:#ffffff;fill-rule:evenodd"
     d="m 671.30086,133.5 c 1,6.56 2.36,13.18 3.27,19.73 2,-6.57 2.53,-18.25 3.24,-25.43 1.26,-13 1.83,-29.31 -0.43,-41.93 -0.85,-4.72 -2,-7.69 -2,-8.48 4.62,3.56 8.66,9.22 13,14.15 -2.69,-13.67 -5.32,-23.17 -10.51,-29.81 -4.56,-5.84 -11,-10.43 -23.81,-13 9.65,-3.34 16.27,-0.77 25.5,2.13 -9.21,-8.41 -18.67,-16 -31.69,-17 -5.71,-0.42 -13.62,-1 -24.89,4.17 2.85,-8.51 10.21,-11 18.05,-13.12 -15.13,-1.25 -28.61,-2.59 -40.53,8.18 -1.9,-6.21 -0.18,-12.54 3.79,-17.52 -13.46,3.63 -19.79,11.95 -24.07,24.08 -7,-7 -8.73,-10.82 -7.56,-21.43 a 41,41 0 0 0 -9.22,28.23 c -3.84,0 -12.46,0.72 -16,2.16 -4.45,1.8 -8.48,5.48 -11.67,11.83 7.3,-3.94 11.9,-3.85 16.66,-1.81 -10.39,3.45 -19.52,11.37 -20.32,26.9 1.53,-2.01 7.19,-7.53 9.25,-7.53 0,0 -1.52,10.36 -1.62,11.52 -1.56,19.73 1,43.4 6.37,62.47 1.31,4.69 1.19,3.09 1.89,-0.91 4.3,-24.68 7.89,-76.94 41.3,-82 -0.43,6.6 -2.51,10.22 -7.29,17.66 18.29,-2.86 25.12,-7.82 37.15,-18.24 0.46,0 1,0.09 1.46,0.12 -0.33,3.56 -1.09,6.56 -5,12.46 9.53,-1.32 14.72,-5.8 17.54,-11.67 24.89,2.67 34.63,43.58 38,64.1 z" />
  <path
     class="eyes"
     inkscape:connector-curvature="0"
     id="path31"
     style="fill-rule:evenodd"
     d="m 602.58086,72.16 h 62.18 c 9.19,0 13.32,1.21 14.71,8.52 3.61,18.95 2.2,33.49 -0.44,43.75 a 65.07,65.07 0 0 1 -5.89,14.78 73.52,73.52 0 0 1 -7.06,10.26 c -1.8,2.27 -5.17,1.21 -4.19,-1.09 0.14,-0.47 0.27,-1 0.4,-1.48 a 14.29,14.29 0 0 0 0.52,-6.62 12.52,12.52 0 0 0 -3.88,-6.3 c -4.17,-3.9 -12.81,-8.71 -32.53,-13.66 -6.4,-1.6 -10.69,-2.24 -11.76,-2.79 a 7.08,7.08 0 0 1 -3.85,-6.31 v -9 c 0,-2.39 0.18,-4.55 -1.56,-6.57 -1.74,-2.02 -4.16,-2.13 -6.65,-2.14 a 6,6 0 0 1 -6,-6 v -9.35 a 6,6 0 0 1 6,-6 z" />
  <line
     class="eyes"
     id="line33"
     style="fill:none;stroke:#000000;stroke-width:8.79987px;stroke-linecap:round;stroke-linejoin:round"
     y2="109.79"
     x2="579.59088"
     y1="98.730003"
     x1="579.59088" />
  <path
     class="eyes"
     inkscape:connector-curvature="0"
     id="path35"
     style="fill:none;stroke:#b2b2b2;stroke-width:7.79981px;stroke-linecap:round;stroke-linejoin:round"
     d="M 630.20086,98.73 V 108 m 15.22,-9.29 V 108" />
  <path
     class="env"
     inkscape:connector-curvature="0"
     id="path4"
     style="fill:#9f9f9f;fill-rule:evenodd"
     d="M 115.5,0 A 115.5,115.5 0 1 1 0,115.5 115.5,115.5 0 0 1 115.5,0 Z" />
  <path
     inkscape:connector-curvature="0"
     id="path6"
     style="fill:#585858;fill-rule:evenodd"
     d="m 105,166.5 h 21 v 26 a 116.53,116.53 0 0 1 15.75,2.5 l 13.12,22.72 a 109.85,109.85 0 0 1 -78.74,0 L 89.25,195 A 116.6,116.6 0 0 1 105,192.47 v -26 z" />
  <path
     inkscape:connector-curvature="0"
     id="path8"
     style="fill:#585858;fill-rule:evenodd"
     d="M 115.5,51.75 A 63.75,63.75 0 1 1 51.75,115.5 63.75,63.75 0 0 1 115.5,51.75 Z" />
  <path
     class="mouth"
     inkscape:connector-curvature="0"
     id="path10"
     style="fill:#ffffff;fill-rule:evenodd;stroke:#000000;stroke-width:2.99991px;stroke-linecap:round;stroke-linejoin:round"
     d="m 97.06,144.59 a 20.15,20.15 0 0 0 36.88,4.53 z" />
  <path
     class="clothes"
     inkscape:connector-curvature="0"
     id="path12"
     style="fill-rule:evenodd;fill:#1a1a1a"
     d="m 141.75,195 a 114.79,114.79 0 0 1 38,16.5 115.53,115.53 0 0 1 -128.46,0 114.79,114.79 0 0 1 38,-16.5 v 0 A 115.77,115.77 0 0 1 105,192.47 v -14.09 a 63.8,63.8 0 0 0 21,0 v 14.09 a 116.6,116.6 0 0 1 15.75,2.53 z" />
  <path
     style="fill:#b2b2b2;fill-opacity:1;fill-rule:nonzero;stroke:none;stroke-width:0.192868"
     d="m 60.98401,205.66172 6.2675,2.2051 3.40736,-6.819 2.80177,-1.1353 -3.99106,7.9907 27.22239,-3.0857 3.25414,-11.7386 2.1451,-0.2692 -3.28332,11.8186 20.39308,-1.6011 -14.19125,-15.9449 v -2.4379 l 17.60591,-5.7274 3.38547,-0.473 v 1.47 l -19.16731,6.2295 14.73117,16.5417 19.83857,-7.7432 3.36358,0.8223 -21.37078,8.34 20.53171,13.84175 2.67773,-21.68685 1.94811,0.5604 -2.77259,22.37818 0.0584,0.0364 v 0 l 8.50746,4.99234 -2.48073,0.85145 -6.4718,-3.79157 -1.29873,6.06215 -2.15241,0.53125 1.34252,-6.28045 -17.0368,8.83483 -5.02713,0.35661 21.58967,-11.19275 -20.96219,-14.13284 -7.50057,25.45657 -2.07214,-0.0364 7.6392,-25.91507 -21.04975,1.652 9.0109,24.05202 -1.41548,-0.0946 -0.49615,-0.0437 -0.073,-0.007 -0.2043,-0.0145 -8.36882,-22.34182 -10.12723,19.24163 -1.98458,-0.52399 10.51393,-19.96214 -26.0404,2.95469 13.42514,16.41797 -3.44384,-1.06251 -12.08263,-14.78054 -8.16453,5.96752 -1.90433,-1.07705 8.12805,-5.93848 -6.98983,-2.4598 2.33481,-1.2881 z m 92.50945,-7.2556 14.22773,20.09304 -1.80948,0.89514 -15.61402,-22.04348 z"
     id="path106-4"
     class="clothes"
     sodipodi:nodetypes="cccccccccccccccccccccccccccccccccccccccccccccccccccccccccccccccc" />
  <line
     class="eyes"
     id="line20"
     style="fill:none;stroke:#000000;stroke-width:8.79987px;stroke-linecap:round;stroke-linejoin:round"
     y2="109.79"
     x2="85.290009"
     y1="98.730003"
     x1="85.290009" />
  <path
     d="M 109.98912,15.56956 C 96.52958,19.1997 90.20042,27.51997 85.9201,39.64993 78.92055,32.64997 77.18938,28.83002 78.35954,18.21997 a 40.999998,40.999998 0 0 0 -9.26975,24.98798 c 0,0 0,0 0,0 0.0366,7.67763 5.64621,13.93865 12.69705,15.29721 -13.31458,5.81059 -15.2577,22.03326 -14.04515,33.52382 5.76867,-11.86123 14.25395,-20.98147 27.25819,-22.95092 -0.43017,6.59998 -2.50989,10.22033 -7.28999,17.66036 18.2904,-2.8601 25.11934,-7.81991 37.14966,-18.2399 0.46001,0 1.00009,0.089 1.46062,0.12058 -0.33023,3.56011 -1.09062,6.55979 -5.00043,12.45977 9.52985,-1.32005 14.72129,-5.80055 17.53942,-11.67064 8.88616,0.95314 15.83599,6.78498 21.25978,14.81779 1.92795,-15.21107 -4.47657,-26.59984 -19.80701,-34.0359 1.41666,-2.69745 8.01428,-11.92529 17.66136,-15.72137 -1.42398,-0.28569 -2.88826,-0.49486 -4.40331,-0.61125 -5.71005,-0.41992 -13.61967,-0.99982 -24.89012,4.17032 2.85006,-8.51009 10.21018,-11.0001 18.0502,-13.12006 -15.13054,-1.25007 -28.60996,-2.5898 -40.52986,8.18008 -1.89969,-6.20995 -0.18055,-12.54026 3.78892,-17.52032 z"
     style="fill:#ffffff;fill-rule:evenodd;stroke-width:1"
     id="path5144"
     inkscape:connector-curvature="0"
     class="top" />
  <path
     sodipodi:nodetypes="ccccccccccc"
     d="m 172.62978,69.9537 c 1.22917,14.06415 0.93841,29.95977 0.34635,45.16929 1.78874,6.79602 3.03793,13.23518 3.88415,18.38811 l 0.13973,-0.011 c 1.00009,6.56005 2.3597,13.18023 3.26977,19.73018 2.00017,-6.56994 2.53031,-18.24963 3.24046,-25.42957 1.25966,-13.00005 1.82957,-29.31081 -0.43017,-41.93087 -0.85041,-4.71997 -2.0007,-7.68961 -2.0007,-8.47957 4.62049,3.56011 8.6606,9.22035 13.00058,14.15038 -0.6751,-3.43179 -1.34705,-6.60035 -2.05669,-9.52728 C 187.9763,76.29509 178.29712,69.8598 172.62978,69.9537 Z"
     style="fill:#ffffff;fill-rule:evenodd;stroke-width:1"
     id="path5211"
     inkscape:connector-curvature="0"
     class="top" />
  <path
     sodipodi:nodetypes="cccccccccc"
     d="m 157.97329,34.47079 c -10.33921,2.75789 -17.71547,13.54302 -19.13213,16.24047 15.33044,7.43606 20.78329,17.95967 21.27778,33.5168 5.95341,8.81786 10.06574,20.28896 12.85719,30.89493 0.87636,-13.17799 1.81856,-27.72628 0.26566,-44.27991 2.56977,0.44857 9.13717,1.39344 18.78147,11.17004 -2.11582,-8.73209 -4.5671,-15.31014 -8.45388,-20.28314 -4.55978,-5.84011 -10.99936,-10.43055 -23.80944,-13.00047 9.65021,-3.33995 16.26982,-0.76993 25.50032,2.13011 -8.13883,-7.4315 -16.47444,-14.2191 -27.28697,-16.38883 z"
     style="fill:#ffffff;fill-opacity:1;stroke:none;stroke-width:0.52333px;stroke-linecap:butt;stroke-linejoin:miter;stroke-opacity:1"
     id="path5233"
     inkscape:connector-curvature="0"
     class="top" />
  <path
     sodipodi:nodetypes="cccccccc"
     d="m 61.47296,73.35441 c -7.25604,-0.77501 -13.02398,2.37464 -16.26221,5.38789 0.73789,-0.45409 1.38682,-0.74208 1.84892,-0.74208 0,0 -1.51975,10.35932 -1.61971,11.51939 -1.56004,19.72999 0.99957,43.40065 6.36998,62.47055 1.3099,4.68993 1.18953,3.08927 1.88975,-0.9107 1.75263,-10.06067 3.38909,-24.70319 6.9739,-38.86446 -5.06803,-17.62694 -4.25077,-32.40285 0.79937,-38.86059 z"
     style="fill:#ffffff;fill-rule:evenodd;stroke-width:1"
     id="path5204"
     inkscape:connector-curvature="0"
     class="top" />
  <path
     sodipodi:nodetypes="cccccccccccccc"
     d="m 69.08979,43.20999 c -0.0253,1.08032 -0.008,2.16121 0.0523,3.24015 -3.84019,0 -12.46049,0.71984 -16.0003,2.15979 -4.4504,1.8001 -8.48005,5.4801 -11.66975,11.83009 7.29994,-3.94005 11.89949,-3.85025 16.6597,-1.81015 -10.3902,3.44995 -19.52022,11.3704 -20.31987,26.90039 1.14557,-1.5053 4.60792,-4.97886 7.13927,-6.6285 0.09,-0.0587 0.17427,-0.10556 0.26167,-0.15946 3.71407,-2.32113 9.04943,-5.12471 15.18077,-4.95531 C 55.34344,80.24473 53.71117,94.221 60.67565,112.215 62.4623,105.15831 64.73304,98.22139 67.74376,92.03102 67.74276,80.36743 69.8202,64.25662 83.13477,58.44603 76.08394,56.29218 70.42622,50.45504 69.09186,43.20999 Z"
     style="fill:#ffffff;fill-rule:evenodd;stroke-width:1"
     id="path5239"
     inkscape:connector-curvature="0"
     class="top" />
  <path
     class="eyes"
     inkscape:connector-curvature="0"
     id="path18"
     style="fill-rule:evenodd;fill:#1a1a1a;"
     d="m 108.28,72.16 h 62.18 c 9.19,0 13.32,1.21 14.71,8.52 3.61,18.95 2.2,33.49 -0.44,43.75 a 65.07,65.07 0 0 1 -5.89,14.78 73.52,73.52 0 0 1 -7.06,10.26 c -1.8,2.27 -5.17,1.21 -4.19,-1.09 0.14,-0.47 0.27,-1 0.4,-1.48 a 14.29,14.29 0 0 0 0.52,-6.62 12.52,12.52 0 0 0 -3.88,-6.3 c -4.17,-3.9 -12.81,-8.71 -32.53,-13.66 -6.4,-1.6 -10.69,-2.24 -11.76,-2.79 a 7.08,7.08 0 0 1 -3.85,-6.31 v -9 c 0,-2.39 0.18,-4.55 -1.56,-6.57 -1.74,-2.02 -4.16,-2.13 -6.65,-2.14 a 6,6 0 0 1 -6,-6 v -9.35 a 6,6 0 0 1 6,-6 z" />
  <path
     class="eyes"
     inkscape:connector-curvature="0"
     id="path22"
     style="fill:none;stroke:#b2b2b2;stroke-width:7.79981px;stroke-linecap:round;stroke-linejoin:round"
     d="M 135.9,98.73 V 108 m 15.22,-9.29 V 108" />
  <g
     id="g134"
     transform="translate(-1186.1728,-71.987703)">
    <path
       id="path84"
       style="fill:#9f9f9f;fill-rule:evenodd"
       d="M 115.5,0 A 115.5,115.5 0 1 1 0,115.5 115.5,115.5 0 0 1 115.5,0 Z"
       class="env"
       inkscape:connector-curvature="0" />
    <path
       id="path86"
       style="fill:#585858;fill-rule:evenodd"
       d="m 105,166.5 h 21 v 26 a 116.53,116.53 0 0 1 15.75,2.5 l 13.12,22.72 a 109.85,109.85 0 0 1 -78.74,0 L 89.25,195 A 116.6,116.6 0 0 1 105,192.47 v -26 z"
       inkscape:connector-curvature="0" />
    <path
       id="path88"
       style="fill:#585858;fill-rule:evenodd"
       d="M 115.5,51.75 A 63.75,63.75 0 1 1 51.75,115.5 63.75,63.75 0 0 1 115.5,51.75 Z"
       inkscape:connector-curvature="0" />
    <path
       id="path90"
       style="fill:#ffffff;fill-rule:evenodd;stroke:#000000;stroke-width:2.9999px;stroke-linecap:round;stroke-linejoin:round"
       d="m 97.06,144.59 a 20.15,20.15 0 0 0 36.88,4.53 z"
       class="mouth"
       inkscape:connector-curvature="0" />
    <path
       id="path92"
       style="fill-rule:evenodd"
       d="m 141.75,195 a 114.79,114.79 0 0 1 38,16.5 115.53,115.53 0 0 1 -128.46,0 114.79,114.79 0 0 1 38,-16.5 115.77,115.77 0 0 1 15.71,-2.53 v -14.09 a 63.8,63.8 0 0 0 21,0 v 14.09 a 116.6,116.6 0 0 1 15.75,2.53 z"
       class="clothes"
       inkscape:connector-curvature="0" />
    <path
       id="path94"
       style="fill:none;stroke:#b2b2b2;stroke-width:1.9998px;stroke-miterlimit:2.6131"
       d="m 59.92,206.23 7.83,2.88 29.72,-3.38 23.81,-1.87 21.8,-8.54 m -38.08,-9.79 21,-7.14 m 18.72,41.31 2.86,-23.18 m 4.4,1.36 14.93,21.12 m -43.29,11.77 21.1,-11 8.36,5 m -31.8,-20.89 23.44,15.84 -1.82,8 M 105,185.53 121.28,203.86 113.37,231 m -15.9,-25.25 -11.32,21.49 m -18.4,-18.13 13.65,16.77 m -9.27,-25.46 -4.38,8.69 -9.26,6.89 m 42.51,-23.1 -3.53,12.83 9.26,24.94"
       class="clothes"
       inkscape:connector-curvature="0" />
    <line
       id="line96"
       style="fill:none;stroke:#000000;stroke-width:8.7999px;stroke-linecap:round;stroke-linejoin:round"
       y2="109.79"
       y1="98.730003"
       x2="85.290001"
       x1="85.290001"
       class="eyes" />
    <path
       id="path98"
       style="fill:#ffffff;fill-rule:evenodd"
       d="M 109.99,15.57 C 96.53,19.2001 90.201,27.52 85.921,39.65 78.9214,32.65 77.1903,28.83 78.3604,18.22 a 41,41 0 0 0 -9.2698,24.988 c 0.0366,7.6776 5.6462,13.939 12.697,15.297 -13.315,5.8106 -15.258,22.033 -14.045,33.524 5.7687,-11.861 14.254,-20.981 27.258,-22.951 -0.43017,6.6 -2.5099,10.22 -7.29,17.66 18.29,-2.8601 25.119,-7.8199 37.15,-18.24 0.46001,0 1.0001,0.089 1.4606,0.12058 -0.33023,3.5601 -1.0906,6.5598 -5.0004,12.46 9.5298,-1.32 14.721,-5.8006 17.539,-11.671 8.8862,0.95314 15.836,6.785 21.26,14.818 1.928,-15.211 -4.4766,-26.6 -19.807,-34.036 1.4167,-2.6974 8.0143,-11.925 17.661,-15.721 -1.424,-0.28569 -2.8883,-0.49486 -4.4033,-0.61125 -5.71,-0.41992 -13.62,-0.99982 -24.89,4.1703 2.8501,-8.5101 10.21,-11 18.05,-13.12 -15.131,-1.2501 -28.61,-2.5898 -40.53,8.1801 -1.8997,-6.21 -0.18055,-12.54 3.7889,-17.52 z"
       class="top"
       inkscape:connector-curvature="0" />
    <path
       id="path100"
       style="fill:#ffffff;fill-rule:evenodd"
       d="m 173.82,72.031 c -0.8525,0.0241 -1.2816,0.1403 -1.3832,0.16966 0.13711,0.0955 0.45792,0.84235 1.0713,4.9348 0.82529,5.4971 -0.40977,35.013 -0.53641,37.987 1.7887,6.796 3.0379,13.235 3.8842,18.388 l 0.13973,-0.011 c 1.0001,6.56 2.3597,13.18 3.2698,19.73 2.0002,-6.5699 2.5303,-18.25 3.2405,-25.43 1.2597,-13 1.8296,-29.311 -0.43017,-41.931 -0.85041,-4.72 -2.0007,-7.6896 -2.0007,-8.4796 4.6205,3.5601 8.6606,9.2204 13.001,14.15 -0.6751,-3.4318 -1.347,-6.6004 -2.0567,-9.5273 -9.005,-9.0288 -15.457,-10.059 -18.199,-9.9821 z m -1.3832,0.16966 c -0.0565,-0.0393 -0.0848,0.0194 -0.0848,0.0194 0,0 0.0722,-0.0157 0.0848,-0.0194 z"
       class="top"
       inkscape:connector-curvature="0" />
    <path
       id="path102"
       style="fill:#ffffff"
       d="m 157.97,34.471 c -9.6471,3.7961 -16.245,13.024 -17.661,15.721 15.33,7.4361 21.735,18.825 19.807,34.036 5.9534,8.8179 10.066,20.289 12.857,30.895 0.12664,-2.9744 1.3617,-32.49 0.53641,-37.987 -0.61334,-4.0925 -0.93415,-4.8393 -1.0713,-4.9348 -0.0105,0.005 -0.0848,0.0194 -0.0848,0.0194 0,0 0.0262,-0.0589 0.0848,-0.0194 0.42809,-0.12387 7.7777,-2.0235 19.582,9.8124 -2.1158,-8.7321 -4.5671,-15.31 -8.4539,-20.283 -4.5598,-5.8401 -10.999,-10.431 -23.809,-13 9.6502,-3.34 16.27,-0.76993 25.5,2.1301 -8.1388,-7.4315 -16.474,-14.219 -27.287,-16.389 z"
       class="top"
       inkscape:connector-curvature="0" />
    <path
       id="path104"
       style="fill:#ffffff;fill-rule:evenodd"
       d="m 60.392,73.787 c -6.1313,-0.1694 -11.467,2.6342 -15.181,4.9553 0.73789,-0.45409 1.3868,-0.74208 1.8489,-0.74208 0,0 -1.5198,10.359 -1.6197,11.519 -1.56,19.73 0.99957,43.401 6.37,62.471 1.3099,4.6899 1.1895,3.0893 1.8898,-0.9107 1.7526,-10.061 3.3891,-24.703 6.9739,-38.864 -6.9645,-17.994 -5.3322,-31.97 -0.28207,-38.428 z"
       class="top"
       inkscape:connector-curvature="0" />
    <path
       id="path106"
       style="fill:#ffffff;fill-rule:evenodd"
       d="m 69.09,43.21 a 41,41 0 0 0 0.0523,3.2402 c -3.8402,0 -12.46,0.71984 -16,2.1598 -4.4504,1.8001 -8.48,5.4801 -11.67,11.83 7.2999,-3.94 11.899,-3.8502 16.66,-1.8102 -10.39,3.45 -19.52,11.37 -20.32,26.9 1.1456,-1.5053 4.6079,-4.9789 7.1393,-6.6285 0.09,-0.0587 0.17427,-0.10556 0.26167,-0.15946 3.7141,-2.3211 9.0494,-5.1247 15.181,-4.9553 -5.0501,6.4577 -6.6824,20.434 0.28207,38.428 1.7866,-7.0567 4.0574,-13.994 7.0681,-20.184 -1.2126,-11.491 0.73057,-27.713 14.045,-33.524 -7.0508,-1.3586 -12.66,-7.6196 -12.697,-15.297 z"
       class="top"
       inkscape:connector-curvature="0" />
    <path
       id="path108"
       style="fill-rule:evenodd"
       d="m 108.28,72.16 h 62.18 c 9.19,0 13.32,1.21 14.71,8.52 3.61,18.95 2.2,33.49 -0.44,43.75 a 65.07,65.07 0 0 1 -5.89,14.78 73.52,73.52 0 0 1 -7.06,10.26 c -1.8,2.27 -5.17,1.21 -4.19,-1.09 0.14,-0.47 0.27,-1 0.4,-1.48 a 14.29,14.29 0 0 0 0.52,-6.62 12.52,12.52 0 0 0 -3.88,-6.3 c -4.17,-3.9 -12.81,-8.71 -32.53,-13.66 -6.4,-1.6 -10.69,-2.24 -11.76,-2.79 a 7.08,7.08 0 0 1 -3.85,-6.31 v -9 c 0,-2.39 0.18,-4.55 -1.56,-6.57 -1.74,-2.02 -4.16,-2.13 -6.65,-2.14 a 6,6 0 0 1 -6,-6 v -9.35 a 6,6 0 0 1 6,-6 z"
       class="eyes"
       inkscape:connector-curvature="0" />
    <path
       id="path110"
       style="fill:none;stroke:#b2b2b2;stroke-width:7.7998px;stroke-linecap:round;stroke-linejoin:round"
       d="M 135.9,98.73 V 108 m 15.22,-9.29 V 108"
       class="eyes"
       inkscape:connector-curvature="0" />
  </g>
  <path
     class="env"
     inkscape:connector-curvature="0"
     id="path47"
     style="fill:#9f9f9f;fill-rule:evenodd"
     d="m -731.98317,0 a 115.5,115.5 0 1 1 -115.5,115.5 115.5,115.5 0 0 1 115.5,-115.5 z" />
  <path
     inkscape:connector-curvature="0"
     id="path49"
     style="fill:#585858;fill-rule:evenodd"
     d="m -742.48317,166.5 h 21 v 26 a 116.53,116.53 0 0 1 15.75,2.5 l 13.12,22.72 a 109.85,109.85 0 0 1 -78.74,0 l 13.12,-22.72 a 116.6,116.6 0 0 1 15.75,-2.53 v -26 z" />
  <path
     inkscape:connector-curvature="0"
     id="path51"
     style="fill:#585858;fill-rule:evenodd"
     d="m -731.98317,51.75 a 63.75,63.75 0 1 1 -63.75,63.75 63.75,63.75 0 0 1 63.75,-63.75 z" />
  <path
     class="mouth"
     inkscape:connector-curvature="0"
     id="path53"
     style="fill:#ffffff;fill-rule:evenodd;stroke:#000000;stroke-width:2.99991px;stroke-linecap:round;stroke-linejoin:round"
     d="m -750.42317,144.59 a 20.15,20.15 0 0 0 36.88,4.53 z" />
  <path
     class="clothes"
     inkscape:connector-curvature="0"
     id="path55"
     style="fill-rule:evenodd"
     d="m -705.73317,195 a 114.79,114.79 0 0 1 38,16.5 115.53,115.53 0 0 1 -128.46,0 114.79,114.79 0 0 1 38,-16.5 v 0 a 115.77,115.77 0 0 1 15.71,-2.53 v -14.09 a 63.8,63.8 0 0 0 21,0 v 14.09 a 116.6,116.6 0 0 1 15.75,2.53 z" />
  <path
     class="clothes"
     inkscape:connector-curvature="0"
     id="path57"
     style="fill:none;stroke:#b2b2b2;stroke-width:1.99984px;stroke-miterlimit:2.61313"
     d="m -787.56317,206.23 7.83,2.88 29.72,-3.38 23.81,-1.87 21.8,-8.54 m -38.08,-9.79 21,-7.14 m 18.72,41.31 2.86,-23.18 m 4.4,1.36 14.93,21.12 m -43.29,11.77 21.1,-11 8.36,5 m -31.8,-20.89 23.44,15.84 -1.82,8 m -37.9,-42.19 16.28,18.33 -7.91,27.14 m -15.9,-25.25 -11.32,21.49 m -18.4,-18.13 13.65,16.77 m -9.27,-25.46 -4.38,8.69 -9.26,6.89 m 42.51,-23.1 -3.53,12.83 9.26,24.94" />
  <line
     class="eyes"
     id="line59"
     style="fill:none;stroke:#000000;stroke-width:8.79987px;stroke-linecap:round;stroke-linejoin:round"
     y2="109.79"
     x2="-762.19318"
     y1="98.730003"
     x1="-762.19318" />
  <path
     d="m -737.49405,15.56956 c -13.45954,3.63014 -19.7887,11.95041 -24.06902,24.08037 -6.99955,-6.99996 -8.73072,-10.81991 -7.56056,-21.42996 a 40.999998,40.999998 0 0 0 -9.26975,24.98798 c 0,0 0,0 0,0 0.0366,7.67763 5.64621,13.93865 12.69705,15.29721 -13.31458,5.81059 -15.2577,22.03326 -14.04515,33.52382 5.76867,-11.86123 14.25395,-20.98147 27.25819,-22.95092 -0.43017,6.59998 -2.50989,10.22033 -7.28999,17.66036 18.2904,-2.8601 25.11934,-7.81991 37.14966,-18.2399 0.46001,0 1.00009,0.089 1.46062,0.12058 -0.33023,3.56011 -1.09062,6.55979 -5.00043,12.45977 9.52985,-1.32005 14.72129,-5.80055 17.53942,-11.67064 8.88616,0.95314 15.83599,6.78498 21.25978,14.81779 1.92795,-15.21107 -4.47657,-26.59984 -19.80701,-34.0359 1.41666,-2.69745 8.01428,-11.92529 17.66136,-15.72137 -1.42398,-0.28569 -2.88826,-0.49486 -4.40331,-0.61125 -5.71005,-0.41992 -13.61967,-0.99982 -24.89012,4.17032 2.85006,-8.51009 10.21018,-11.0001 18.0502,-13.12006 -15.13054,-1.25007 -28.60996,-2.5898 -40.52986,8.18008 -1.89969,-6.20995 -0.18055,-12.54026 3.78892,-17.52032 z"
     style="fill:#ffffff;fill-rule:evenodd;stroke-width:1"
     id="path61"
     inkscape:connector-curvature="0"
     class="top" />
  <path
     sodipodi:nodetypes="ccccccccccc"
     d="m -674.85339,69.9537 c 1.22917,14.06415 0.93841,29.95977 0.34635,45.16929 1.78874,6.79602 3.03793,13.23518 3.88415,18.38811 l 0.13973,-0.011 c 1.00009,6.56005 2.3597,13.18023 3.26977,19.73018 2.00017,-6.56994 2.53031,-18.24963 3.24046,-25.42957 1.25966,-13.00005 1.82957,-29.31081 -0.43017,-41.93087 -0.85041,-4.71997 -2.0007,-7.68961 -2.0007,-8.47957 4.62049,3.56011 8.6606,9.22035 13.00058,14.15038 -0.6751,-3.43179 -1.34705,-6.60035 -2.05669,-9.52728 -4.04696,-5.71828 -13.72614,-12.15357 -19.39348,-12.05967 z"
     style="fill:#ffffff;fill-rule:evenodd;stroke-width:1"
     id="path63"
     inkscape:connector-curvature="0"
     class="top" />
  <path
     sodipodi:nodetypes="cccccccccc"
     d="m -689.50988,34.47079 c -10.33921,2.75789 -17.71547,13.54302 -19.13213,16.24047 15.33044,7.43606 20.78329,17.95967 21.27778,33.5168 5.95341,8.81786 10.06574,20.28896 12.85719,30.89493 0.87636,-13.17799 1.81856,-27.72628 0.26566,-44.27991 2.56977,0.44857 9.13717,1.39344 18.78147,11.17004 -2.11582,-8.73209 -4.5671,-15.31014 -8.45388,-20.28314 -4.55978,-5.84011 -10.99936,-10.43055 -23.80944,-13.00047 9.65021,-3.33995 16.26982,-0.76993 25.50032,2.13011 -8.13883,-7.4315 -16.47444,-14.2191 -27.28697,-16.38883 z"
     style="fill:#ffffff;fill-opacity:1;stroke:none;stroke-width:0.52333px;stroke-linecap:butt;stroke-linejoin:miter;stroke-opacity:1"
     id="path65"
     inkscape:connector-curvature="0"
     class="top" />
  <path
     sodipodi:nodetypes="cccccccc"
     d="m -786.01021,73.35441 c -7.25604,-0.77501 -13.02398,2.37464 -16.26221,5.38789 0.73789,-0.45409 1.38682,-0.74208 1.84892,-0.74208 0,0 -1.51975,10.35932 -1.61971,11.51939 -1.56004,19.72999 0.99957,43.40065 6.36998,62.47055 1.3099,4.68993 1.18953,3.08927 1.88975,-0.9107 1.75263,-10.06067 3.38909,-24.70319 6.9739,-38.86446 -5.06803,-17.62694 -4.25077,-32.40285 0.79937,-38.86059 z"
     style="fill:#ffffff;fill-rule:evenodd;stroke-width:1"
     id="path67"
     inkscape:connector-curvature="0"
     class="top" />
  <path
     sodipodi:nodetypes="cccccccccccccc"
     d="m -778.39338,43.20999 c -0.0253,1.08032 -0.008,2.16121 0.0523,3.24015 -3.84019,0 -12.46049,0.71984 -16.0003,2.15979 -4.4504,1.8001 -8.48005,5.4801 -11.66975,11.83009 7.29994,-3.94005 11.89949,-3.85025 16.6597,-1.81015 -10.3902,3.44995 -19.52022,11.3704 -20.31987,26.90039 1.14557,-1.5053 4.60792,-4.97886 7.13927,-6.6285 0.09,-0.0587 0.17427,-0.10556 0.26167,-0.15946 3.71407,-2.32113 9.04943,-5.12471 15.18077,-4.95531 -5.05014,6.45774 -6.68241,20.43401 0.28207,38.42801 1.78665,-7.05669 4.05739,-13.99361 7.06811,-20.18398 -10e-4,-11.66359 2.07644,-27.7744 15.39101,-33.58499 -7.05083,-2.15385 -12.70855,-7.99099 -14.04291,-15.23604 z"
     style="fill:#ffffff;fill-rule:evenodd;stroke-width:1"
     id="path69"
     inkscape:connector-curvature="0"
     class="top" />
  <path
     class="eyes"
     inkscape:connector-curvature="0"
     id="path71"
     style="fill:#1a1a1a;fill-rule:evenodd"
     d="m -739.20317,72.16 h 62.18 c 9.19,0 13.32,1.21 14.71,8.52 3.61,18.95 2.2,33.49 -0.44,43.75 a 65.07,65.07 0 0 1 -5.89,14.78 73.52,73.52 0 0 1 -7.06,10.26 c -1.8,2.27 -5.17,1.21 -4.19,-1.09 0.14,-0.47 0.27,-1 0.4,-1.48 a 14.29,14.29 0 0 0 0.52,-6.62 12.52,12.52 0 0 0 -3.88,-6.3 c -4.17,-3.9 -12.81,-8.71 -32.53,-13.66 -6.4,-1.6 -10.69,-2.24 -11.76,-2.79 a 7.08,7.08 0 0 1 -3.85,-6.31 v -9 c 0,-2.39 0.18,-4.55 -1.56,-6.57 -1.74,-2.02 -4.16,-2.13 -6.65,-2.14 a 6,6 0 0 1 -6,-6 v -9.35 a 6,6 0 0 1 6,-6 z" />
  <path
     class="eyes"
     inkscape:connector-curvature="0"
     id="path73"
     style="fill:none;stroke:#b2b2b2;stroke-width:7.79981px;stroke-linecap:round;stroke-linejoin:round"
     d="M -711.58317,98.73 V 108 m 15.22,-9.29 V 108" />
  <path
     class="env"
     inkscape:connector-curvature="0"
     id="path885"
     style="fill:#9f9f9f;fill-rule:evenodd"
     d="m -366.51085,0 a 115.5,115.5 0 1 1 -115.5,115.5 115.5,115.5 0 0 1 115.5,-115.5 z" />
  <path
     inkscape:connector-curvature="0"
     id="path887"
     style="fill:#585858;fill-rule:evenodd"
     d="m -377.01085,166.5 h 21 v 26 a 116.53,116.53 0 0 1 15.75,2.5 l 13.12,22.72 a 109.85,109.85 0 0 1 -78.74,0 l 13.12,-22.72 a 116.6,116.6 0 0 1 15.75,-2.53 v -26 z" />
  <path
     inkscape:connector-curvature="0"
     id="path889"
     style="fill:#585858;fill-rule:evenodd"
     d="m -366.51085,51.75 a 63.75,63.75 0 1 1 -63.75,63.75 63.75,63.75 0 0 1 63.75,-63.75 z" />
  <path
     class="mouth"
     inkscape:connector-curvature="0"
     id="path891"
     style="fill:#ffffff;fill-rule:evenodd;stroke:#000000;stroke-width:2.99991px;stroke-linecap:round;stroke-linejoin:round"
     d="m -384.95085,144.59 a 20.15,20.15 0 0 0 36.88,4.53 z" />
  <path
     class="clothes"
     inkscape:connector-curvature="0"
     id="path893"
     style="fill-rule:evenodd"
     d="m -340.26085,195 a 114.79,114.79 0 0 1 38,16.5 115.53,115.53 0 0 1 -128.46,0 114.79,114.79 0 0 1 38,-16.5 v 0 a 115.77,115.77 0 0 1 15.71,-2.53 v -14.09 a 63.8,63.8 0 0 0 21,0 v 14.09 a 116.6,116.6 0 0 1 15.75,2.53 z" />
  <path
     style="fill:#b2b2b2;fill-opacity:1;fill-rule:nonzero;stroke:none;stroke-width:0.192868"
     d="m -421.02684,205.66172 6.2675,2.2051 3.40736,-6.819 c 0.92662,-0.3857 1.86055,-0.7642 2.80177,-1.1353 l -3.99106,7.9907 27.22239,-3.0857 3.25414,-11.7386 c 0.71503,-0.095 1.43007,-0.1819 2.1451,-0.2692 l -3.28332,11.8186 20.39308,-1.6011 -14.19125,-15.9449 v -2.4379 l 17.60591,-5.7274 c 1.13092,-0.1237 2.26184,-0.2838 3.38547,-0.473 v 1.47 l -19.16731,6.2295 14.73117,16.5417 19.83857,-7.7432 c 1.11633,0.2547 2.24725,0.5312 3.36358,0.8223 l -21.37078,8.34 20.53171,13.84175 2.67773,-21.68685 c 0.64937,0.1819 1.29874,0.3712 1.94811,0.5604 l -2.77259,22.37818 0.0584,0.0364 v 0 l 8.50746,4.99234 c -0.82448,0.2911 -1.64896,0.57492 -2.48073,0.85145 l -6.4718,-3.79157 -1.29873,6.06215 c -0.71504,0.18193 -1.43007,0.35659 -2.15241,0.53125 l 1.34252,-6.28045 -17.0368,8.83483 c -1.67084,0.15283 -3.34169,0.27655 -5.02713,0.35661 l 21.58967,-11.19275 -20.96219,-14.13284 -7.50057,25.45657 c -0.69315,-0.007 -1.37899,-0.0145 -2.07214,-0.0364 l 7.6392,-25.91507 -21.04975,1.652 9.0109,24.05202 c -0.47426,-0.0291 -0.94122,-0.0582 -1.41548,-0.0946 -0.16781,-0.0147 -0.32833,-0.0291 -0.49615,-0.0437 l -0.073,-0.007 c -0.0657,0 -0.13133,-0.007 -0.2043,-0.0145 l -8.36882,-22.34182 -10.12723,19.24163 c -0.66396,-0.16739 -1.32792,-0.34206 -1.98458,-0.52399 l 10.51393,-19.96214 -26.0404,2.95469 13.42514,16.41797 c -1.15281,-0.33476 -2.29833,-0.69135 -3.44384,-1.06251 l -12.08263,-14.78054 -8.16453,5.96752 c -0.64207,-0.3493 -1.27685,-0.71318 -1.90433,-1.07705 l 8.12805,-5.93848 -6.98983,-2.4598 c 0.77341,-0.4366 1.55411,-0.866 2.33481,-1.2881 z m 92.50945,-7.2556 14.22773,20.09304 c -0.5983,0.30565 -1.20389,0.60404 -1.80948,0.89514 l -15.61402,-22.04348 c 1.07255,0.3421 2.1378,0.6914 3.19577,1.0553 z"
     id="path895"
     class="clothes" />
  <line
     class="eyes"
     id="line897"
     style="fill:none;stroke:#000000;stroke-width:8.79987px;stroke-linecap:round;stroke-linejoin:round"
     y2="109.79"
     x2="-396.72086"
     y1="98.730003"
     x1="-396.72086" />
  <path
     d="m -372.02173,15.56956 c -13.45954,3.63014 -19.7887,11.95041 -24.06902,24.08037 -6.99955,-6.99996 -8.73072,-10.81991 -7.56056,-21.42996 a 40.999998,40.999998 0 0 0 -9.26975,24.98798 c 0,0 0,0 0,0 0.0366,7.67763 5.64621,13.93865 12.69705,15.29721 -13.31458,5.81059 -15.2577,22.03326 -14.04515,33.52382 5.76867,-11.86123 14.25395,-20.98147 27.25819,-22.95092 -0.43017,6.59998 -2.50989,10.22033 -7.28999,17.66036 18.2904,-2.8601 25.11934,-7.81991 37.14966,-18.2399 0.46001,0 1.00009,0.089 1.46062,0.12058 -0.33023,3.56011 -1.09062,6.55979 -5.00043,12.45977 9.52985,-1.32005 14.72129,-5.80055 17.53942,-11.67064 8.88616,0.95314 15.83599,6.78498 21.25978,14.81779 1.92795,-15.21107 -4.47657,-26.59984 -19.80701,-34.0359 1.41666,-2.69745 8.01428,-11.92529 17.66136,-15.72137 -1.42398,-0.28569 -2.88826,-0.49486 -4.40331,-0.61125 -5.71005,-0.41992 -13.61967,-0.99982 -24.89012,4.17032 2.85006,-8.51009 10.21018,-11.0001 18.0502,-13.12006 -15.13054,-1.25007 -28.60996,-2.5898 -40.52986,8.18008 -1.89969,-6.20995 -0.18055,-12.54026 3.78892,-17.52032 z"
     style="fill:#ffffff;fill-rule:evenodd;stroke-width:1"
     id="path899"
     inkscape:connector-curvature="0"
     class="top" />
  <path
     sodipodi:nodetypes="ccccccccccc"
     d="m -309.38107,69.9537 c 1.22917,14.06415 0.93841,29.95977 0.34635,45.16929 1.78874,6.79602 3.03793,13.23518 3.88415,18.38811 l 0.13973,-0.011 c 1.00009,6.56005 2.3597,13.18023 3.26977,19.73018 2.00017,-6.56994 2.53031,-18.24963 3.24046,-25.42957 1.25966,-13.00005 1.82957,-29.31081 -0.43017,-41.93087 -0.85041,-4.71997 -2.0007,-7.68961 -2.0007,-8.47957 4.62049,3.56011 8.6606,9.22035 13.00058,14.15038 -0.6751,-3.43179 -1.34705,-6.60035 -2.05669,-9.52728 -4.04696,-5.71828 -13.72614,-12.15357 -19.39348,-12.05967 z"
     style="fill:#ffffff;fill-rule:evenodd;stroke-width:1"
     id="path901"
     inkscape:connector-curvature="0"
     class="top" />
  <path
     sodipodi:nodetypes="cccccccccc"
     d="m -324.03756,34.47079 c -10.33921,2.75789 -17.71547,13.54302 -19.13213,16.24047 15.33044,7.43606 20.78329,17.95967 21.27778,33.5168 5.95341,8.81786 10.06574,20.28896 12.85719,30.89493 0.87636,-13.17799 1.81856,-27.72628 0.26566,-44.27991 2.56977,0.44857 9.13717,1.39344 18.78147,11.17004 -2.11582,-8.73209 -4.5671,-15.31014 -8.45388,-20.28314 -4.55978,-5.84011 -10.99936,-10.43055 -23.80944,-13.00047 9.65021,-3.33995 16.26982,-0.76993 25.50032,2.13011 -8.13883,-7.4315 -16.47444,-14.2191 -27.28697,-16.38883 z"
     style="fill:#ffffff;fill-opacity:1;stroke:none;stroke-width:0.52333px;stroke-linecap:butt;stroke-linejoin:miter;stroke-opacity:1"
     id="path903"
     inkscape:connector-curvature="0"
     class="top" />
  <path
     sodipodi:nodetypes="cccccccc"
     d="m -420.53789,73.35441 c -7.25604,-0.77501 -13.02398,2.37464 -16.26221,5.38789 0.73789,-0.45409 1.38682,-0.74208 1.84892,-0.74208 0,0 -1.51975,10.35932 -1.61971,11.51939 -1.56004,19.72999 0.99957,43.40065 6.36998,62.47055 1.3099,4.68993 1.18953,3.08927 1.88975,-0.9107 1.75263,-10.06067 3.38909,-24.70319 6.9739,-38.86446 -5.06803,-17.62694 -4.25077,-32.40285 0.79937,-38.86059 z"
     style="fill:#ffffff;fill-rule:evenodd;stroke-width:1"
     id="path905"
     inkscape:connector-curvature="0"
     class="top" />
  <path
     sodipodi:nodetypes="cccccccccccccc"
     d="m -412.92106,43.20999 c -0.0253,1.08032 -0.008,2.16121 0.0523,3.24015 -3.84019,0 -12.46049,0.71984 -16.0003,2.15979 -4.4504,1.8001 -8.48005,5.4801 -11.66975,11.83009 7.29994,-3.94005 11.89949,-3.85025 16.6597,-1.81015 -10.3902,3.44995 -19.52022,11.3704 -20.31987,26.90039 1.14557,-1.5053 4.60792,-4.97886 7.13927,-6.6285 0.09,-0.0587 0.17427,-0.10556 0.26167,-0.15946 3.71407,-2.32113 9.04943,-5.12471 15.18077,-4.95531 -5.05014,6.45774 -6.68241,20.43401 0.28207,38.42801 1.78665,-7.05669 4.05739,-13.99361 7.06811,-20.18398 -10e-4,-11.66359 2.07644,-27.7744 15.39101,-33.58499 -7.05083,-2.15385 -12.70855,-7.99099 -14.04291,-15.23604 z"
     style="fill:#ffffff;fill-rule:evenodd;stroke-width:1"
     id="path907"
     inkscape:connector-curvature="0"
     class="top" />
  <path
     class="eyes"
     inkscape:connector-curvature="0"
     id="path909"
     style="fill:#1a1a1a;fill-rule:evenodd"
     d="m -373.73085,72.16 h 62.18 c 9.19,0 13.32,1.21 14.71,8.52 3.61,18.95 2.2,33.49 -0.44,43.75 a 65.07,65.07 0 0 1 -5.89,14.78 73.52,73.52 0 0 1 -7.06,10.26 c -1.8,2.27 -5.17,1.21 -4.19,-1.09 0.14,-0.47 0.27,-1 0.4,-1.48 a 14.29,14.29 0 0 0 0.52,-6.62 12.52,12.52 0 0 0 -3.88,-6.3 c -4.17,-3.9 -12.81,-8.71 -32.53,-13.66 -6.4,-1.6 -10.69,-2.24 -11.76,-2.79 a 7.08,7.08 0 0 1 -3.85,-6.31 v -9 c 0,-2.39 0.18,-4.55 -1.56,-6.57 -1.74,-2.02 -4.16,-2.13 -6.65,-2.14 a 6,6 0 0 1 -6,-6 v -9.35 a 6,6 0 0 1 6,-6 z" />
  <path
     class="eyes"
     inkscape:connector-curvature="0"
     id="path911"
     style="fill:none;stroke:#b2b2b2;stroke-width:7.79981px;stroke-linecap:round;stroke-linejoin:round"
     d="M -346.11085,98.73 V 108 m 15.22,-9.29 V 108" />
</svg>
